<?xml version="1.0" encoding="UTF-8"?>
<svg width="120px" height="72px" viewBox="0 0 120 72" version="1.1" xmlns="http://www.w3.org/2000/svg" xmlns:xlink="http://www.w3.org/1999/xlink">
    <!-- Generator: Sketch 53.2 (72643) - https://sketchapp.com -->
    <title>lego</title>
    <desc>Created with Sketch.</desc>
    <defs>
        <polygon id="path-1" points="0 16 32 0 48 8 16 24"></polygon>
        <path d="M0,4 L0,2 L8,2 L8,4 C8,5.1045695 6.209139,6 4,6 C1.790861,6 0,5.1045695 0,4 Z" id="path-2"></path>
        <ellipse id="path-3" cx="4" cy="2" rx="4" ry="2"></ellipse>
        <path d="M0,4 L0,2 L8,2 L8,4 C8,5.1045695 6.209139,6 4,6 C1.790861,6 0,5.1045695 0,4 Z" id="path-4"></path>
        <ellipse id="path-5" cx="4" cy="2" rx="4" ry="2"></ellipse>
        <polygon id="path-6" points="32 16 32 24 48 32 48 24"></polygon>
        <polygon id="path-7" points="0 24 48 0 64 8 16 32"></polygon>
        <path d="M0,4 L0,2 L8,2 L8,4 C8,5.1045695 6.209139,6 4,6 C1.790861,6 0,5.1045695 0,4 Z" id="path-8"></path>
        <ellipse id="path-9" cx="4" cy="2" rx="4" ry="2"></ellipse>
        <path d="M0,4 L0,2 L8,2 L8,4 C8,5.1045695 6.209139,6 4,6 C1.790861,6 0,5.1045695 0,4 Z" id="path-10"></path>
        <ellipse id="path-11" cx="4" cy="2" rx="4" ry="2"></ellipse>
        <path d="M0,4 L0,2 L8,2 L8,4 C8,5.1045695 6.209139,6 4,6 C1.790861,6 0,5.1045695 0,4 Z" id="path-12"></path>
        <ellipse id="path-13" cx="4" cy="2" rx="4" ry="2"></ellipse>
        <path d="M0,4 L0,2 L8,2 L8,4 C8,5.1045695 6.209139,6 4,6 C1.790861,6 0,5.1045695 0,4 Z" id="path-14"></path>
        <ellipse id="path-15" cx="4" cy="2" rx="4" ry="2"></ellipse>
        <path d="M0,4 L0,2 L8,2 L8,4 C8,5.1045695 6.209139,6 4,6 C1.790861,6 0,5.1045695 0,4 Z" id="path-16"></path>
        <ellipse id="path-17" cx="4" cy="2" rx="4" ry="2"></ellipse>
        <path d="M0,4 L0,2 L8,2 L8,4 C8,5.1045695 6.209139,6 4,6 C1.790861,6 0,5.1045695 0,4 Z" id="path-18"></path>
        <ellipse id="path-19" cx="4" cy="2" rx="4" ry="2"></ellipse>
        <path d="M0,4 L0,2 L8,2 L8,4 C8,5.1045695 6.209139,6 4,6 C1.790861,6 0,5.1045695 0,4 Z" id="path-20"></path>
        <ellipse id="path-21" cx="4" cy="2" rx="4" ry="2"></ellipse>
        <path d="M0,4 L0,2 L8,2 L8,4 C8,5.1045695 6.209139,6 4,6 C1.790861,6 0,5.1045695 0,4 Z" id="path-22"></path>
        <ellipse id="path-23" cx="4" cy="2" rx="4" ry="2"></ellipse>
        <path d="M0,4 L0,2 L8,2 L8,4 C8,5.1045695 6.209139,6 4,6 C1.790861,6 0,5.1045695 0,4 Z" id="path-24"></path>
        <ellipse id="path-25" cx="4" cy="2" rx="4" ry="2"></ellipse>
        <path d="M0,4 L0,2 L8,2 L8,4 C8,5.1045695 6.209139,6 4,6 C1.790861,6 0,5.1045695 0,4 Z" id="path-26"></path>
        <ellipse id="path-27" cx="4" cy="2" rx="4" ry="2"></ellipse>
        <polygon id="path-28" points="48 24 48 32 64 40 64 32"></polygon>
        <polygon id="path-29" points="0 24 32 8 48 16 16 32"></polygon>
        <polygon id="path-30" points="48 24 48 16 32 8 32 16"></polygon>
        <path d="M0,4 L0,2 L8,2 L8,4 C8,5.1045695 6.209139,6 4,6 C1.790861,6 0,5.1045695 0,4 Z" id="path-31"></path>
        <ellipse id="path-32" cx="4" cy="2" rx="4" ry="2"></ellipse>
        <path d="M0,4 L0,2 L8,2 L8,4 C8,5.1045695 6.209139,6 4,6 C1.790861,6 0,5.1045695 0,4 Z" id="path-33"></path>
        <ellipse id="path-34" cx="4" cy="2" rx="4" ry="2"></ellipse>
        <path d="M0,4 L0,2 L8,2 L8,4 C8,5.1045695 6.209139,6 4,6 C1.790861,6 0,5.1045695 0,4 Z" id="path-35"></path>
        <ellipse id="path-36" cx="4" cy="2" rx="4" ry="2"></ellipse>
        <path d="M0,4 L0,2 L8,2 L8,4 C8,5.1045695 6.209139,6 4,6 C1.790861,6 0,5.1045695 0,4 Z" id="path-37"></path>
        <ellipse id="path-38" cx="4" cy="2" rx="4" ry="2"></ellipse>
        <polygon id="path-39" points="16 16 16 24 48 40 48 32"></polygon>
        <path d="M0,4 L0,2 L8,2 L8,4 C8,5.1045695 6.209139,6 4,6 C1.790861,6 0,5.1045695 0,4 Z" id="path-40"></path>
        <ellipse id="path-41" cx="4" cy="2" rx="4" ry="2"></ellipse>
        <path d="M0,4 L0,2 L8,2 L8,4 C8,5.1045695 6.209139,6 4,6 C1.790861,6 0,5.1045695 0,4 Z" id="path-42"></path>
        <ellipse id="path-43" cx="4" cy="2" rx="4" ry="2"></ellipse>
        <path d="M0,4 L0,2 L8,2 L8,4 C8,5.1045695 6.209139,6 4,6 C1.790861,6 0,5.1045695 0,4 Z" id="path-44"></path>
        <ellipse id="path-45" cx="4" cy="2" rx="4" ry="2"></ellipse>
        <path d="M0,4 L0,2 L8,2 L8,4 C8,5.1045695 6.209139,6 4,6 C1.790861,6 0,5.1045695 0,4 Z" id="path-46"></path>
        <ellipse id="path-47" cx="4" cy="2" rx="4" ry="2"></ellipse>
        <polygon id="path-48" points="16 8 32 0 48 8 32 16"></polygon>
        <path d="M0,4 L0,2 L8,2 L8,4 C8,5.1045695 6.209139,6 4,6 C1.790861,6 0,5.1045695 0,4 Z" id="path-49"></path>
        <ellipse id="path-50" cx="4" cy="2" rx="4" ry="2"></ellipse>
        <path d="M0,4 L0,2 L8,2 L8,4 C8,5.1045695 6.209139,6 4,6 C1.790861,6 0,5.1045695 0,4 Z" id="path-51"></path>
        <ellipse id="path-52" cx="4" cy="2" rx="4" ry="2"></ellipse>
        <path d="M0,4 L0,2 L8,2 L8,4 C8,5.1045695 6.209139,6 4,6 C1.790861,6 0,5.1045695 0,4 Z" id="path-53"></path>
        <ellipse id="path-54" cx="4" cy="2" rx="4" ry="2"></ellipse>
        <path d="M0,4 L0,2 L8,2 L8,4 C8,5.1045695 6.209139,6 4,6 C1.790861,6 0,5.1045695 0,4 Z" id="path-55"></path>
        <ellipse id="path-56" cx="4" cy="2" rx="4" ry="2"></ellipse>
    </defs>
    <g id="lego" stroke="none" stroke-width="1" fill="none" fill-rule="evenodd" stroke-linecap="round" stroke-linejoin="round">
        <g id="legoBlock" transform="translate(4.000000, 4.000000)">
            <polygon id="Path-388" stroke="#666666" fill="#666666" opacity="0.2" points="0 32 48 8 112 40 64 64"></polygon>
            <path d="M92,30 L96,32 L96,40 L64,56 L16,32 L16,24 L28,18 C28,16.8954305 29.790861,16 32,16 C34.209139,16 36,16.8954305 36,18 L40,20 L48,16 L48,8 L52,6 C52,4.8954305 53.790861,4 56,4 L60,2 C60,0.8954305 61.790861,0 64,0 C66.209139,0 68,0.8954305 68,2 L72,4 C74.209139,4 76,4.8954305 76,6 L80,8 L80,24 C82.209139,24 84,24.8954305 84,26 L88,28 C90.209139,28 92,28.8954305 92,30 Z" id="Combined-Shape" stroke="#666666" stroke-width="5"></path>
            <ellipse id="Oval-9-Copy" stroke="#666666" stroke-width="5" cx="24" cy="22" rx="4" ry="2"></ellipse>
            <g id="Group-111-Copy" transform="translate(48.000000, 16.000000)">
                <g id="Path-383" transform="translate(24.000000, 12.000000) scale(-1, 1) translate(-24.000000, -12.000000) ">
                    <use fill="#FFDE74" xlink:href="#path-1"></use>
                    <use stroke="#666666" stroke-width="1" fill-opacity="0.4" fill="#FFFFFF" xlink:href="#path-1"></use>
                </g>
                <g id="Group-110" transform="translate(40.000000, 15.000000) scale(-1, 1) translate(-40.000000, -15.000000) translate(36.000000, 12.000000)">
                    <g id="Combined-Shape">
                        <use fill="#FFDE74" xlink:href="#path-2"></use>
                        <use stroke="#666666" stroke-width="1" fill-opacity="0.2" fill="#666666" xlink:href="#path-2"></use>
                    </g>
                    <g id="Oval-9-Copy">
                        <use fill="#FFDE74" xlink:href="#path-3"></use>
                        <use stroke="#666666" stroke-width="1" fill-opacity="0.4" fill="#FFFFFF" xlink:href="#path-3"></use>
                    </g>
                </g>
                <g id="Group-110" transform="translate(32.000000, 19.000000) scale(-1, 1) translate(-32.000000, -19.000000) translate(28.000000, 16.000000)">
                    <g id="Combined-Shape">
                        <use fill="#FFDE74" xlink:href="#path-4"></use>
                        <use stroke="#666666" stroke-width="1" fill-opacity="0.2" fill="#666666" xlink:href="#path-4"></use>
                    </g>
                    <g id="Oval-9-Copy">
                        <use fill="#FFDE74" xlink:href="#path-5"></use>
                        <use stroke="#666666" stroke-width="1" fill-opacity="0.4" fill="#FFFFFF" xlink:href="#path-5"></use>
                    </g>
                </g>
                <g id="Path-384" transform="translate(40.000000, 24.000000) scale(-1, 1) translate(-40.000000, -24.000000) ">
                    <use fill="#FFDE74" xlink:href="#path-6"></use>
                    <use stroke="#666666" stroke-width="1" fill-opacity="0.2" fill="#666666" xlink:href="#path-6"></use>
                </g>
                <polygon id="Path-384-Copy" stroke="#666666" fill="#FFDE74" points="0 8 0 16 32 32 32 24"></polygon>
            </g>
            <g id="Group-111" transform="translate(16.000000, 16.000000)">
                <g id="Path-383" transform="translate(32.000000, 16.000000) scale(-1, 1) translate(-32.000000, -16.000000) ">
                    <use fill="#FF937E" xlink:href="#path-7"></use>
                    <use stroke="#666666" stroke-width="1" fill-opacity="0.4" fill="#FFFFFF" xlink:href="#path-7"></use>
                </g>
                <g id="Group-110" transform="translate(56.000000, 23.000000) scale(-1, 1) translate(-56.000000, -23.000000) translate(52.000000, 20.000000)">
                    <g id="Combined-Shape">
                        <use fill="#FF937E" xlink:href="#path-8"></use>
                        <use stroke="#666666" stroke-width="1" fill-opacity="0.2" fill="#666666" xlink:href="#path-8"></use>
                    </g>
                    <g id="Oval-9-Copy">
                        <use fill="#FF937E" xlink:href="#path-9"></use>
                        <use stroke="#666666" stroke-width="1" fill-opacity="0.4" fill="#FFFFFF" xlink:href="#path-9"></use>
                    </g>
                </g>
                <g id="Group-110-Copy-2" transform="translate(40.000000, 15.000000) scale(-1, 1) translate(-40.000000, -15.000000) translate(36.000000, 12.000000)">
                    <g id="Combined-Shape">
                        <use fill="#FF7E8E" xlink:href="#path-10"></use>
                        <use stroke="#666666" stroke-width="1" fill-opacity="0.2" fill="#666666" xlink:href="#path-10"></use>
                    </g>
                    <g id="Oval-9-Copy">
                        <use fill="#FF7E8E" xlink:href="#path-11"></use>
                        <use stroke="#666666" stroke-width="1" fill-opacity="0.4" fill="#FFFFFF" xlink:href="#path-11"></use>
                    </g>
                </g>
                <g id="Group-110-Copy-3" transform="translate(32.000000, 11.000000) scale(-1, 1) translate(-32.000000, -11.000000) translate(28.000000, 8.000000)">
                    <g id="Combined-Shape">
                        <use fill="#FF7E8E" xlink:href="#path-12"></use>
                        <use stroke="#666666" stroke-width="1" fill-opacity="0.2" fill="#666666" xlink:href="#path-12"></use>
                    </g>
                    <g id="Oval-9-Copy">
                        <use fill="#FF7E8E" xlink:href="#path-13"></use>
                        <use stroke="#666666" stroke-width="1" fill-opacity="0.4" fill="#FFFFFF" xlink:href="#path-13"></use>
                    </g>
                </g>
                <g id="Group-110" transform="translate(48.000000, 27.000000) scale(-1, 1) translate(-48.000000, -27.000000) translate(44.000000, 24.000000)">
                    <g id="Combined-Shape">
                        <use fill="#FF937E" xlink:href="#path-14"></use>
                        <use stroke="#666666" stroke-width="1" fill-opacity="0.2" fill="#666666" xlink:href="#path-14"></use>
                    </g>
                    <g id="Oval-9-Copy">
                        <use fill="#FF937E" xlink:href="#path-15"></use>
                        <use stroke="#666666" stroke-width="1" fill-opacity="0.4" fill="#FFFFFF" xlink:href="#path-15"></use>
                    </g>
                </g>
                <g id="Group-110-Copy-6" transform="translate(16.000000, 11.000000) scale(-1, 1) translate(-16.000000, -11.000000) translate(12.000000, 8.000000)">
                    <g id="Combined-Shape">
                        <use fill="#FF937E" xlink:href="#path-16"></use>
                        <use stroke="#666666" stroke-width="1" fill-opacity="0.2" fill="#666666" xlink:href="#path-16"></use>
                    </g>
                    <g id="Oval-9-Copy">
                        <use fill="#FF937E" xlink:href="#path-17"></use>
                        <use stroke="#666666" stroke-width="1" fill-opacity="0.4" fill="#FFFFFF" xlink:href="#path-17"></use>
                    </g>
                </g>
                <g id="Group-110-Copy-8" transform="translate(24.000000, 7.000000) scale(-1, 1) translate(-24.000000, -7.000000) translate(20.000000, 4.000000)">
                    <g id="Combined-Shape">
                        <use fill="#FF7E8E" xlink:href="#path-18"></use>
                        <use stroke="#666666" stroke-width="1" fill-opacity="0.2" fill="#666666" xlink:href="#path-18"></use>
                    </g>
                    <g id="Oval-9-Copy">
                        <use fill="#FF7E8E" xlink:href="#path-19"></use>
                        <use stroke="#666666" stroke-width="1" fill-opacity="0.4" fill="#FFFFFF" xlink:href="#path-19"></use>
                    </g>
                </g>
                <g id="Group-110-Copy-7" transform="translate(8.000000, 7.000000) scale(-1, 1) translate(-8.000000, -7.000000) translate(4.000000, 4.000000)">
                    <g id="Combined-Shape">
                        <use fill="#FF937E" xlink:href="#path-20"></use>
                        <use stroke="#666666" stroke-width="1" fill-opacity="0.2" fill="#666666" xlink:href="#path-20"></use>
                    </g>
                    <g id="Oval-9-Copy">
                        <use fill="#FF937E" xlink:href="#path-21"></use>
                        <use stroke="#666666" stroke-width="1" fill-opacity="0.4" fill="#FFFFFF" xlink:href="#path-21"></use>
                    </g>
                </g>
                <g id="Group-110-Copy-9" transform="translate(16.000000, 3.000000) scale(-1, 1) translate(-16.000000, -3.000000) translate(12.000000, 0.000000)">
                    <g id="Combined-Shape">
                        <use fill="#FF937E" xlink:href="#path-22"></use>
                        <use stroke="#666666" stroke-width="1" fill-opacity="0.2" fill="#666666" xlink:href="#path-22"></use>
                    </g>
                    <g id="Oval-9-Copy">
                        <use fill="#FF937E" xlink:href="#path-23"></use>
                        <use stroke="#666666" stroke-width="1" fill-opacity="0.4" fill="#FFFFFF" xlink:href="#path-23"></use>
                    </g>
                </g>
                <g id="Group-110-Copy-2" transform="translate(32.000000, 19.000000) scale(-1, 1) translate(-32.000000, -19.000000) translate(28.000000, 16.000000)">
                    <g id="Combined-Shape">
                        <use fill="#FF7E8E" xlink:href="#path-24"></use>
                        <use stroke="#666666" stroke-width="1" fill-opacity="0.2" fill="#666666" xlink:href="#path-24"></use>
                    </g>
                    <g id="Oval-9-Copy">
                        <use fill="#FF7E8E" xlink:href="#path-25"></use>
                        <use stroke="#666666" stroke-width="1" fill-opacity="0.4" fill="#FFFFFF" xlink:href="#path-25"></use>
                    </g>
                </g>
                <g id="Group-110-Copy-3" transform="translate(24.000000, 15.000000) scale(-1, 1) translate(-24.000000, -15.000000) translate(20.000000, 12.000000)">
                    <g id="Combined-Shape">
                        <use fill="#FF7E8E" xlink:href="#path-26"></use>
                        <use stroke="#666666" stroke-width="1" fill-opacity="0.2" fill="#666666" xlink:href="#path-26"></use>
                    </g>
                    <g id="Oval-9-Copy">
                        <use fill="#FF7E8E" xlink:href="#path-27"></use>
                        <use stroke="#666666" stroke-width="1" fill-opacity="0.4" fill="#FFFFFF" xlink:href="#path-27"></use>
                    </g>
                </g>
                <g id="Path-384" transform="translate(56.000000, 32.000000) scale(-1, 1) translate(-56.000000, -32.000000) ">
                    <use fill="#FF937E" xlink:href="#path-28"></use>
                    <use stroke="#666666" stroke-width="1" fill-opacity="0.2" fill="#666666" xlink:href="#path-28"></use>
                </g>
                <polygon id="Path-384-Copy" stroke="#666666" fill="#FF937E" points="0 8 0 16 48 40 48 32"></polygon>
            </g>
            <g id="Group-109" transform="translate(32.000000, 0.000000)">
                <g id="Path-383">
                    <use fill="#B8E986" xlink:href="#path-29"></use>
                    <use stroke="#666666" stroke-width="1" fill-opacity="0.4" fill="#FFFFFF" xlink:href="#path-29"></use>
                </g>
                <polygon id="Path-385" stroke="#666666" fill="#5D9AE1" points="32 24 32 16 16 8 16 16"></polygon>
                <g id="Path-385-Copy" transform="translate(40.000000, 16.000000) scale(-1, 1) translate(-40.000000, -16.000000) ">
                    <use fill="#5D9AE1" xlink:href="#path-30"></use>
                    <use stroke="#666666" stroke-width="1" fill-opacity="0.2" fill="#666666" xlink:href="#path-30"></use>
                </g>
                <g id="Group-110" transform="translate(4.000000, 20.000000)">
                    <g id="Combined-Shape">
                        <use fill="#B8E986" xlink:href="#path-31"></use>
                        <use stroke="#666666" stroke-width="1" fill-opacity="0.2" fill="#666666" xlink:href="#path-31"></use>
                    </g>
                    <g id="Oval-9-Copy">
                        <use fill="#B8E986" xlink:href="#path-32"></use>
                        <use stroke="#666666" stroke-width="1" fill-opacity="0.4" fill="#FFFFFF" xlink:href="#path-32"></use>
                    </g>
                </g>
                <g id="Group-110-Copy" transform="translate(12.000000, 16.000000)">
                    <g id="Combined-Shape">
                        <use fill="#B8E986" xlink:href="#path-33"></use>
                        <use stroke="#666666" stroke-width="1" fill-opacity="0.2" fill="#666666" xlink:href="#path-33"></use>
                    </g>
                    <g id="Oval-9-Copy">
                        <use fill="#B8E986" xlink:href="#path-34"></use>
                        <use stroke="#666666" stroke-width="1" fill-opacity="0.4" fill="#FFFFFF" xlink:href="#path-34"></use>
                    </g>
                </g>
                <g id="Group-110" transform="translate(12.000000, 24.000000)">
                    <g id="Combined-Shape">
                        <use fill="#B8E986" xlink:href="#path-35"></use>
                        <use stroke="#666666" stroke-width="1" fill-opacity="0.2" fill="#666666" xlink:href="#path-35"></use>
                    </g>
                    <g id="Oval-9-Copy">
                        <use fill="#B8E986" xlink:href="#path-36"></use>
                        <use stroke="#666666" stroke-width="1" fill-opacity="0.4" fill="#FFFFFF" xlink:href="#path-36"></use>
                    </g>
                </g>
                <g id="Group-110-Copy" transform="translate(20.000000, 20.000000)">
                    <g id="Combined-Shape">
                        <use fill="#B8E986" xlink:href="#path-37"></use>
                        <use stroke="#666666" stroke-width="1" fill-opacity="0.2" fill="#666666" xlink:href="#path-37"></use>
                    </g>
                    <g id="Oval-9-Copy">
                        <use fill="#B8E986" xlink:href="#path-38"></use>
                        <use stroke="#666666" stroke-width="1" fill-opacity="0.4" fill="#FFFFFF" xlink:href="#path-38"></use>
                    </g>
                </g>
                <polygon id="Path-384" stroke="#666666" fill="#B8E986" points="0 24 0 32 16 40 16 32"></polygon>
                <g id="Path-384-Copy" transform="translate(32.000000, 28.000000) scale(-1, 1) translate(-32.000000, -28.000000) ">
                    <use fill="#B8E986" xlink:href="#path-39"></use>
                    <use stroke="#666666" stroke-width="1" fill-opacity="0.2" fill="#666666" xlink:href="#path-39"></use>
                </g>
                <g id="Group-110-Copy" transform="translate(32.000000, 35.000000) scale(-1, 1) translate(-32.000000, -35.000000) translate(28.000000, 32.000000)">
                    <g id="Combined-Shape">
                        <use fill="#FF937E" xlink:href="#path-40"></use>
                        <use stroke="#666666" stroke-width="1" fill-opacity="0.2" fill="#666666" xlink:href="#path-40"></use>
                    </g>
                    <g id="Oval-9-Copy">
                        <use fill="#FF937E" xlink:href="#path-41"></use>
                        <use stroke="#666666" stroke-width="1" fill-opacity="0.4" fill="#FFFFFF" xlink:href="#path-41"></use>
                    </g>
                </g>
                <g id="Group-110-Copy-4" transform="translate(40.000000, 31.000000) scale(-1, 1) translate(-40.000000, -31.000000) translate(36.000000, 28.000000)">
                    <g id="Combined-Shape">
                        <use fill="#FFDE74" xlink:href="#path-42"></use>
                        <use stroke="#666666" stroke-width="1" fill-opacity="0.2" fill="#666666" xlink:href="#path-42"></use>
                    </g>
                    <g id="Oval-9-Copy">
                        <use fill="#FFDE74" xlink:href="#path-43"></use>
                        <use stroke="#666666" stroke-width="1" fill-opacity="0.4" fill="#FFFFFF" xlink:href="#path-43"></use>
                    </g>
                </g>
                <g id="Group-110-Copy-5" transform="translate(48.000000, 27.000000) scale(-1, 1) translate(-48.000000, -27.000000) translate(44.000000, 24.000000)">
                    <g id="Combined-Shape">
                        <use fill="#FFDE74" xlink:href="#path-44"></use>
                        <use stroke="#666666" stroke-width="1" fill-opacity="0.2" fill="#666666" xlink:href="#path-44"></use>
                    </g>
                    <g id="Oval-9-Copy">
                        <use fill="#FFDE74" xlink:href="#path-45"></use>
                        <use stroke="#666666" stroke-width="1" fill-opacity="0.4" fill="#FFFFFF" xlink:href="#path-45"></use>
                    </g>
                </g>
                <g id="Group-110-Copy" transform="translate(24.000000, 39.000000) scale(-1, 1) translate(-24.000000, -39.000000) translate(20.000000, 36.000000)">
                    <g id="Combined-Shape">
                        <use fill="#FF937E" xlink:href="#path-46"></use>
                        <use stroke="#666666" stroke-width="1" fill-opacity="0.2" fill="#666666" xlink:href="#path-46"></use>
                    </g>
                    <g id="Oval-9-Copy">
                        <use fill="#FF937E" xlink:href="#path-47"></use>
                        <use stroke="#666666" stroke-width="1" fill-opacity="0.4" fill="#FFFFFF" xlink:href="#path-47"></use>
                    </g>
                </g>
                <g id="Path-386">
                    <use fill="#5D9AE1" xlink:href="#path-48"></use>
                    <use stroke="#666666" stroke-width="1" fill-opacity="0.4" fill="#FFFFFF" xlink:href="#path-48"></use>
                </g>
                <g id="Group-110-Copy" transform="translate(28.000000, 0.000000)">
                    <g id="Combined-Shape">
                        <use fill="#5D9AE1" xlink:href="#path-49"></use>
                        <use stroke="#666666" stroke-width="1" fill-opacity="0.2" fill="#666666" xlink:href="#path-49"></use>
                    </g>
                    <g id="Oval-9-Copy">
                        <use fill="#5D9AE1" xlink:href="#path-50"></use>
                        <use stroke="#666666" stroke-width="1" fill-opacity="0.4" fill="#FFFFFF" xlink:href="#path-50"></use>
                    </g>
                </g>
                <g id="Group-110-Copy" transform="translate(20.000000, 4.000000)">
                    <g id="Combined-Shape">
                        <use fill="#5D9AE1" xlink:href="#path-51"></use>
                        <use stroke="#666666" stroke-width="1" fill-opacity="0.2" fill="#666666" xlink:href="#path-51"></use>
                    </g>
                    <g id="Oval-9-Copy">
                        <use fill="#5D9AE1" xlink:href="#path-52"></use>
                        <use stroke="#666666" stroke-width="1" fill-opacity="0.4" fill="#FFFFFF" xlink:href="#path-52"></use>
                    </g>
                </g>
                <g id="Group-110-Copy" transform="translate(36.000000, 4.000000)">
                    <g id="Combined-Shape">
                        <use fill="#5D9AE1" xlink:href="#path-53"></use>
                        <use stroke="#666666" stroke-width="1" fill-opacity="0.2" fill="#666666" xlink:href="#path-53"></use>
                    </g>
                    <g id="Oval-9-Copy">
                        <use fill="#5D9AE1" xlink:href="#path-54"></use>
                        <use stroke="#666666" stroke-width="1" fill-opacity="0.4" fill="#FFFFFF" xlink:href="#path-54"></use>
                    </g>
                </g>
                <g id="Group-110-Copy" transform="translate(28.000000, 8.000000)">
                    <g id="Combined-Shape">
                        <use fill="#5D9AE1" xlink:href="#path-55"></use>
                        <use stroke="#666666" stroke-width="1" fill-opacity="0.2" fill="#666666" xlink:href="#path-55"></use>
                    </g>
                    <g id="Oval-9-Copy">
                        <use fill="#5D9AE1" xlink:href="#path-56"></use>
                        <use stroke="#666666" stroke-width="1" fill-opacity="0.4" fill="#FFFFFF" xlink:href="#path-56"></use>
                    </g>
                </g>
            </g>
        </g>
    </g>
</svg>