<?xml version="1.0" encoding="UTF-8"?>
<svg width="196px" height="78px" viewBox="0 0 196 78" version="1.1" xmlns="http://www.w3.org/2000/svg" xmlns:xlink="http://www.w3.org/1999/xlink">
    <!-- Generator: Sketch 53.2 (72643) - https://sketchapp.com -->
    <title>Combined Shape 2</title>
    <desc>Created with Sketch.</desc>
    <g id="Page-1" stroke="none" stroke-width="1" fill="none" fill-rule="evenodd">
        <g id="1" transform="translate(-602.000000, -432.000000)" fill="#333333">
            <g id="Combined-Shape-2" transform="translate(602.000000, 432.000000)">
                <path d="M21.2080767,9.2469 C13.4501086,9.2469 7.13928435,15.5862871 7.13928435,23.3787387 C7.13928435,31.1711903 13.4501086,37.5105774 21.2080767,37.5105774 C28.9660447,37.5105774 35.276869,31.1711903 35.276869,23.3787387 C35.276869,15.5862871 28.9660447,9.2469 21.2080767,9.2469 Z M21.2080767,44.6815452 C9.51382748,44.6815452 4.26325641e-14,35.1259161 4.26325641e-14,23.3787387 C4.26325641e-14,11.6321903 9.51382748,2.07593226 21.2080767,2.07593226 C32.9023259,2.07593226 42.4161534,11.6321903 42.4161534,23.3787387 C42.4161534,35.1259161 32.9023259,44.6815452 21.2080767,44.6815452 Z M172.722527,45.2901968 L172.722527,19.8143903 L179.767255,19.8143903 L179.767255,45.2901968 L172.722527,45.2901968 Z M121.974181,26.8910032 L121.974181,19.8143903 L148.74415,19.8143903 L148.74415,26.8910032 L121.974181,26.8910032 Z M195.970256,19.8145161 L191.038946,24.7681452 L176.245016,9.90725806 L161.451086,24.7681452 L156.519776,19.8145161 L172.722652,3.53830645 L172.722652,0 L179.76738,0 L179.76738,3.53830645 L195.970256,19.8145161 Z M112.111687,9.90725806 L100.840121,9.90725806 L100.840121,19.8145161 L110.702741,19.8145161 L110.702741,26.891129 L100.840121,26.891129 L100.840121,36.7983871 L112.111687,36.7983871 L112.111687,43.875 L93.795393,43.875 L93.795393,2.83064516 L112.111687,2.83064516 L112.111687,9.90725806 Z M75.5323259,2.83064516 L82.5770543,2.83064516 L82.5770543,43.875 L78.2944856,43.875 L60.0927859,19.8145161 L58.5717508,19.8145161 L58.5717508,43.875 L51.5270224,43.875 L51.5270224,2.83064516 L55.8095911,2.83064516 L74.0112907,26.891129 L75.5323259,26.891129 L75.5323259,2.83064516 Z M91.0406224,77.2859226 L91.0406224,63.7598419 L94.0801879,63.7598419 L94.0801879,77.2859226 L91.0406224,77.2859226 Z M158.165362,74.4316258 L163.09041,74.4316258 L163.09041,77.2861742 L158.165362,77.2861742 L155.125797,77.2861742 L155.125797,63.7600935 L158.165362,63.7600935 L158.165362,74.4316258 Z M175.688201,74.4316258 L180.613249,74.4316258 L180.613249,77.2861742 L175.688201,77.2861742 L172.648635,77.2861742 L172.648635,63.7600935 L175.688201,63.7600935 L175.688201,74.4316258 Z M69.3886339,66.6141387 L63.7340652,66.6141387 L63.7340652,68.9881065 L68.4462058,68.9881065 L68.4462058,71.8420258 L63.7340652,71.8420258 L63.7340652,74.4317516 L69.3886339,74.4317516 L69.3886339,77.2863 L60.6944997,77.2863 L60.6944997,63.7602194 L69.3886339,63.7602194 L69.3886339,66.6141387 Z M21.1968051,74.3897952 C23.3152332,74.3897952 25.0322684,72.6649887 25.0322684,70.5369726 C25.0322684,68.4083274 23.3152332,66.6828919 21.1968051,66.6828919 C19.078377,66.6828919 17.3607157,68.4083274 17.3607157,70.5369726 C17.3607157,72.6649887 19.078377,74.3897952 21.1968051,74.3897952 Z M21.1968051,63.5918274 C25.0147348,63.5918274 28.1100319,66.7011339 28.1100319,70.5369726 C28.1100319,74.3728113 25.0147348,77.4814887 21.1968051,77.4814887 C17.3782492,77.4814887 14.2829521,74.3728113 14.2829521,70.5369726 C14.2829521,66.7011339 17.3782492,63.5918274 21.1968051,63.5918274 Z M137.984877,72.6476903 L140.839714,72.6476903 L139.411982,69.4371097 L137.984877,72.6476903 Z M142.90241,77.2861742 L142.005695,75.2694968 L136.818896,75.2694968 L135.92218,77.2861742 L132.739842,77.2861742 L139.086359,63.5657226 L139.738231,63.5657226 L146.085375,77.2861742 L142.90241,77.2861742 Z M105.024753,73.6477887 C105.024753,73.6477887 106.803155,74.8284823 108.682376,74.8284823 C109.671769,74.8284823 110.297967,74.4309339 110.297967,73.7025145 C110.297967,72.8080306 109.572829,72.3771435 107.758734,71.5487081 C105.714197,70.6542242 103.999666,69.3955306 103.999666,67.2090145 C103.999666,65.5527726 105.351628,63.5662887 108.517686,63.5662887 C110.844638,63.5662887 112.190964,64.4085629 112.996254,64.9325468 L111.78143,67.2209661 C111.78143,67.2209661 109.940408,66.2491113 108.517686,66.2491113 C107.396165,66.2491113 107.033596,66.7454177 107.033596,67.2417242 C107.033596,68.1034984 107.857673,68.4683371 109.143884,69.031321 C111.550989,70.0918694 113.529775,71.11845 113.529775,73.6031274 C113.529775,75.6569177 111.584178,77.4785952 108.649187,77.4785952 C105.884523,77.4785952 104.574516,76.3507403 103.881941,75.7877565 L105.024753,73.6477887 Z M46.6522581,63.7601565 L49.6918236,63.7601565 L49.6918236,77.4818661 L48.8940473,77.4818661 L41.6295233,70.185721 L41.151108,70.185721 L41.151108,77.2862371 L38.1115425,77.2862371 L38.1115425,63.5657855 L38.9149546,63.5657855 L46.1368971,70.536721 L46.6522581,70.536721 L46.6522581,63.7601565 Z" id="Combined-Shape"></path>
            </g>
        </g>
    </g>
</svg>