<?xml version="1.0" encoding="UTF-8"?>
<svg width="202px" height="258px" viewBox="0 0 202 258" version="1.1" xmlns="http://www.w3.org/2000/svg" xmlns:xlink="http://www.w3.org/1999/xlink">
    <!-- Generator: Sketch 53.2 (72643) - https://sketchapp.com -->
    <title>2-0</title>
    <desc>Created with Sketch.</desc>
    <defs>
        <path d="M40,1.38777878e-16 L8.27029041,12.6918838 C6.21915634,13.5123375 5.22149272,15.8402192 6.04194635,17.8913533 C6.40578169,18.8009417 7.09076719,19.5453836 7.96699873,19.9834994 L39.4723626,35.7361813 C44.7693642,38.3846821 51.0629364,38.0856647 56.0849757,34.9468902 L80,20 L40,1.38777878e-16 Z" id="path-1"></path>
        <polygon id="path-3" points="0 0 176 88 176 192 0 104"></polygon>
        <path d="M0,0.809016994 L2.22044605e-16,3.38196601 C4.36639388e-16,3.76073807 0.214002376,4.10700119 0.552786405,4.2763932 L3.2763932,5.6381966 C3.52338245,5.76169123 3.82371897,5.66157905 3.9472136,5.4145898 C3.98192745,5.34516209 4,5.26860555 4,5.19098301 L4,2.61803399 C4,2.23926193 3.78599762,1.89299881 3.4472136,1.7236068 L0.723606798,0.361803399 C0.476617549,0.238308775 0.176281029,0.338420948 0.0527864045,0.585410197 C0.0180725459,0.654837914 2.12538584e-16,0.731394447 2.22044605e-16,0.809016994 Z" id="path-5"></path>
        <path d="M0,2 L0,2 C1.50108893e-16,3.22573213 0.692526237,4.34626312 1.78885438,4.89442719 L2.21114562,5.10557281 C2.82173662,5.41086831 3.56420933,5.16337741 3.86950483,4.5527864 C3.95532221,4.38115165 4,4.19189349 4,4 L4,4 C4,2.77426787 3.30747376,1.65373688 2.21114562,1.10557281 L1.78885438,0.894427191 C1.17826338,0.58913169 0.43579067,0.836622593 0.130495168,1.4472136 C0.0446777905,1.61884835 -2.35001749e-17,1.80810651 0,2 Z" id="path-7"></path>
        <path d="M0,2 L0,2 C1.50108893e-16,3.22573213 0.692526237,4.34626312 1.78885438,4.89442719 L2.21114562,5.10557281 C2.82173662,5.41086831 3.56420933,5.16337741 3.86950483,4.5527864 C3.95532221,4.38115165 4,4.19189349 4,4 L4,4 C4,2.77426787 3.30747376,1.65373688 2.21114562,1.10557281 L1.78885438,0.894427191 C1.17826338,0.58913169 0.43579067,0.836622593 0.130495168,1.4472136 C0.0446777905,1.61884835 -2.35001749e-17,1.80810651 0,2 Z" id="path-9"></path>
        <path d="M0,2 L0,2 C1.50108893e-16,3.22573213 0.692526237,4.34626312 1.78885438,4.89442719 L2.21114562,5.10557281 C2.82173662,5.41086831 3.56420933,5.16337741 3.86950483,4.5527864 C3.95532221,4.38115165 4,4.19189349 4,4 L4,4 C4,2.77426787 3.30747376,1.65373688 2.21114562,1.10557281 L1.78885438,0.894427191 C1.17826338,0.58913169 0.43579067,0.836622593 0.130495168,1.4472136 C0.0446777905,1.61884835 -2.35001749e-17,1.80810651 0,2 Z" id="path-11"></path>
        <polygon id="path-13" points="1 0.5 0 1.5 2 5 4 3 3 1.5"></polygon>
        <path d="M0,2 L0,2 C1.50108893e-16,3.22573213 0.692526237,4.34626312 1.78885438,4.89442719 L2.21114562,5.10557281 C2.82173662,5.41086831 3.56420933,5.16337741 3.86950483,4.5527864 C3.95532221,4.38115165 4,4.19189349 4,4 L4,4 C4,2.77426787 3.30747376,1.65373688 2.21114562,1.10557281 L1.78885438,0.894427191 C1.17826338,0.58913169 0.43579067,0.836622593 0.130495168,1.4472136 C0.0446777905,1.61884835 -2.35001749e-17,1.80810651 0,2 Z" id="path-15"></path>
        <polygon id="path-17" points="0 0 0 4 4 6 4 2"></polygon>
        <path d="M0,2 L0,2 C1.50108893e-16,3.22573213 0.692526237,4.34626312 1.78885438,4.89442719 L2.21114562,5.10557281 C2.82173662,5.41086831 3.56420933,5.16337741 3.86950483,4.5527864 C3.95532221,4.38115165 4,4.19189349 4,4 L4,4 C4,2.77426787 3.30747376,1.65373688 2.21114562,1.10557281 L1.78885438,0.894427191 C1.17826338,0.58913169 0.43579067,0.836622593 0.130495168,1.4472136 C0.0446777905,1.61884835 -2.35001749e-17,1.80810651 0,2 Z" id="path-19"></path>
        <polygon id="path-21" points="0 0 0 4 4 6 4 2"></polygon>
        <polygon id="path-23" points="0 0 0.5 5 1.5 5.5 2 1"></polygon>
        <polygon id="path-25" points="0 0 0 4 4 6 4 2"></polygon>
        <path d="M0,1.61803399 L5.32907052e-15,82.763932 C5.42184292e-15,83.5214761 0.428004752,84.2140024 1.10557281,84.5527864 L62.5527864,115.276393 C63.0467649,115.523382 63.6474379,115.323158 63.8944272,114.82918 C63.9638549,114.690324 64,114.537211 64,114.381966 L64,33.236068 C64,32.4785239 63.5719952,31.7859976 62.8944272,31.4472136 L1.4472136,0.723606798 C0.953235098,0.476617549 0.352562058,0.676841896 0.105572809,1.17082039 C0.0361450918,1.30967583 -1.61540391e-15,1.46278889 -1.66533454e-15,1.61803399 Z" id="path-27"></path>
    </defs>
    <g id="2-0" stroke="none" stroke-width="1" fill="none" fill-rule="evenodd">
        <rect fill="#FFFFFF" x="0" y="0" width="202" height="258"></rect>
        <g id="iMac" transform="translate(2.000000, 2.000000)">
            <polygon id="Path-2" stroke="#4A4A4A" stroke-width="0.5" fill="#4A4A4A" opacity="0.1" stroke-linecap="round" stroke-linejoin="round" points="-2.84217094e-14 162 16 154 196 244 180 252"></polygon>
            <path d="M192.716644,237.463846 C192.003278,238.124237 191.048775,238.527864 190,238.527864 C189.37902,238.527864 188.766567,238.383284 188.211146,238.105573 L6.42229124,147.211146 C3.71201901,145.85601 2,143.085905 2,140.055728 L2,7.47213595 C2,5.50762886 3.41619481,3.87389178 5.28335558,3.53615358 C5.99672186,2.87576331 6.95122482,2.47213595 8,2.47213595 C8.62098038,2.47213595 9.23343264,2.61671632 9.78885438,2.89442719 L191.577709,93.7888544 C194.287981,95.1439905 196,97.9140954 196,100.944272 L196,233.527864 C196,235.492371 194.583805,237.126108 192.716644,237.463846 Z" id="Combined-Shape" stroke="#4A4A4A" stroke-width="4" fill="#B4B4B4" stroke-linecap="round" stroke-linejoin="round"></path>
            <g id="底座" transform="translate(54.000000, 185.000000)">
                <path d="M78.2222222,21.1111111 L80,22 L56.0849757,36.9468902 C51.0629364,40.0856647 44.7693642,40.3846821 39.4723626,37.7361813 L7.96699873,21.9834994 C7.09076719,21.5453836 6.40578169,20.8009417 6.04194635,19.8913533 C5.71304718,19.0691054 5.67632053,18.2023839 5.88250722,17.406127 C5.38390259,15.4854938 6.37949145,13.4482034 8.27029041,12.6918838 L40,1.38777878e-16 L80,20 L78.2222222,21.1111111 Z" id="Combined-Shape" stroke="#4A4A4A" stroke-width="4" fill="#B4B4B4" stroke-linecap="round" stroke-linejoin="round"></path>
                <path d="M40,2 L8.27029041,14.6918838 C6.21915634,15.5123375 5.22149272,17.8402192 6.04194635,19.8913533 C6.40578169,20.8009417 7.09076719,21.5453836 7.96699873,21.9834994 L39.4723626,37.7361813 C44.7693642,40.3846821 51.0629364,40.0856647 56.0849757,36.9468902 L80,22 L40,2 Z" id="Path-16" stroke="#4A4A4A" stroke-width="0.5" fill="#B4B4B4" stroke-linecap="round" stroke-linejoin="round"></path>
                <g id="Path-17">
                    <mask id="mask-2" fill="white">
                        <use xlink:href="#path-1"></use>
                    </mask>
                    <use id="Mask" stroke="#4A4A4A" stroke-width="0.5" fill="#E2E2E2" stroke-linecap="round" stroke-linejoin="round" xlink:href="#path-1"></use>
                    <polygon stroke="#4A4A4A" stroke-width="0.5" fill="#4A4A4A" opacity="0.1" stroke-linecap="round" stroke-linejoin="round" mask="url(#mask-2)" points="10 5 74 37 94 27 30 -5"></polygon>
                </g>
            </g>
            <g id="屏幕" transform="translate(2.000000, 0.000000)">
                <path d="M7.78885438,2.89442719 L189.577709,93.7888544 C192.287981,95.1439905 194,97.9140954 194,100.944272 L194,233.527864 C194,235.737003 192.209139,237.527864 190,237.527864 C189.37902,237.527864 188.766567,237.383284 188.211146,237.105573 L6.42229124,146.211146 C3.71201901,144.85601 2,142.085905 2,139.055728 L2,6.47213595 C2,4.26299696 3.790861,2.47213595 6,2.47213595 C6.62098038,2.47213595 7.23343264,2.61671632 7.78885438,2.89442719 Z" id="Path-13" stroke="#4A4A4A" stroke-width="0.5" fill="#A6A6A6" stroke-linecap="round" stroke-linejoin="round"></path>
                <path d="M5.78885438,3.89442719 L187.577709,94.7888544 C190.287981,96.1439905 192,98.9140954 192,101.944272 L192,234.527864 C192,236.737003 190.209139,238.527864 188,238.527864 C187.37902,238.527864 186.766567,238.383284 186.211146,238.105573 L4.42229124,147.211146 C1.71201901,145.85601 -1.03942598e-14,143.085905 0,140.055728 L3.55271368e-15,7.47213595 C3.28217218e-15,5.26299696 1.790861,3.47213595 4,3.47213595 C4.62098038,3.47213595 5.23343264,3.61671632 5.78885438,3.89442719 Z" id="Path-13" stroke="#4A4A4A" stroke-width="0.5" fill="#EAEAEA" stroke-linecap="round" stroke-linejoin="round"></path>
                <path d="M0,121 L192,217 L192,101.944272 C192,98.9140954 190.287981,96.1439905 187.577709,94.7888544 L5.78885438,3.89442719 C3.81294039,2.9064702 1.41024823,3.70736758 0.422291236,5.68328157 C0.144580367,6.23870331 1.14702713e-14,6.85115557 1.15463195e-14,7.47213595 L0,121 Z" id="Path-14" stroke="#4A4A4A" stroke-width="0.5" fill="#4A4A4A" stroke-linecap="round" stroke-linejoin="round"></path>
                <g id="element/" transform="translate(8.000000, 13.000000)">
                    <g id="Path-12" stroke-width="1" fill-rule="evenodd">
                        <mask id="mask-4" fill="white">
                            <use xlink:href="#path-3"></use>
                        </mask>
                        <use id="Mask" fill="#AED6F2" xlink:href="#path-3"></use>
                        <g id="vangogh" mask="url(#mask-4)">
                            <g transform="translate(-23.000000, -29.000000)">
                                <path d="M56,154 C51.3333333,151.333333 49.3333333,149.666667 50,149 C50.6666667,148.333333 51.6458333,146.166667 52.9375,142.5 L57,138 L64,133 L69,127 L77,128.5 L84,125 L89,124 L98,125 L106,124 L108,121 L120,124 L127.5,128.5 L131,135 L147,138 L152.5,132 L161,132 L169.25,136.25 L175.5,131 L180,126 L181,122 L187,121 L196,121 L203,123 L206,190 L202,228 L116,215 L56,154 Z" id="Path-28" fill="#8BCEEA"></path>
                                <path d="M12,98 L28.25,98 L36,93 L54,106 L57,113 L58,121 L64,125 L64,154 L64,169 L21,162 C7,145.333333 0.333333333,136.333333 1,135 C1.66666667,133.666667 5.33333333,121.333333 12,98 Z" id="Path-32" fill="#8CD2E0"></path>
                                <path d="M108,180 L119,178 L125,181 L132,179.5 L139,174 L150,173 L159,174.5 L169.25,182 L181,177.5 L187,178 L195,173 L203,174 L206,177.5 L203,203 C203.666667,213.666667 204,219 204,219 C204,219 199,227 197,227 C195,227 175.5,222 173,222 C170.5,222 157,215 156,214 C155.333333,213.333333 149.333333,209.333333 138,202 L112,183 L108,180 Z" id="Path-29" fill="#D6C9FF" opacity="0.657738095"></path>
                                <path d="M11,90 L24,85 L28.25,76 L26.5,68 L29,60.5 L36,54 L37,49 L47.5,54 L55,54 L62,60.5 L64,68 L89,68 L95,73 L101.5,79 L111.5,79 L121,85 L151,81 L178,107 L178,117 C184.666667,121 188,123.666667 188,125 C188,126.333333 191.666667,130.083333 199,136.25 C207.666667,138.083333 212,137.666667 212,135 C212,131 218,116 216,113 C214,110 215,97 199,90 C183,83 120.5,47 111.5,42 C105.5,38.6666667 71,24.6666667 8,0 L11,90 Z" id="Path-31" fill="#8CD2E0"></path>
                                <polygon id="Path-18" fill="#97C865" points="82 128.5 69 133 62 136 54 128.5 46 121 46 112 38 104 27 92 23 86 23 89 27 95 38 106 43 112 43 117 38 117 33 111 25 108 21 106 21 108 29 112 33 114 38 121 43 121 46 125 50 128.5 57 133 60 139 65 139 65 142.5 57 145 51.5 152 54 154 57 147 67 145 69 139 72 136 79 133 86 133"></polygon>
                                <polygon id="Path-19" fill="#97C865" points="59 116 57 108 57 101 47 95 37 97 25 90 19 83 23 83 27 90 37 95 49 92 54 95 59 99.5 63 97 63 92 63 86 68 79 70 70 68 63 68 56 68 54 70 56 70 60 70 66 73 70 68 83 66 86 66 95 63 101 59 104 61 116"></polygon>
                                <polygon id="Path-20" fill="#97C865" points="36 56 36 65 43 75 43 83 49 94 53.5 96 46 83 44.75 72 39 65"></polygon>
                                <path d="M79,127 L93,141 L110,144 L120,152 L134,166 L137,177 L148,193 L153,201 L181,225 L200,229 L212,217 L201,219 L193,215 L184,203 L178,201 C172,199 169,198 169,198 C169,198 167,197 163,195 L151,181 L142,165 L139,160 L120,144 L110,139 L96,137 L89,131 L82,113 L82,103 L80,98 L76,89 L72,84 L63,76 L60,65 L58,60 L56,57 L54,56 L57,63 L60,73 L62,79 L68,84 L74,92 L77,100 L79,104 L80,113 L81,119 L81,123 L73,120 L69,120 L65,119 L60,113 L59,114 L55,115 L58,119 L63,121 L65,123 L62,125 L61,126 L62,129 L64,128 L69,125 L75,125 L79,127 Z" id="Path-12" fill="#65C8A9"></path>
                                <path d="M116,144 L114,131 L114,118 L116,111 L113,107 L111,102 L105,104 L100,104 L98,107 L96,106 L99,102 L92,97 L90,92 L91,91 L92,95 L97,99 L102,101 L107,100 L104,97 L101,95 L99,89 L92,85 L87,83 L83,79 L68,77 L57,73 L58,72 L65,75 L72,76 L78,77 L81,77 L80,74 L77,72 L76,69 L74,63 L75,63 L78,69 L80,72 L83,73 L84,76 L87,78 L89,82 L98,86 L102,88 L104,86 L105,87 L103,90 L104,92 L107,96 L112,99 L114,96 L113,91 L118,87 L123,85 L129,87 L132,86 L137,87 L133,87 L130,88 L123,87 L118,89 L115,92 L116,96 L122,95 L126,94 L131,95 L134,93 L141,93 L136,94 L132,96 L126,96 L119,97 L117,97 L115,100 L115,105 L118,110 L121,109 L128,103.5 L132,103.5 L137,101 L138,98 L139,97 L139,99 L138,101 L145,100 L148,100 C145.333333,101.333333 144,102 144,102 C144,102 141.666667,102.5 137,103.5 L132,105 L128,105 L124,110 L120,113 L117,117 L117,123 L119,126 L118,133 L119,145 L116,144 Z" id="Path-13" fill="#65C8A9"></path>
                                <path d="M26,106 L29,108 L25,110 L24,108 L26,106 Z M26.5,115 L29,114 L30,117.5 L29,120 L26.5,118 L26.5,115 Z M39,113 L40,116 L35,117 L34,114 L39,113 Z M48,101 L51,103 L51,105 L50,107 L46,109 L44,108 L44,103 L48,101 Z M39,87 L40,87 L42,90 L41,93 L38,92 L38,90 L39,87 Z M55,72 L53.5,72 L50,73 L46,72 L41,75 L40,72 L43,68 L47.5,68 L49,70 L55,72 Z M50,65 L44.75,65 L42,63 L39,63 L38,59 L39,57 L42,56 L44,57 L44,60.5 L46,60.5 L47.5,62 L49,63 L50,65 Z M47.5,59 L51,57 L52.75,55 L55,54 L58,55 L57,57 L56,59.75 L53.5,59 L50,60.5 L47.5,59 Z M64,63 L65,62 L68,64 L71,63 L75,66 L78,67 C80,66.6666667 81.3333333,66.3333333 82,66 C82.6666667,65.6666667 83.6666667,66 85,67 L86,69 L82,70 L80,68 L79,70 L73,67 L72,67 L69,65 L66,66 L64,63 Z M77,106 L79,106 L82,108 L80.5,110.5 L85,112 L86,115 L82,115 L80,115 L78,112 L75,109 L77,106 Z M91,96 L94,97 L93,100.5 L95,103 L93,106 L90,106 L88,104 L90,102 L89,99 L86,99 L85,98 L87,95 L91,96 Z M109,86 L114,88 L113,91 L111,90 L109,92 L106,92 L106,88 L109,86 Z M143,98 L147,98 L150,99 L151,101 L149,103 L144,102 L143,100.5 L143,98 Z M93,144 L102.5,147 L100,149 L99,151 L94,149 L91,150 C87,149.333333 84.6666667,149 84,149 C83.3333333,149 82.6666667,147.666667 82,145 L84,142.5 L85,140 L88,142.5 L93,144 Z M134,142.5 L136,142.5 L138,147 L143,148 L146,148 L146,150 L143,151 L140,150 L135,150 C132.333333,151.333333 131,152 131,152 C131,152 130.333333,151.666667 129,151 L128,149 L129,147 L130,144 L134,142.5 Z M172,163 L177,165 L175.5,167 L175.5,171 C177.833333,173.666667 179,175 179,175 C179,175 177,180 175.5,180 C174.5,180 174,181.666667 174,185 L172,183 L170,179 L170,174 L172,170 L170,165 L172,163 Z M154,142.5 L151,141.5 L149,138 L151,132 L151.5,130 L155,133 L156,135 L156,139 L154,142.5 Z M165.5,120 L167,119 L169,121 L173,122 L173,126 L175.5,128.5 L178,130 L175.5,131 L172,128.5 L169,126 L163,128.5 L163,126 L163,122 L165.5,120 Z M165.5,107 L168,110 L173,109 L175.5,113 L171,114 L165.5,115 L164.25,114 L163,110 L165.5,107 Z M130,117 L132,120 C130,121.333333 129,122 129,122 C129,122 128.166667,122 126.5,122 L123,120 L123,118 L124,116 L130,117 Z M84,74 L85,77 L86,77 L86,80 L88.5,78.5 L89,81 C92.3333333,80.3333333 94.3333333,80 95,80 C95.6666667,80 96.3333333,80.3333333 97,81 L96,83 L93.5,82 L91,83 L85,83 L84,80 L82,76 L84,74 Z M43,86 L44,83 L46,81 L49.875,82 L52,83.5 L47.5,85 L47.5,88 L44.75,88 L43,86 Z M136,89 L144,93 L142,95 L139,94 L137,92 L136,89 Z M184,112 L191,109 L197,117 L196,120 C192.666667,121.333333 190.666667,122 190,122 C189.333333,122 188.666667,122 188,122 L185,119 L185,115 L184,112 Z M37,122 L36,125 L32.4772727,125 C32.8257576,126.333333 32.8257576,127 32.4772727,127 C31.9545455,127 31,128.5 30,128.5 C29.3333333,128.5 28.8333333,127.833333 28.5,126.5 L26,126.5 L27,128.5 L23,133 L20,128 L22,124 L24,123 L27,123 L29,122 L32.4772727,123 L37,122 Z" id="Combined-Shape" fill="#FFECEC"></path>
                                <polygon id="Path-14" fill="#65C8A9" points="136 161 136 145 138 135 136 125 130 117 130 110 130 96 128 89 133 83 130 89 133 98 133 104 133 115 138 122 141 122 150 117 162 115 170 112 168 117 158 119 150 121 143 125 141 128 143 142.5 141 153 141 165 141 169 150 165 155 159 162 153 177 155 186 161 203 161 201 165 186 165 179 161 170 157 162 159 155 165 150 171 141 174"></polygon>
                                <path d="M155,162 L155,147 L155,137 L165.5,128.5 L170,125 L180,125 L189,121 L193,121 L186,125 L180,128.5 L172,128.5 L164,133 L160,139 L158,145 L158,150 L167,141.5 C170.333333,138.5 172,137 172,137 C172,137 176,135.666667 184,133 L191,130 L196,125 L193,133 L186,137 L174,139 L167,145 L160,152 L158,159 L155,162 Z" id="Path-17" fill="#65C8A9"></path>
                                <path d="M89,169 L98,166 L97,161 L102.5,157 L108,154 L115.5,159 L113,162 L111,166 L110,179 L102.25,184 C96.5833333,180 93.5,177.666667 93,177 C92.5,176.333333 91.1666667,173.666667 89,169 Z" id="Path-30" fill="#6EBADA"></path>
                                <polygon id="Mask" fill="#4A4A4A" opacity="0.1" points="23 29 199 117 199 221 23 133"></polygon>
                            </g>
                        </g>
                        <g id="Dock" mask="url(#mask-4)">
                            <g transform="translate(56.000000, 124.000000)">
                                <path d="M0,8 L2.22044605e-16,1.61803399 C1.5440923e-16,1.06574924 0.44771525,0.618033989 1,0.618033989 C1.1552451,0.618033989 1.30835816,0.654179081 1.4472136,0.723606798 L56.8944272,28.4472136 C57.5719952,28.7859976 58,29.4785239 58,30.236068 L58,37 L0,8 Z" id="Path-136" fill-opacity="0.5" fill="#FFFFFF"></path>
                                <g id="Path-38" stroke-width="1" fill="none" transform="translate(1.000000, 2.000000)">
                                    <mask id="mask-6" fill="white">
                                        <use xlink:href="#path-5"></use>
                                    </mask>
                                    <use id="Path-16" fill="#FFFFFF" xlink:href="#path-5"></use>
                                    <polygon id="Path-39" fill="#19BEFA" mask="url(#mask-6)" points="2 1 1.5 3 2 3.5 2 5 -1.5 5 -2 -1 1 -2"></polygon>
                                </g>
                                <g id="Path-38-Copy-2" stroke-width="1" fill="none" transform="translate(11.000000, 7.000000)">
                                    <mask id="mask-8" fill="white">
                                        <use xlink:href="#path-7"></use>
                                    </mask>
                                    <use id="Path-16" fill="#19BEFA" xlink:href="#path-7"></use>
                                    <path d="M1,3.5 L2,3" id="Path-41" stroke="#FFFFFF" stroke-width="0.5" stroke-linecap="round" stroke-linejoin="round" mask="url(#mask-8)"></path>
                                    <path d="M2,3 L3,2.5" id="Path-42" stroke="#FF6060" stroke-width="0.5" stroke-linecap="round" stroke-linejoin="round" mask="url(#mask-8)"></path>
                                </g>
                                <g id="Path-38-Copy" stroke-width="1" fill="none" transform="translate(6.000000, 4.500000)">
                                    <mask id="mask-10" fill="white">
                                        <use xlink:href="#path-9"></use>
                                    </mask>
                                    <path stroke="#FFA2E5" stroke-width="0.5" d="M0.25,2 C0.25,3.13103911 0.889025643,4.16500432 1.90065778,4.67082039 L2.32294902,4.88196601 C2.81004539,5.1255142 3.40234984,4.92807938 3.64589803,4.44098301 C3.71435848,4.30406211 3.75,4.15308222 3.75,4 C3.75,2.86896089 3.11097436,1.83499568 2.09934222,1.32917961 L1.67705098,1.11803399 C1.18995461,0.8744858 0.597650155,1.07192062 0.354101966,1.55901699 C0.285641518,1.69593789 0.25,1.84691778 0.25,2 Z"></path>
                                    <polyline id="Path-40" stroke="#FFA2E5" stroke-width="0.5" stroke-linecap="round" stroke-linejoin="round" mask="url(#mask-10)" points="1.5 3.5 1.5 2 2.5 2.5 2.5 4"></polyline>
                                </g>
                                <g id="Path-38-Copy-3" stroke-width="1" fill="none" transform="translate(16.000000, 9.500000)">
                                    <mask id="mask-12" fill="white">
                                        <use xlink:href="#path-11"></use>
                                    </mask>
                                    <use id="Path-16" fill="#FF8E8E" xlink:href="#path-11"></use>
                                    <polygon id="Path-45" fill="#879CFF" mask="url(#mask-12)" points="2.5 4 1.5 3.5 0.5 0 -1.5 1.5 -1.5 5.5 2.5 6.5"></polygon>
                                    <polygon id="Path-44" fill="#FFCE41" mask="url(#mask-12)" points="3 3 1 5.5 3.5 7 5.5 3.5"></polygon>
                                    <path d="M1.25,2.5 C1.25,3.01817305 1.54276252,3.49187276 2.00623059,3.7236068 L2.21737621,3.82917961 C2.26847973,3.85473137 2.32483054,3.86803399 2.38196601,3.86803399 C2.58522557,3.86803399 2.75,3.70325956 2.75,3.5 C2.75,2.98182695 2.45723748,2.50812724 1.99376941,2.2763932 L1.78262379,2.17082039 C1.73152027,2.14526863 1.67516946,2.13196601 1.61803399,2.13196601 C1.41477443,2.13196601 1.25,2.29674044 1.25,2.5 Z" id="Path-43" stroke="#FFFFFF" stroke-width="0.5" fill="#19BEFA" mask="url(#mask-12)"></path>
                                </g>
                                <g id="Path-38-Copy-5" stroke-width="1" fill="none" transform="translate(21.000000, 12.000000)">
                                    <mask id="mask-14" fill="white">
                                        <use xlink:href="#path-13"></use>
                                    </mask>
                                    <use id="Path-16" fill="#FFBC4B" xlink:href="#path-13"></use>
                                    <polygon id="Path-46" fill="#FFD28A" mask="url(#mask-14)" points="1 0.5 1 2 2 5 3 3 3 1.5"></polygon>
                                    <polygon id="Path-47" fill="#FFFFFF" opacity="0.357491629" mask="url(#mask-14)" points="1 2 2 1 3 3"></polygon>
                                </g>
                                <g id="Path-38-Copy-4" stroke-width="1" fill="none" transform="translate(26.000000, 14.500000)">
                                    <path d="M0,0.809016994 L2.22044605e-16,3.38196601 C4.36639388e-16,3.76073807 0.214002376,4.10700119 0.552786405,4.2763932 L3.2763932,5.6381966 C3.52338245,5.76169123 3.82371897,5.66157905 3.9472136,5.4145898 C3.98192745,5.34516209 4,5.26860555 4,5.19098301 L4,2.61803399 C4,2.23926193 3.78599762,1.89299881 3.4472136,1.7236068 L0.723606798,0.361803399 C0.476617549,0.238308775 0.176281029,0.338420948 0.0527864045,0.585410197 C0.0180725459,0.654837914 2.12538584e-16,0.731394447 2.22044605e-16,0.809016994 Z" id="Path-16" fill="#646464"></path>
                                    <path d="M1,1.5 L3,2.5" id="Path-49" stroke="#879CFF" stroke-width="0.5" opacity="0.462751116" stroke-linecap="round" stroke-linejoin="round"></path>
                                    <path d="M1,2.5 L3,3.5" id="Path-50" stroke="#FF8E8E" stroke-width="0.5" opacity="0.354608445" stroke-linecap="round" stroke-linejoin="round"></path>
                                    <path d="M2.78262379,4.17082039 C2.73152027,4.14526863 2.67516946,4.13196601 2.61803399,4.13196601 C2.41477443,4.13196601 2.25,4.29674044 2.25,4.5 C2.25,5.01817305 2.54276252,5.49187276 3.00623059,5.7236068 L3.21737621,5.82917961 C3.26847973,5.85473137 3.32483054,5.86803399 3.38196601,5.86803399 C3.58522557,5.86803399 3.75,5.70325956 3.75,5.5 C3.75,4.98182695 3.45723748,4.50812724 2.99376941,4.2763932 L2.78262379,4.17082039 Z" id="Path-48" stroke="#FFFFFF" stroke-width="0.5" fill="#B9B9B9"></path>
                                </g>
                                <g id="Path-38-Copy-7" stroke-width="1" fill="none" transform="translate(31.000000, 17.000000)">
                                    <mask id="mask-16" fill="white">
                                        <use xlink:href="#path-15"></use>
                                    </mask>
                                    <use id="Path-16" fill="#A1D992" xlink:href="#path-15"></use>
                                    <path d="M1.89442719,1.9472136 L2.10557281,2.0527864 C2.65373688,2.32686844 3,2.88713394 3,3.5 L3,3.5 C3,3.84133075 2.72329676,4.11803399 2.38196601,4.11803399 C2.28601927,4.11803399 2.19139019,4.09569509 2.10557281,4.0527864 L1.89442719,3.9472136 C1.34626312,3.67313156 1,3.11286606 1,2.5 L1,2.5 C1,2.15866925 1.27670324,1.88196601 1.61803399,1.88196601 C1.71398073,1.88196601 1.80860981,1.90430491 1.89442719,1.9472136 Z" id="Path-51" stroke="#FFFFFF" stroke-width="0.5" opacity="0.616117932" stroke-linecap="round" stroke-linejoin="round" mask="url(#mask-16)"></path>
                                </g>
                                <g id="Path-38-Copy-6" stroke-width="1" fill="none" transform="translate(36.000000, 19.500000)">
                                    <mask id="mask-18" fill="white">
                                        <use xlink:href="#path-17"></use>
                                    </mask>
                                    <path stroke="#00D7FF" stroke-width="0.5" d="M0.25,0.404508497 L0.25,3.8454915 L3.75,5.5954915 L3.75,2.1545085 L0.25,0.404508497 Z"></path>
                                    <polyline id="Path-52" stroke="#00D7FF" stroke-width="0.5" stroke-linecap="round" stroke-linejoin="round" mask="url(#mask-18)" points="1.27246094 2 2 2.5 2 3 1.27246094 3 1.27246094 2 1.27246094 3.5"></polyline>
                                    <polyline id="Path-53" stroke="#00D7FF" stroke-width="0.5" stroke-linecap="round" stroke-linejoin="round" mask="url(#mask-18)" points="2.93286133 2.992749 2.33435059 3.29999998 2.93286133 3.87421873 2.33435059 4.03791502"></polyline>
                                </g>
                                <g id="Path-38-Copy-8" stroke-width="1" fill="none" transform="translate(41.000000, 22.000000)">
                                    <mask id="mask-20" fill="white">
                                        <use xlink:href="#path-19"></use>
                                    </mask>
                                    <use id="Path-16" fill="#C466CF" xlink:href="#path-19"></use>
                                    <path d="M1.19921875,2.06481971 L1.19921875,1.65734863 L1.38749022,1.94641402 C1.54241923,1.88443196 1.72184661,1.88515391 1.88407256,1.96319148 L2.09884376,2.06650556 C2.49400984,2.25659723 2.78595948,2.59706608 2.91942737,3 L3.3013916,3 L2.97131621,3.19899601 C2.9902054,3.29707634 3,3.39778217 3,3.5 C3,3.59594675 2.9776611,3.69057582 2.93475242,3.7763932 C2.81423711,4.01742381 2.5574735,4.14529259 2.30447919,4.11332701 L2.82519531,6 L0.889038086,4.73742676 L1.54556221,3.71667869 C1.20378983,3.41938146 1,2.98464826 1,2.51895751 C1,2.42639642 1.02083475,2.33502244 1.06095947,2.25161043 C1.09591566,2.17894286 1.1432514,2.11624153 1.19921875,2.06481971 Z" id="Combined-Shape" fill="#FFFFFF" mask="url(#mask-20)"></path>
                                </g>
                                <g id="Path-38-Copy-10" stroke-width="1" fill="none" transform="translate(53.000000, 28.000000)">
                                    <mask id="mask-22" fill="white">
                                        <use xlink:href="#path-21"></use>
                                    </mask>
                                    <g id="Path-16"></g>
                                    <g id="Path-62" mask="url(#mask-22)">
                                        <g transform="translate(1.000000, 1.000000)">
                                            <mask id="mask-24" fill="white">
                                                <use xlink:href="#path-23"></use>
                                            </mask>
                                            <use id="Mask" stroke="#FFFFFF" stroke-width="0.5" fill="#E6E6E6" fill-rule="evenodd" stroke-linecap="round" stroke-linejoin="round" xlink:href="#path-23"></use>
                                            <polygon id="Path-62" stroke="#FFFFFF" stroke-width="0.5" fill="#FFFFFF" fill-rule="evenodd" stroke-linecap="round" stroke-linejoin="round" mask="url(#mask-24)" points="-2 2 4 5 4 6 -2 3"></polygon>
                                        </g>
                                    </g>
                                </g>
                                <g id="Path-38-Copy-9" stroke-width="1" fill="none" transform="translate(46.000000, 24.500000)">
                                    <mask id="mask-26" fill="white">
                                        <use xlink:href="#path-25"></use>
                                    </mask>
                                    <g id="Path-16"></g>
                                    <polygon id="Path-57" fill="#A1D992" mask="url(#mask-26)" points="2 1 0 1 2 2.5 4 2.5"></polygon>
                                    <polygon id="Path-58" fill="#B17754" mask="url(#mask-26)" points="2 2.5 2 5 4 5 4 2.5"></polygon>
                                    <polygon id="Path-59" fill="#E1A987" mask="url(#mask-26)" points="2 2.5 0 1 0 3.5 2 5"></polygon>
                                    <polygon id="Path-60" fill="#A1D992" opacity="0.535295759" mask="url(#mask-26)" points="-7.10542736e-15 1 1.26217745e-29 1.5 2 3 4 3 4 2.5 2 2.5"></polygon>
                                </g>
                            </g>
                        </g>
                        <g id="Atom" mask="url(#mask-4)">
                            <g transform="translate(40.000000, 52.000000)">
                                <g id="Path-118">
                                    <path d="M0,50.763932 L0,2 L56,30 L56,78.381966 C56,78.9342508 55.5522847,79.381966 55,79.381966 C54.8447549,79.381966 54.6916418,79.3458209 54.5527864,79.2763932 L1.10557281,52.5527864 C0.428004752,52.2140024 2.73050557e-15,51.5214761 5.32907052e-15,50.763932 Z" id="Path-117" fill="#646B7B"></path>
                                    <path d="M1.70530257e-13,2 L1.32782674e-13,1.61803399 C7.80212337e-14,1.06574924 0.44771525,0.618033989 1,0.618033989 C1.1552451,0.618033989 1.30835816,0.654179081 1.4472136,0.723606798 L54.8944272,27.4472136 C55.5719952,27.7859976 56,28.4785239 56,29.236068 L56,30 L1.70530257e-13,2 Z" id="Path-117-Copy-3" fill="#F6F6F6"></path>
                                    <path d="M-6.61156583e-14,50.763932 L-1.42108547e-13,50 L56,78 L56,78.381966 C56,78.9342508 55.5522847,79.381966 55,79.381966 C54.8447549,79.381966 54.6916418,79.3458209 54.5527864,79.2763932 L1.10557281,52.5527864 C0.428004752,52.2140024 8.39274741e-15,51.5214761 -6.70574707e-14,50.763932 Z" id="Path-117-Copy-2" fill="#5C616E"></path>
                                    <polygon id="Path-117-Copy-4" fill="#5C616E" points="7.54951657e-14 4 -2.22044605e-14 2 10 7 10 9"></polygon>
                                    <polygon id="Path-117-Copy-5" fill="#5C616E" points="18 13 18 11 56 30 56 32"></polygon>
                                    <path d="M16,11 L16.5,11.25" id="Path-120" stroke="#87D3FF" stroke-width="0.5" stroke-linecap="round" stroke-linejoin="round"></path>
                                </g>
                                <g id="codes" transform="translate(2.000000, 5.000000)">
                                    <polygon id="Path-119-Copy-22" fill="#FFFFFF" opacity="0.14" points="-2.84217094e-14 38 -2.84217094e-14 40 54 67 54 65"></polygon>
                                    <polygon id="Path-119" fill="#ABAFB8" points="4 4 4 6 12 10 12 8"></polygon>
                                    <polygon id="Path-119-Copy" fill="#E99CA3" points="4 8 4 10 8 12 8 10"></polygon>
                                    <polygon id="Path-119-Copy-2" fill="#E99CA3" points="4 16 4 18 9 20.5 9 18.5"></polygon>
                                    <polygon id="Path-119-Copy-3" fill="#E99CA3" points="14 21 14 23 19 25.5 19 23.5"></polygon>
                                    <polygon id="Path-119-Copy-24" fill="#C8B383" points="26 51 26 53 31 55.5 31 53.5"></polygon>
                                    <polygon id="Path-119-Copy-26" fill="#85C292" points="40 58 40 60 45 62.5 45 60.5"></polygon>
                                    <polygon id="Path-119-Copy-4" fill="#EBA1E3" points="4 20 4 22 11 25.5 11 23.5"></polygon>
                                    <polygon id="Path-119-Copy-5" fill="#ABAFB8" points="6 25 6 27 13 30.5 13 28.5"></polygon>
                                    <polygon id="Path-119-Copy-19" fill="#ABAFB8" points="6 41 6 43 13 46.5 13 44.5"></polygon>
                                    <polygon id="Path-119-Copy-23" fill="#ABAFB8" points="18 47 18 49 25 52.5 25 50.5"></polygon>
                                    <polygon id="Path-119-Copy-25" fill="#ABAFB8" points="32 54 32 56 39 59.5 39 57.5"></polygon>
                                    <polygon id="Path-119-Copy-13" fill="#ABAFB8" points="30 41 30 43 37 46.5 37 44.5"></polygon>
                                    <polygon id="Path-119-Copy-14" fill="#ABAFB8" points="38 45 38 47 45 50.5 45 48.5"></polygon>
                                    <polygon id="Path-119-Copy-12" fill="#ABAFB8" points="6 29 6 31 29 42.5 29 40.5"></polygon>
                                    <polygon id="Path-119-Copy-11" fill="#ABAFB8" points="34 39 34 41 50 49 50 47"></polygon>
                                    <polygon id="Path-119-Copy-6" fill="#ABAFB8" points="14 29 14 31 33 40.5 33 38.5"></polygon>
                                    <polygon id="Path-119-Copy-7" fill="#E99CA3" points="4 12 4 14 7 15.5 7 13.5"></polygon>
                                    <polygon id="Path-119-Copy-17" fill="#E99CA3" points="4 36 4 38 7 39.5 7 37.5"></polygon>
                                    <polygon id="Path-119-Copy-8" fill="#C8B383" points="8 14 8 16 11 17.5 11 15.5"></polygon>
                                    <polygon id="Path-119-Copy-21" fill="#C8B383" points="14 45 14 47 17 48.5 17 46.5"></polygon>
                                    <polygon id="Path-119-Copy-10" fill="#ABAFB8" points="10 19 10 21 13 22.5 13 20.5"></polygon>
                                    <polygon id="Path-119-Copy-15" fill="#ABAFB8" points="12 24 12 26 13 26.5 13 24.5"></polygon>
                                    <polygon id="Path-119-Copy-16" fill="#ABAFB8" points="4 32 4 34 5 34.5 5 32.5"></polygon>
                                    <polygon id="Path-119-Copy-18" fill="#ABAFB8" points="8 38 8 40 9 40.5 9 38.5"></polygon>
                                    <polygon id="Path-119-Copy-20" fill="#ABAFB8" points="4 44 4 46 5 46.5 5 44.5"></polygon>
                                    <polygon id="Path-119-Copy-9" fill="#85C292" points="12 16 12 18 15 19.5 15 17.5"></polygon>
                                    <polygon id="Path" fill="#FFFFFF" opacity="0.2" points="2 1 0 0 0 44 2 45"></polygon>
                                </g>
                            </g>
                        </g>
                        <g id="Chrome" mask="url(#mask-4)">
                            <g transform="translate(104.000000, 60.000000)">
                                <g id="Path-2">
                                    <mask id="mask-28" fill="white">
                                        <use xlink:href="#path-27"></use>
                                    </mask>
                                    <use id="Mask" fill="#FFFFFF" xlink:href="#path-27"></use>
                                    <polygon fill="#E7EAED" mask="url(#mask-28)" points="0 0 0 4 64 36 64 32"></polygon>
                                    <polygon id="Path-3" fill="#8BB8D9" mask="url(#mask-28)" points="0 8 0 12 64 44 64 40"></polygon>
                                    <polygon id="Path-4" fill="#F1F1F1" mask="url(#mask-28)" points="0 12 0 84 12 90 12 18"></polygon>
                                    <path d="M8,10 L8,10 C8,10.6128661 8.34626312,11.1731316 8.89442719,11.4472136 L29.1055728,21.5527864 C29.4108683,21.7054342 29.7821047,21.5816887 29.9347524,21.2763932 C29.9776611,21.1905758 30,21.0959467 30,21 L30,21 C30,20.3871339 29.6537369,19.8268684 29.1055728,19.5527864 L8.89442719,9.4472136 C8.58913169,9.29456584 8.21789533,9.4183113 8.06524758,9.7236068 C8.0223389,9.80942418 8,9.90405325 8,10 Z" id="Path-5" fill="#D8D8D8" mask="url(#mask-28)"></path>
                                    <g id="Group-2" mask="url(#mask-28)">
                                        <g transform="translate(16.000000, 24.000000)">
                                            <polygon id="Path-6" fill="#FFB0A5" points="1.66533454e-16 0 0 8 8 12 8 4"></polygon>
                                            <polygon id="Path-9" fill="#909DFF" opacity="0.5" points="0 2 6 11 0 8"></polygon>
                                            <polygon id="Path-10" fill="#90FFD6" opacity="0.709612165" points="2 1 8 10 8 4"></polygon>
                                            <polygon id="Path-7" fill="#FFE190" opacity="0.5" points="-4.26325641e-14 6 6 3 -4.26325641e-14 8.43769499e-15"></polygon>
                                            <polygon id="Path-8" fill="#FF90AD" opacity="0.5" points="4 10 8 5 8 12"></polygon>
                                        </g>
                                    </g>
                                    <polygon id="Path-11" fill="#E1E1E1" mask="url(#mask-28)" points="2 15 8 18 8 20 2 17"></polygon>
                                    <polygon id="Path-11-Copy" fill="#D8D8D8" mask="url(#mask-28)" points="2 19 10 23 10 25 2 21"></polygon>
                                    <polygon id="Path-11-Copy-2" fill="#D8D8D8" mask="url(#mask-28)" points="2 23 10 27 10 29 2 25"></polygon>
                                    <polygon id="Path-11-Copy-3" fill="#D8D8D8" mask="url(#mask-28)" points="2 27 10 31 10 33 2 29"></polygon>
                                    <polygon id="Path-11-Copy-4" fill="#E1E1E1" mask="url(#mask-28)" points="2 31 8 34 8 36 2 33"></polygon>
                                    <polygon id="Path-11-Copy-5" fill="#D8D8D8" mask="url(#mask-28)" points="2 35 10 39 10 41 2 37"></polygon>
                                    <polygon id="Path-11-Copy-6" fill="#D8D8D8" mask="url(#mask-28)" points="2 39 10 43 10 45 2 41"></polygon>
                                    <polygon id="Path-11-Copy-7" fill="#D8D8D8" mask="url(#mask-28)" points="2 43 10 47 10 49 2 45"></polygon>
                                    <polygon id="Path-11-Copy-8" fill="#E1E1E1" mask="url(#mask-28)" points="-5.06261699e-14 80 12 86 12 90 -5.06261699e-14 84"></polygon>
                                </g>
                                <g id="contents" transform="translate(16.000000, 36.000000)">
                                    <polygon id="Path-122" fill="#ABABAB" points="0 0 0 4 16 12 16 8"></polygon>
                                    <polygon id="Path-122-Copy" fill="#D3D3D3" points="0 6 0 8 40 28 40 26"></polygon>
                                    <polygon id="Path-122-Copy-9" fill="#D3D3D3" points="0 42 0 44 40 64 40 62"></polygon>
                                    <polygon id="Path-122-Copy-5" fill="#D3D3D3" points="0 26 0 28 38 47 38 45"></polygon>
                                    <polygon id="Path-122-Copy-2" fill="#D3D3D3" points="0 10 0 12 32 28 32 26"></polygon>
                                    <polygon id="Path-122-Copy-6" fill="#D3D3D3" points="0 30 0 32 36 50 36 48"></polygon>
                                    <polygon id="Path-122-Copy-7" fill="#D3D3D3" points="0 34 0 36 26 49 26 47"></polygon>
                                    <polygon id="Path-122-Copy-10" fill="#D3D3D3" points="0 46 0 48 22 59 22 57"></polygon>
                                    <polygon id="Path-122-Copy-3" fill="#D3D3D3" points="12 22 12 24 32 34 32 32"></polygon>
                                    <polygon id="Path-122-Copy-11" fill="#D3D3D3" points="12 58 12 60 32 70 32 68"></polygon>
                                    <polygon id="Path-122-Copy-4" fill="#D3D3D3" points="16 28 16 30 28 36 28 34"></polygon>
                                    <polygon id="Path-122-Copy-8" fill="#8BB8D9" points="4.54747351e-13 38 4.54747351e-13 40 12 46 12 44"></polygon>
                                </g>
                            </g>
                        </g>
                        <g id="files" mask="url(#mask-4)">
                            <g transform="translate(8.000000, 16.000000)">
                                <g id="Group">
                                    <polygon id="Path-61" fill="#6DCDF9" points="0 0 3 1.5 4 3 8 5 8 10 0 6"></polygon>
                                    <polygon id="Path-63" fill="#92DEFF" points="0 0 7.10542736e-15 2 8 6 8 5 4 3 3 1.5"></polygon>
                                    <polygon id="Path-64" fill="#FFFFFF" points="2 8 6 10 6 11 2 9"></polygon>
                                    <path d="M0.447213595,7.2236068 L0.552786405,7.2763932 C0.826868441,7.41343422 1,7.69356697 1,8 L1,8 C1,8.17066537 0.861648379,8.30901699 0.690983006,8.30901699 C0.643009633,8.30901699 0.595695094,8.29784755 0.552786405,8.2763932 L0.447213595,8.2236068 C0.173131559,8.08656578 3.75272232e-17,7.80643303 0,7.5 L0,7.5 C-2.09004803e-17,7.32933463 0.138351621,7.19098301 0.309016994,7.19098301 C0.356990367,7.19098301 0.404304906,7.20215245 0.447213595,7.2236068 Z" id="Path-67" fill="#5BFFFC"></path>
                                </g>
                                <g id="Group-Copy-3" transform="translate(0.000000, 12.000000)">
                                    <polygon id="Path-61" fill="#6DCDF9" points="0 0 3 1.5 4 3 8 5 8 10 0 6"></polygon>
                                    <polygon id="Path-63" fill="#92DEFF" points="0 0 7.10542736e-15 2 8 6 8 5 4 3 3 1.5"></polygon>
                                    <polygon id="Path-64" fill="#FFFFFF" points="2 8 6 10 6 11 2 9"></polygon>
                                    <path d="M0.447213595,7.2236068 L0.552786405,7.2763932 C0.826868441,7.41343422 1,7.69356697 1,8 L1,8 C1,8.17066537 0.861648379,8.30901699 0.690983006,8.30901699 C0.643009633,8.30901699 0.595695094,8.29784755 0.552786405,8.2763932 L0.447213595,8.2236068 C0.173131559,8.08656578 3.75272232e-17,7.80643303 0,7.5 L0,7.5 C-2.09004803e-17,7.32933463 0.138351621,7.19098301 0.309016994,7.19098301 C0.356990367,7.19098301 0.404304906,7.20215245 0.447213595,7.2236068 Z" id="Path-65" fill="#FF7F7F"></path>
                                </g>
                                <g id="Group-Copy-4" transform="translate(0.000000, 24.000000)">
                                    <polygon id="Path-61" fill="#6DCDF9" points="0 0 3 1.5 4 3 8 5 8 10 0 6"></polygon>
                                    <polygon id="Path-63" fill="#92DEFF" points="0 0 7.10542736e-15 2 8 6 8 5 4 3 3 1.5"></polygon>
                                    <polygon id="Path-64" fill="#FFFFFF" points="0 7 4 9 4 10 0 8"></polygon>
                                </g>
                                <g id="Group-Copy-5" transform="translate(0.000000, 36.000000)">
                                    <polygon id="Path-61" fill="#6DCDF9" points="0 0 3 1.5 4 3 8 5 8 10 0 6"></polygon>
                                    <polygon id="Path-63" fill="#92DEFF" points="0 0 7.10542736e-15 2 8 6 8 5 4 3 3 1.5"></polygon>
                                    <polygon id="Path-64" fill="#FFFFFF" points="0 7 6 10 6 11 0 8"></polygon>
                                </g>
                                <g id="Group-Copy" transform="translate(12.000000, 6.000000)">
                                    <polygon id="Path-61" fill="#6DCDF9" points="0 0 3 1.5 4 3 8 5 8 10 0 6"></polygon>
                                    <polygon id="Path-63" fill="#92DEFF" points="0 0 7.10542736e-15 2 8 6 8 5 4 3 3 1.5"></polygon>
                                    <polygon id="Path-64" fill="#FFFFFF" points="2 8 8 11 8 12 2 9"></polygon>
                                    <path d="M0.447213595,7.2236068 L0.552786405,7.2763932 C0.826868441,7.41343422 1,7.69356697 1,8 L1,8 C1,8.17066537 0.861648379,8.30901699 0.690983006,8.30901699 C0.643009633,8.30901699 0.595695094,8.29784755 0.552786405,8.2763932 L0.447213595,8.2236068 C0.173131559,8.08656578 3.75272232e-17,7.80643303 0,7.5 L0,7.5 C-2.09004803e-17,7.32933463 0.138351621,7.19098301 0.309016994,7.19098301 C0.356990367,7.19098301 0.404304906,7.20215245 0.447213595,7.2236068 Z" id="Path-66" fill="#9568FF"></path>
                                </g>
                                <g id="Group-Copy-6" transform="translate(12.000000, 18.000000)">
                                    <polygon id="Path-61" fill="#6DCDF9" points="0 0 3 1.5 4 3 8 5 8 10 0 6"></polygon>
                                    <polygon id="Path-63" fill="#92DEFF" points="0 0 7.10542736e-15 2 8 6 8 5 4 3 3 1.5"></polygon>
                                    <polygon id="Path-64" fill="#FFFFFF" points="0 7 6 10 6 11 0 8"></polygon>
                                </g>
                                <g id="Group-Copy-2" transform="translate(24.000000, 12.000000)">
                                    <polygon id="Path-61" fill="#6DCDF9" points="0 0 3 1.5 4 3 8 5 8 10 0 6"></polygon>
                                    <polygon id="Path-63" fill="#92DEFF" points="0 0 7.10542736e-15 2 8 6 8 5 4 3 3 1.5"></polygon>
                                    <polygon id="Path-64" fill="#FFFFFF" points="0 7 6 10 6 11 0 8"></polygon>
                                </g>
                            </g>
                        </g>
                    </g>
                    <polygon id="Path-121" fill="#EDEDED" fill-rule="evenodd" points="0 0 0 4 176 92 176 88"></polygon>
                    <polygon id="Path-15" stroke="#4A4A4A" stroke-width="0.5" stroke-linecap="round" stroke-linejoin="round" points="0 0 176 88 176 192 0 104"></polygon>
                    <polygon id="Path-137" fill-opacity="0.08" fill="#4A4A4A" fill-rule="evenodd" points="107 151 108 151.5 108 155.5 107 155"></polygon>
                </g>
                <path d="M100.3372,186.843812 C100.166,187.164612 99.9633,187.437012 99.7285,187.662812 C99.4084,187.970712 99.1463,188.163212 98.9443,188.241412 C98.6312,188.379212 98.2958,188.360912 97.9365,188.187112 C97.6786,188.056112 97.3676,187.822512 97.0056,187.485212 C96.6424,187.148112 96.3086,186.902912 96.0034,186.747912 C95.6833,186.585312 95.34,186.486612 94.9728,186.452912 C94.605,186.419612 94.3088,186.349112 94.0823,186.242012 C93.7378,186.082212 93.3944,185.751412 93.0517,185.248912 C92.8329,184.941112 92.5593,184.465012 92.2315,183.820912 C91.8798,183.132312 91.5907,182.394012 91.3642,181.604712 C91.1216,180.753212 91,179.986112 91,179.303312 C91,178.521212 91.164,177.929912 91.4924,177.531412 C91.7505,177.208412 92.0938,177.024612 92.5236,176.979912 C92.9533,176.935212 93.4177,177.037012 93.9177,177.282412 C94.1914,177.421312 94.5502,177.690812 94.9961,178.088712 C95.4407,178.486512 95.7262,178.718812 95.8514,178.782312 C95.945,178.829912 96.2621,178.888912 96.7998,178.958612 C97.3082,179.028212 97.7373,179.168112 98.0889,179.377312 C99.0415,179.940412 99.7571,180.690912 100.2331,181.629912 C99.3811,181.729412 98.9597,182.260612 98.9681,183.220912 C98.9758,183.969512 99.2379,184.722312 99.753,185.475912 C99.9864,185.822812 100.2471,186.131712 100.5371,186.404312 C100.4742,186.560412 100.4078,186.706812 100.3372,186.843812 Z M97.5337,178.037512 C97.0361,178.487612 96.4343,178.588012 95.7817,178.192512 C95.7734,178.106212 95.7686,178.017412 95.7686,177.926712 C95.7686,177.270012 96.0052,176.687412 96.4254,176.326212 C96.6352,176.141812 96.902,176.035412 97.2255,176.006712 C97.5484,175.980612 97.8537,176.030512 98.141,176.158412 C98.1493,176.254112 98.1528,176.347312 98.1528,176.438112 C98.1528,177.122112 97.946,177.655712 97.5337,178.037512 Z" id="Clip-7553" fill="#4A4A4A"></path>
            </g>
        </g>
    </g>
</svg>