<?xml version="1.0" encoding="UTF-8"?>
<svg width="126px" height="64px" viewBox="0 0 126 64" version="1.1" xmlns="http://www.w3.org/2000/svg" xmlns:xlink="http://www.w3.org/1999/xlink">
    <!-- Generator: Sketch 53.2 (72643) - https://sketchapp.com -->
    <title>3-0</title>
    <desc>Created with Sketch.</desc>
    <g id="3-0" stroke="none" stroke-width="1" fill="none" fill-rule="evenodd">
        <rect fill="#FFFFFF" x="0" y="0" width="126" height="64"></rect>
        <rect id="Rectangle" fill="#ABD6FF" x="-5" y="-4" width="139" height="77"></rect>
        <g id="图形/Magic-Board" transform="translate(1.000000, 1.000000)" stroke-linecap="round" stroke-linejoin="round">
            <g id="Group" stroke="#4A4A4A">
                <polygon id="Path-23" stroke-width="0.5" fill="#4A4A4A" opacity="0.1" points="84 62 124 42 40 0 0 20"></polygon>
                <polygon id="Path-22" stroke-width="4" points="8 18 8 20 84 58 116 42 116 40 40 2"></polygon>
                <polygon id="Stroke-8324" stroke-width="0.5" fill="#B2B2B2" points="8 18 8 20 84 58 84 56"></polygon>
                <polygon id="Stroke-8329" stroke-width="0.5" fill="#959595" points="84 58 116 42 116 40 84 56"></polygon>
                <polygon id="Path-12" stroke-width="0.5" fill="#D8D8D8" points="8 18 40 2 116 40 84 56"></polygon>
            </g>
            <path d="M40,4 L46,7 L42,9 L36,6 L40,4 Z M48,8 L52,10 L48,12 L44,10 L48,8 Z M54,11 L58,13 L54,15 L50,13 L54,11 Z M60,14 L64,16 L60,18 L56,16 L60,14 Z M66,17 L70,19 L66,21 L62,19 L66,17 Z M72,20 L76,22 L72,24 L68,22 L72,20 Z M78,23 L82,25 L78,27 L74,25 L78,23 Z M84,26 L88,28 L84,30 L80,28 L84,26 Z M90,29 L94,31 L90,33 L86,31 L90,29 Z M96,32 L100,34 L96,36 L92,34 L96,32 Z M102,35 L106,37 L102,39 L98,37 L102,35 Z M108,38 L112,40 L108,42 L104,40 L108,38 Z M34,7 L38,9 L34,11 L30,9 L34,7 Z M40,10 L44,12 L40,14 L36,12 L40,10 Z M46,13 L50,15 L46,17 L42,15 L46,13 Z M52,16 L56,18 L52,20 L48,18 L52,16 Z M58,19 L62,21 L58,23 L54,21 L58,19 Z M64,22 L68,24 L64,26 L60,24 L64,22 Z M70,25 L74,27 L70,29 L66,27 L70,25 Z M76,28 L80,30 L76,32 L72,30 L76,28 Z M82,31 L86,33 L82,35 L78,33 L82,31 Z M88,34 L92,36 L88,38 L84,36 L88,34 Z M94,37 L98,39 L94,41 L90,39 L94,37 Z M36,14 L40,16 L36,18 L32,16 L36,14 Z M32,18 L36,20 L32,22 L28,20 L32,18 Z M42,17 L46,19 L42,21 L38,19 L42,17 Z M38,21 L42,23 L38,25 L34,23 L38,21 Z M48,20 L52,22 L48,24 L44,22 L48,20 Z M44,24 L48,26 L44,28 L40,26 L44,24 Z M54,23 L58,25 L54,27 L50,25 L54,23 Z M50,27 L54,29 L50,31 L46,29 L50,27 Z M60,26 L64,28 L60,30 L56,28 L60,26 Z M56,30 L60,32 L56,34 L52,32 L56,30 Z M66,29 L70,31 L66,33 L62,31 L66,29 Z M62,33 L66,35 L62,37 L58,35 L62,33 Z M72,32 L76,34 L72,36 L68,34 L72,32 Z M68,36 L72,38 L68,40 L64,38 L68,36 Z M78,35 L82,37 L78,39 L74,37 L78,35 Z M74,39 L78,41 L74,43 L70,41 L74,39 Z M84,38 L88,40 L84,42 L80,40 L84,38 Z M80,42 L84,44 L80,46 L76,44 L80,42 Z M90,41 L94,43 L90,45 L86,43 L90,41 Z M86,45 L94,49 L90,51 L82,47 L86,45 Z M96,44 L100,46 L96,48 L92,46 L96,44 Z M100,40 L106,43 L102,45 L96,42 L100,40 Z M28,10 L34,13 L30,15 L24,12 L28,10 Z M22,13 L30,17 L26,19 L18,15 L22,13 Z M16,16 L20,18 L16,20 L12,18 L16,16 Z M22,19 L26,21 L22,23 L18,21 L22,19 Z M84,50 L88,52 L84,54 L80,52 L84,50 Z M78,47 L82,49 L78,51 L74,49 L78,47 Z M72,44 L76,46 L72,48 L68,46 L72,44 Z M64,40 L70,43 L66,45 L60,42 L64,40 Z M28,22 L62,39 L58,41 L24,24 L28,22 Z" id="Stroke-8334" stroke="#4A4A4A" opacity="0.2"></path>
            <path d="M40,3 L46,6 L42,8 L36,5 L40,3 Z M48,7 L52,9 L48,11 L44,9 L48,7 Z M54,10 L58,12 L54,14 L50,12 L54,10 Z M60,13 L64,15 L60,17 L56,15 L60,13 Z M66,16 L70,18 L66,20 L62,18 L66,16 Z M72,19 L76,21 L72,23 L68,21 L72,19 Z M78,22 L82,24 L78,26 L74,24 L78,22 Z M84,25 L88,27 L84,29 L80,27 L84,25 Z M90,28 L94,30 L90,32 L86,30 L90,28 Z M96,31 L100,33 L96,35 L92,33 L96,31 Z M102,34 L106,36 L102,38 L98,36 L102,34 Z M108,37 L112,39 L108,41 L104,39 L108,37 Z M34,6 L38,8 L34,10 L30,8 L34,6 Z M40,9 L44,11 L40,13 L36,11 L40,9 Z M46,12 L50,14 L46,16 L42,14 L46,12 Z M52,15 L56,17 L52,19 L48,17 L52,15 Z M58,18 L62,20 L58,22 L54,20 L58,18 Z M64,21 L68,23 L64,25 L60,23 L64,21 Z M70,24 L74,26 L70,28 L66,26 L70,24 Z M76,27 L80,29 L76,31 L72,29 L76,27 Z M82,30 L86,32 L82,34 L78,32 L82,30 Z M88,33 L92,35 L88,37 L84,35 L88,33 Z M94,36 L98,38 L94,40 L90,38 L94,36 Z M36,13 L40,15 L36,17 L32,15 L36,13 Z M32,17 L36,19 L32,21 L28,19 L32,17 Z M42,16 L46,18 L42,20 L38,18 L42,16 Z M38,20 L42,22 L38,24 L34,22 L38,20 Z M48,19 L52,21 L48,23 L44,21 L48,19 Z M44,23 L48,25 L44,27 L40,25 L44,23 Z M54,22 L58,24 L54,26 L50,24 L54,22 Z M50,26 L54,28 L50,30 L46,28 L50,26 Z M60,25 L64,27 L60,29 L56,27 L60,25 Z M56,29 L60,31 L56,33 L52,31 L56,29 Z M66,28 L70,30 L66,32 L62,30 L66,28 Z M62,32 L66,34 L62,36 L58,34 L62,32 Z M72,31 L76,33 L72,35 L68,33 L72,31 Z M68,35 L72,37 L68,39 L64,37 L68,35 Z M78,34 L82,36 L78,38 L74,36 L78,34 Z M74,38 L78,40 L74,42 L70,40 L74,38 Z M84,37 L88,39 L84,41 L80,39 L84,37 Z M80,41 L84,43 L80,45 L76,43 L80,41 Z M90,40 L94,42 L90,44 L86,42 L90,40 Z M86,44 L94,48 L90,50 L82,46 L86,44 Z M96,43 L100,45 L96,47 L92,45 L96,43 Z M100,39 L106,42 L102,44 L96,41 L100,39 Z M28,9 L34,12 L30,14 L24,11 L28,9 Z M22,12 L30,16 L26,18 L18,14 L22,12 Z M16,15 L20,17 L16,19 L12,17 L16,15 Z M22,18 L26,20 L22,22 L18,20 L22,18 Z M84,49 L88,51 L84,53 L80,51 L84,49 Z M78,46 L82,48 L78,50 L74,48 L78,46 Z M72,43 L76,45 L72,47 L68,45 L72,43 Z M64,39 L70,42 L66,44 L60,41 L64,39 Z M28,21 L62,38 L58,40 L24,23 L28,21 Z" id="Stroke-8340" stroke="#FFFFFF" fill="#FFFFFF"></path>
        </g>
    </g>
</svg>