<?xml version="1.0" encoding="UTF-8"?>
<svg width="129px" height="126px" viewBox="0 0 129 126" version="1.1" xmlns="http://www.w3.org/2000/svg" xmlns:xlink="http://www.w3.org/1999/xlink">
    <!-- Generator: Sketch 53.2 (72643) - https://sketchapp.com -->
    <title>4-0</title>
    <desc>Created with Sketch.</desc>
    <defs>
        <path d="M2.76393202,10.618034 L18.2111456,2.89442719 C20.1870596,1.9064702 22.5897518,2.70736758 23.5777088,4.68328157 C23.8554196,5.23870331 24,5.85115557 24,6.47213595 L24,53.966642 C24,55.8307684 22.962992,57.5401083 21.3096721,58.4012125 L5.84773768,66.4543033 C3.88842118,67.4747806 1.472821,66.7137011 0.452343663,64.7543846 C0.15516898,64.1838092 -1.13608053e-13,63.5499735 -1.13686838e-13,62.906647 L-1.12798659e-13,15.0901699 C-1.1303059e-13,13.1963097 1.07001188,11.4649941 2.76393202,10.618034 Z" id="path-1"></path>
        <path d="M1.14853666,8.3416135 L4,7 L4,7.88196601 C4,8.43425076 4.44771525,8.88196601 5,8.88196601 C5.1552451,8.88196601 5.30835816,8.84582092 5.4472136,8.7763932 L12.8944272,5.0527864 C13.5719952,4.71400238 14,4.02147614 14,3.26393202 L14,2 L16.5527864,0.723606798 C17.0467649,0.476617549 17.6474379,0.676841896 17.8944272,1.17082039 C17.9638549,1.30967583 18,1.46278889 18,1.61803399 L18,48.7637078 C18,49.5213688 17.5718645,50.2139809 16.894137,50.5527073 L1.44706849,58.2731093 C0.953049927,58.5200184 0.352409377,58.3196966 0.105500269,57.8256781 C0.0361195831,57.6868604 4.59822385e-14,57.5337999 4.59632332e-14,57.3786096 L4.01900735e-14,10.1513124 C4.00951908e-14,9.37653609 0.447480713,8.67146032 1.14853666,8.3416135 Z" id="path-3"></path>
        <path d="M1.14853666,8.3416135 L4,7 L4,7.88196601 C4,8.43425076 4.44771525,8.88196601 5,8.88196601 C5.1552451,8.88196601 5.30835816,8.84582092 5.4472136,8.7763932 L12.8944272,5.0527864 C13.5719952,4.71400238 14,4.02147614 14,3.26393202 L14,2 L16.5527864,0.723606798 C17.0467649,0.476617549 17.6474379,0.676841896 17.8944272,1.17082039 C17.9638549,1.30967583 18,1.46278889 18,1.61803399 L18,48.7637078 C18,49.5213688 17.5718645,50.2139809 16.894137,50.5527073 L1.44706849,58.2731093 C0.953049927,58.5200184 0.352409377,58.3196966 0.105500269,57.8256781 C0.0361195831,57.6868604 4.59822385e-14,57.5337999 4.59632332e-14,57.3786096 L4.01900735e-14,10.1513124 C4.00951908e-14,9.37653609 0.447480713,8.67146032 1.14853666,8.3416135 Z" id="path-5"></path>
    </defs>
    <g id="4-0" stroke="none" stroke-width="1" fill="none" fill-rule="evenodd">
        <rect fill="#FFFFFF" x="0" y="0" width="129" height="126"></rect>
        <g id="图形/手机和手机架" transform="translate(10.000000, 10.000000)">
            <path d="M86.763932,11.618034 L102.211146,3.89442719 C104.18706,2.9064702 106.589752,3.70736758 107.577709,5.68328157 C107.85542,6.23870331 108,6.85115557 108,7.47213595 L108,54.966642 C108,56.8307684 106.962992,58.5401083 105.309672,59.4012125 L89.8477377,67.4543033 C87.8884212,68.4747806 85.472821,67.7137011 84.4523437,65.7543846 C84.155169,65.1838092 84,64.5499735 84,63.906647 L84,16.0901699 C84,14.1963097 85.0700119,12.4649941 86.763932,11.618034 Z" id="Mask" stroke="#4A4A4A" stroke-width="2" stroke-linecap="round" stroke-linejoin="round"></path>
            <polygon id="Path-107" stroke="#4A4A4A" stroke-width="4" stroke-linecap="round" stroke-linejoin="round" points="34 0 26 4 26 12 30 14 30 69 28 70 28 71 26 72 26 74 24 74 24 76 4 86 0 86 0 91 14 91 18 93 20 92 26 95 26 97 30 99 30 106 38 106 38 99 42 97 42 95 48 92 50 93 54 91 68 91 68 86 64 86 44 76 44 74 42 74 42 72 40 71 40 70 38 69 38 14 72 31 72 33 74 34 74 40 76 41 80 39 80 43 82 44 83 43.5 83 66 85 68 90 68 90 67.5 90 66 106 58 106 59 107 59.5 109 56 109 28.5 108 28 84 23 80 25 78 24 76 25 42 8 42 4"></polygon>
            <g id="底座" transform="translate(0.000000, 69.000000)">
                <polygon id="Path-79" stroke="#4A4A4A" stroke-width="0.5" fill="#4A4A4A" opacity="0.1" stroke-linecap="round" stroke-linejoin="round" points="0 22 30 37 38 37 68 22 68 17 34 0 0 17"></polygon>
                <polygon id="Path-78" stroke="#4A4A4A" stroke-width="0.5" fill="#4A4A4A" opacity="0.1" stroke-linecap="round" stroke-linejoin="round" points="18 24 34 32 54 22 34 12 14 22"></polygon>
                <path d="M0,17 L4,17 L34,2 L64,17 L68,17 L68,22 L54,22 L50,24 L48,23 L50,22 C48.8674805,22.5662598 46.2008138,23.8995931 42,26 L42,28 L38,30 L38,24 L38,37 L30,37 L30,24 L30,30 L26,28 L26,26 L18,22 L20,23 L18,24 L14,22 L0,22 L0,17 Z" id="Path-24" fill="#727981"></path>
                <polygon id="Path-25" fill="#878C92" points="0 21 4 21 14 16 30 24 38 24 54 16 64 21 68 21 68 17 64 17 34 2 4 17 0 17"></polygon>
                <path d="M2,19.5 C1.44771525,19.5 1,19.2761424 1,19 C1,18.7238576 1.44771525,18.5 2,18.5 C2.55228475,18.5 3,18.7238576 3,19 C3,19.2761424 2.55228475,19.5 2,19.5 Z M66,19.5 C65.4477153,19.5 65,19.2761424 65,19 C65,18.7238576 65.4477153,18.5 66,18.5 C66.5522847,18.5 67,18.7238576 67,19 C67,19.2761424 66.5522847,19.5 66,19.5 Z M34,35.5 C33.4477153,35.5 33,35.2761424 33,35 C33,34.7238576 33.4477153,34.5 34,34.5 C34.5522847,34.5 35,34.7238576 35,35 C35,35.2761424 34.5522847,35.5 34,35.5 Z M34,4 C33.4477153,4 33,3.77614237 33,3.5 C33,3.22385763 33.4477153,3 34,3 C34.5522847,3 35,3.22385763 35,3.5 C35,3.77614237 34.5522847,4 34,4 Z" id="Combined-Shape" stroke="#4A4A4A" stroke-width="0.5" fill="#EAEAEA" stroke-linecap="round" stroke-linejoin="round"></path>
                <polygon id="Path-26" fill="#696F76" points="50 22 50 24 48 23"></polygon>
                <polygon id="Path-27" fill="#696F76" points="18 22 18 24 20 23"></polygon>
                <polygon id="Path-73" fill="#697078" points="14 16 14 22 0 22 0 21 4 21"></polygon>
                <polygon id="Path-74" fill="#697078" points="54 16 54 22 68 22 68 21 64 21"></polygon>
                <polygon id="Path-75" fill="#7A8087" points="4 17 14 12 14 16 4 21"></polygon>
                <polygon id="Path-76" fill="#7A8087" points="54 12 54 16 64 21 64 17"></polygon>
                <polygon id="Path-77" fill="#878C92" points="30 36 30 34 38 34 38 36"></polygon>
                <polyline id="Path-80" stroke="#A9ADB1" stroke-width="0.5" stroke-linecap="round" stroke-linejoin="round" points="0 21 4 21 14 16 30 24 38 24 54 16 64 21 68 21"></polyline>
                <path d="M0,17 L4,17 L34,2 L64,17 L68,17 L68,22 L54,22 L50,24 L48,23 L50,22 C48.8674805,22.5662598 46.2008138,23.8995931 42,26 L42,28 L38,30 L38,24 L38,37 L30,37 L30,24 L30,30 L26,28 L26,26 L18,22 L20,23 L18,24 L14,22 L0,22 L0,17 Z" id="Path-24" stroke="#4A4A4A" stroke-width="0.5" stroke-linecap="round" stroke-linejoin="round"></path>
            </g>
            <g id="Group-5" transform="translate(18.000000, 73.000000)">
                <polygon id="Path-28" fill="#727981" points="0 10 16 18 16 16 0 8"></polygon>
                <polygon id="Path-29" fill="#61676E" points="16 18 32 10 32 8 16 16"></polygon>
                <polygon id="Path-30" fill="#878C92" points="16 16 0 8 16 0 32 8"></polygon>
                <path d="M16,3 C15.4477153,3 15,2.77614237 15,2.5 C15,2.22385763 15.4477153,2 16,2 C16.5522847,2 17,2.22385763 17,2.5 C17,2.77614237 16.5522847,3 16,3 Z M16,15 C15.4477153,15 15,14.7761424 15,14.5 C15,14.2238576 15.4477153,14 16,14 C16.5522847,14 17,14.2238576 17,14.5 C17,14.7761424 16.5522847,15 16,15 Z M3,8.5 C2.44771525,8.5 2,8.27614237 2,8 C2,7.72385763 2.44771525,7.5 3,7.5 C3.55228475,7.5 4,7.72385763 4,8 C4,8.27614237 3.55228475,8.5 3,8.5 Z M29,8.5 C28.4477153,8.5 28,8.27614237 28,8 C28,7.72385763 28.4477153,7.5 29,7.5 C29.5522847,7.5 30,7.72385763 30,8 C30,8.27614237 29.5522847,8.5 29,8.5 Z" id="Combined-Shape" stroke="#4A4A4A" stroke-width="0.5" fill="#EAEAEA" stroke-linecap="round" stroke-linejoin="round"></path>
                <polyline id="Path-81" stroke="#A9ADB1" stroke-width="0.5" stroke-linecap="round" stroke-linejoin="round" points="0 8 16 16 32 8"></polyline>
                <polygon id="Path-82" stroke="#4A4A4A" stroke-width="0.5" stroke-linecap="round" stroke-linejoin="round" points="0 8 7.10542736e-15 10 16 18 32 10 32 8 16 0"></polygon>
            </g>
            <g id="Group-6" transform="translate(24.000000, 74.000000)">
                <polygon id="Path-31" fill="#878C92" points="0 0 7.07767178e-15 10 20 10 20 0"></polygon>
                <polygon id="Path-32" fill="#61676E" points="0 10 0 12 20 12 20 10"></polygon>
                <path d="M0,10 L20,10" id="Path-84" stroke="#A9ADB1" stroke-width="0.5" stroke-linecap="round" stroke-linejoin="round"></path>
                <polygon id="Path-83" stroke="#4A4A4A" stroke-width="0.5" stroke-linecap="round" stroke-linejoin="round" points="0 0 0 12 20 12 20 0"></polygon>
            </g>
            <g id="Group-7" transform="translate(26.000000, 67.000000)">
                <polygon id="Path-33" fill="#727981" points="0 10 0 12 8 16 8 14"></polygon>
                <polygon id="Path-34" fill="#878C92" points="0 10 8 6 16 10 8 14"></polygon>
                <polygon id="Path-35" fill="#61676E" points="16 10 16 12 8 16 8 14"></polygon>
                <polygon id="Path-36" fill="#727981" points="8 13 8 11 2 8 2 10"></polygon>
                <polygon id="Path-37" fill="#61676E" points="8 13 14 10 14 8 8 11"></polygon>
                <polygon id="Path-38" fill="#727981" points="0 5 0 7 8 11 8 9"></polygon>
                <polygon id="Path-39" fill="#61676E" points="8 11 16 7 16 5 8 9"></polygon>
                <polygon id="Path-40" fill="#878C92" points="0 5 8 9 16 5 8 1"></polygon>
                <polygon id="Path-41" fill="#727981" points="2 3 2 5 8 8 8 6"></polygon>
                <polygon id="Path-42" fill="#61676E" points="8 6 14 3 14 5 8 8"></polygon>
                <polygon id="Path-43" fill="#878C92" points="2 3 8 0 14 3 8 6"></polygon>
                <polyline id="Path-86" stroke="#A9ADB1" stroke-width="0.5" stroke-linecap="round" stroke-linejoin="round" points="0 10 8 14 8 16 8 14 16 10"></polyline>
                <polyline id="Path-86-Copy" stroke="#A9ADB1" stroke-width="0.5" stroke-linecap="round" stroke-linejoin="round" points="0 5 8 9 8 11 8 9 16 5"></polyline>
                <polyline id="Path-87" stroke="#A9ADB1" stroke-width="0.5" stroke-linecap="round" stroke-linejoin="round" points="2 3 8 6 8 8 8 6 14 3"></polyline>
                <polygon id="Path-85" stroke="#4A4A4A" stroke-width="0.5" stroke-linecap="round" stroke-linejoin="round" points="0 10 0 12 8 16 16 12 16 10 14 9 14 10 14 8 16 7 16 5 14 4 14 5 14 3 8 0 2 3 2 5 2 4 0 5 0 7 2 8 8 11 14 8 8 11 2 8 2 10 2 9"></polygon>
            </g>
            <g id="Group-8" transform="translate(26.000000, 0.000000)">
                <polygon id="Path-44" fill="#727981" points="4 14 4 70 8 72 8 16"></polygon>
                <polygon id="Path-45" fill="#61676E" points="8 16 12 14 12 70 8 72"></polygon>
                <polygon id="Path-46" fill="#727981" points="8 8 8 16 0 12 0 4"></polygon>
                <polygon id="Path-47" fill="#61676E" points="8 8 16 4 16 12 8 16"></polygon>
                <polygon id="Path-48" fill="#878C92" points="0 4 8 0 16 4 8 8"></polygon>
                <polygon id="Path-49" fill="#727981" points="4 3 4 4 8 6 8 5"></polygon>
                <polygon id="Path-50" fill="#61676E" points="8 5 12 3 12 4 8 6"></polygon>
                <polygon id="Path-51" fill="#878C92" points="4 3 8 1 12 3 8 5"></polygon>
                <polygon id="Path-52" fill="#61676E" points="6 3 8 2 8 3 7 3.5"></polygon>
                <polygon id="Path-53" fill="#61676E" points="8 2 10 3 9 3.5 8 3"></polygon>
                <polygon id="Path-54" fill="#878C92" points="8 3 7 3.5 8 4 9 3.5"></polygon>
                <polygon id="Path-55" fill="#FFFFFF" opacity="0.7" points="0 6 8 10 16 6 16 10 8 14 0 10"></polygon>
                <path d="M2,7 L2,11" id="Path-94" stroke="#A9ADB1" stroke-width="0.5" stroke-linecap="round" stroke-linejoin="round"></path>
                <path d="M4,8.191 L4,12" id="Path-95" stroke="#A9ADB1" stroke-width="0.5" stroke-linecap="round" stroke-linejoin="round"></path>
                <path d="M6,9 L6,13" id="Path-96" stroke="#A9ADB1" stroke-width="0.5" stroke-linecap="round" stroke-linejoin="round"></path>
                <path d="M8,10 L8,14" id="Path-96-Copy" stroke="#FFFFFF" stroke-width="0.5" opacity="0.7" stroke-linecap="round" stroke-linejoin="round"></path>
                <polyline id="Path-91" stroke="#A9ADB1" stroke-width="0.5" stroke-linecap="round" stroke-linejoin="round" points="4 3 8 5 8 6 8 5 12 3"></polyline>
                <path d="M0,4 L8,8 L16,4 L8,8 L8,10 M8,14 L8,16" id="Shape" stroke="#A9ADB1" stroke-width="0.5" stroke-linecap="round" stroke-linejoin="round"></path>
                <path d="M8,16 L8,72" id="Path-93" stroke="#A9ADB1" stroke-width="0.5" stroke-linecap="round" stroke-linejoin="round"></path>
                <polyline id="Path-89" stroke="#4A4A4A" stroke-width="0.5" stroke-linecap="round" stroke-linejoin="round" points="4 4 4 3 8 1 12 3 12 4"></polyline>
                <polyline id="Path-90" stroke="#4A4A4A" stroke-width="0.5" stroke-linecap="round" stroke-linejoin="round" points="10 3 8 4 6 3"></polyline>
                <polygon id="Path-55" stroke="#9F9F9F" stroke-width="0.5" stroke-linecap="round" stroke-linejoin="round" points="0 6 8 10 16 6 16 10 8 14 0 10"></polygon>
                <polyline id="Path-88" stroke="#4A4A4A" stroke-width="0.5" stroke-linecap="round" stroke-linejoin="round" points="12 70 12 14 8 16 4 14 8 16 16 12 16 4 8 0 0 4 0 12 4 14 4 70"></polyline>
                <polygon id="Path-92" stroke="#4A4A4A" stroke-width="0.5" fill="#4A4A4A" opacity="0.1" stroke-linecap="round" stroke-linejoin="round" points="4 14 4 18 8 20 12 18 12 14 8 16"></polygon>
            </g>
            <g id="Group-13" transform="translate(36.000000, 7.000000)">
                <polygon id="Path-56" fill="#727981" points="0 2 0 6 36 24 36 20"></polygon>
                <polygon id="Path-57" fill="#878C92" points="0 2 4 0 40 18 36 20"></polygon>
                <path d="M0,2 L36,20" id="Path-98" stroke="#A9ADB1" stroke-width="0.5" stroke-linecap="round" stroke-linejoin="round"></path>
                <polygon id="Path-58" stroke="#ADADAD" stroke-width="0.5" fill-opacity="0.7" fill="#FFFFFF" stroke-linecap="round" stroke-linejoin="round" points="24 10 20 12 20 16 18 15 18 11 22 9"></polygon>
                <polygon id="Path-97" stroke="#4A4A4A" stroke-width="0.5" stroke-linecap="round" stroke-linejoin="round" points="0 2 0 6 36 24 36 20 40 18 4 0"></polygon>
            </g>
            <g id="Group-14" transform="translate(72.000000, 22.000000)">
                <g id="Group-12" transform="translate(0.000000, 2.000000)">
                    <polygon id="Path-59" fill="#878C92" points="6 0 0 3 2 4 8 1"></polygon>
                    <polygon id="Path-60" fill="#727981" points="0 3 0 9 2 10 2 4"></polygon>
                    <path d="M0,3 L2,4" id="Path-100" stroke="#A9ADB1" stroke-width="0.5" stroke-linecap="round" stroke-linejoin="round"></path>
                </g>
                <g id="Group-11" transform="translate(2.000000, 0.000000)">
                    <polygon id="Path-61" fill="#727981" points="0 6 0 18 2 19 2 7"></polygon>
                    <polygon id="Path-62" fill="#61676E" points="14 1 14 13 2 19 2 7"></polygon>
                    <polygon id="Path-68" fill="#878C92" points="0 6 12 0 14 1 2 7"></polygon>
                    <g id="Group-15" opacity="0.4" transform="translate(0.000000, 1.000000)" stroke="#4A4A4A" stroke-linecap="round" stroke-linejoin="round" stroke-width="0.5">
                        <path d="M0,15 L2,16" id="Path-105"></path>
                        <path d="M0,13 L2,14" id="Path-105-Copy"></path>
                        <path d="M0,11 L2,12" id="Path-105-Copy-2"></path>
                        <path d="M0,9 L2,10" id="Path-105-Copy-3"></path>
                        <path d="M0,7 L2,8" id="Path-105-Copy-4"></path>
                        <path d="M2,4 L4,5" id="Path-105-Copy-5"></path>
                        <path d="M4,3 L6,4" id="Path-105-Copy-6"></path>
                        <path d="M6,2 L8,3" id="Path-105-Copy-7"></path>
                        <path d="M8,1 L10,2" id="Path-105-Copy-8"></path>
                        <path d="M10,0 L12,1" id="Path-105-Copy-9"></path>
                    </g>
                    <polyline id="Path-101" stroke="#A9ADB1" stroke-width="0.5" stroke-linecap="round" stroke-linejoin="round" points="0 6 2 7 14 1 2 7 2 19"></polyline>
                </g>
                <g id="Group-10" transform="translate(6.000000, 4.000000)">
                    <polygon id="Path-63" fill="#727981" points="0 4 0 11 2 12 2 5"></polygon>
                    <polygon id="Path-64" fill="#878C92" points="0 4 8 0 10 1 2 5"></polygon>
                    <path d="M0,4 L2,5" id="Path-102" stroke="#A9ADB1" stroke-width="0.5" stroke-linecap="round" stroke-linejoin="round"></path>
                    <polyline id="Path-103" stroke="#4A4A4A" stroke-width="0.5" stroke-linecap="round" stroke-linejoin="round" points="8 0 0 4 0 11"></polyline>
                </g>
                <g id="Group-9" transform="translate(8.000000, 3.000000)">
                    <polygon id="Path-65" fill="#727981" points="0 6 0 18 2 19 2 7"></polygon>
                    <polygon id="Path-66" fill="#878C92" points="2 7 14 1 12 0 0 6"></polygon>
                    <polygon id="Path-67" fill="#61676E" points="2 19 14 13 14 1 2 7"></polygon>
                    <g id="Group-15" opacity="0.4" transform="translate(0.000000, 1.000000)" stroke="#4A4A4A" stroke-linecap="round" stroke-linejoin="round" stroke-width="0.5">
                        <path d="M0,15 L2,16" id="Path-105"></path>
                        <path d="M0,13 L2,14" id="Path-105-Copy"></path>
                        <path d="M0,11 L2,12" id="Path-105-Copy-2"></path>
                        <path d="M0,9 L2,10" id="Path-105-Copy-3"></path>
                        <path d="M0,7 L2,8" id="Path-105-Copy-4"></path>
                        <path d="M2,4 L4,5" id="Path-105-Copy-5"></path>
                        <path d="M4,3 L6,4" id="Path-105-Copy-6"></path>
                        <path d="M6,2 L8,3" id="Path-105-Copy-7"></path>
                        <path d="M8,1 L10,2" id="Path-105-Copy-8"></path>
                        <path d="M10,0 L12,1" id="Path-105-Copy-9"></path>
                    </g>
                    <polyline id="Path-104" stroke="#A9ADB1" stroke-width="0.5" stroke-linecap="round" stroke-linejoin="round" points="14 1 2 7 2.27373675e-13 6 2 7 2 19"></polyline>
                </g>
                <polygon id="Path-99" stroke="#4A4A4A" stroke-width="0.5" stroke-linecap="round" stroke-linejoin="round" points="6 2 0 5 0 11 2 12 2 6 2 18 4 19 8 17 8 16 6 15 8 16 8 21 10 22 22 16 22 4 20 3 8 9 8 16 8 9 16 5 14 4 16 5 16 1 14 0 2 6 8 3"></polygon>
            </g>
            <g id="iphone" transform="translate(83.000000, 1.000000)">
                <polygon id="Path-72" stroke="#4A4A4A" stroke-width="0.5" fill="#727981" stroke-linecap="round" stroke-linejoin="round" points="25 27 26 27.5 26 55 24 58.5 23 58"></polygon>
                <g id="Path-70" transform="translate(1.000000, 0.000000)">
                    <mask id="mask-2" fill="white">
                        <use xlink:href="#path-1"></use>
                    </mask>
                    <use id="Mask" stroke="#4A4A4A" stroke-width="0.5" fill="#F8C21C" stroke-linecap="round" stroke-linejoin="round" xlink:href="#path-1"></use>
                    <path d="M22,2 L3.08835811,11.4557684 C2.59435642,11.7027693 2.39412267,12.3034705 2.64112351,12.7974722 C2.64985206,12.8149293 2.6590898,12.8321272 2.66882486,12.8490436 C2.88960829,13.2326958 3,13.6163479 3,14 L3,64 C2.97655216,65.2427356 2.64321882,66.2427356 2,67 L5,70 L30.5,61 L31.5,22 L27,2.5 L22,2 Z" stroke="#4A4A4A" stroke-width="0.5" fill="#555555" stroke-linecap="round" stroke-linejoin="round" mask="url(#mask-2)"></path>
                </g>
                <g id="图形内部/iPhone-的屏幕" transform="translate(5.000000, 5.500000)">
                    <g id="Path-72" stroke-width="1" fill-rule="evenodd" transform="translate(0.000000, 0.000000)">
                        <mask id="mask-4" fill="white">
                            <use xlink:href="#path-3"></use>
                        </mask>
                        <use id="Path-71" stroke="#4A4A4A" stroke-width="0.5" fill="#FFFFFF" stroke-linecap="round" stroke-linejoin="round" xlink:href="#path-3"></use>
                        <g id="Group-2" mask="url(#mask-4)">
                            <g transform="translate(9.000000, 19.000000) scale(-1, 1) translate(-9.000000, -19.000000) translate(5.000000, 13.000000)">
                                <polygon id="Path-6" fill="#FFB0A5" points="1.66533454e-16 0 0 8 8 12 8 4"></polygon>
                                <polygon id="Path-9" fill="#909DFF" opacity="0.5" points="0 2 6 11 0 8"></polygon>
                                <polygon id="Path-10" fill="#90FFD6" opacity="0.709612165" points="2 1 8 10 8 4"></polygon>
                                <polygon id="Path-7" fill="#FFE190" opacity="0.5" points="-4.26325641e-14 6 6 3 -4.26325641e-14 8.43769499e-15"></polygon>
                                <polygon id="Path-8" fill="#FF90AD" opacity="0.5" points="4 10 8 5 8 12"></polygon>
                            </g>
                        </g>
                        <polygon id="Path-138" fill="#8BB8D9" mask="url(#mask-4)" points="-7.10542736e-15 16 18 7 18 8.32667268e-16 -7.10542736e-15 8.882"></polygon>
                        <polygon id="Path" fill="#ABABAB" mask="url(#mask-4)" points="4 31 4 28 14 23 14 26"></polygon>
                        <polygon id="Path-2" fill="#D3D3D3" mask="url(#mask-4)" points="2 34 16 27 16 29 2 36"></polygon>
                        <polygon id="Path-2-Copy" fill="#D3D3D3" mask="url(#mask-4)" points="2 38 16 31 16 33 2 40"></polygon>
                        <polygon id="Path-2-Copy-2" fill="#D3D3D3" mask="url(#mask-4)" points="2 42 16 35 16 37 2 44"></polygon>
                        <polygon id="Path-2-Copy-3" fill="#D3D3D3" mask="url(#mask-4)" points="2 46 10 42 10 44 2 48"></polygon>
                        <polygon id="Path-2-Copy-4" fill="#8BB8D9" mask="url(#mask-4)" points="2 50 12 45 12 47 2 52"></polygon>
                        <polygon id="Path-3" fill="#F1F1F1" mask="url(#mask-4)" points="0 55 18 46 18 50 0 59"></polygon>
                    </g>
                    <mask id="mask-6" fill="white">
                        <use xlink:href="#path-5"></use>
                    </mask>
                    <use id="Path-71" stroke="#4A4A4A" stroke-width="0.5" stroke-linecap="round" stroke-linejoin="round" xlink:href="#path-5"></use>
                </g>
                <polygon id="Path-69" stroke="#4A4A4A" stroke-width="0.5" fill="#727981" stroke-linecap="round" stroke-linejoin="round" points="0 38.5 1 38 3 39 3 66 7 66 7 67 2 67 0 65"></polygon>
                <path d="M2,39.5 L2,65.5" id="Path-106" stroke="#A9ADB1" stroke-width="0.5" stroke-linecap="round" stroke-linejoin="round"></path>
            </g>
        </g>
    </g>
</svg>