<?xml version="1.0" encoding="UTF-8"?>
<svg width="206px" height="130px" viewBox="0 0 206 130" version="1.1" xmlns="http://www.w3.org/2000/svg" xmlns:xlink="http://www.w3.org/1999/xlink">
    <!-- Generator: Sketch 53.2 (72643) - https://sketchapp.com -->
    <title>7-0</title>
    <desc>Created with Sketch.</desc>
    <defs>
        <polygon id="path-1" points="0 38 76 0 196 60 120 98"></polygon>
        <polygon id="path-3" points="0 36 72 0 120 36 48 72"></polygon>
        <polygon id="path-5" points="0 36 72 0 122 20 50 56"></polygon>
        <polygon id="path-7" points="0 36 72 0 74 1 2 37"></polygon>
        <polygon id="path-9" points="0 36 72 0 74 1 2 37"></polygon>
        <polygon id="path-11" points="0 36 72 0 84 6 12 42"></polygon>
        <polygon id="path-13" points="0 36 72 0 120 36 48 72"></polygon>
        <polygon id="path-15" points="0 36 72 0 122 20 50 56"></polygon>
        <polygon id="path-17" points="0 36 72 0 74 1 2 37"></polygon>
        <polygon id="path-19" points="0 36 72 0 74 1 2 37"></polygon>
        <polygon id="path-21" points="0 36 72 0 84 6 12 42"></polygon>
        <polygon id="path-23" points="111 32 115 34 114.5801 34.2296 162 53 95 87 51 69 39 63 0 34 68 0"></polygon>
        <polygon id="path-25" points="40 62 0 32 64 0 104 30"></polygon>
        <polygon id="path-27" points="40 62 0 32 64 0 104 30"></polygon>
        <polygon id="path-29" points="36 62 0 35 3 31 0 30 60 0 100 30"></polygon>
        <polygon id="path-31" points="0 5 0 0 4 3"></polygon>
        <polygon id="path-33" points="0 0 3 1 0 5"></polygon>
        <polygon id="path-35" points="0 32 63 0 108 18 45 50"></polygon>
        <polygon id="path-37" points="0 32 63 0 108 18 45 50"></polygon>
        <polygon id="path-39" points="0 32 63 0 108 18 45 50"></polygon>
        <path d="M53.5,2 C52.6716,2 52,1.5523 52,1 C52,0.4477 52.6716,0 53.5,0 C54.3284,0 55,0.4477 55,1 C55,1.5523 54.3284,2 53.5,2 Z M49.5,4 C48.6716,4 48,3.5523 48,3 C48,2.4477 48.6716,2 49.5,2 C50.3284,2 51,2.4477 51,3 C51,3.5523 50.3284,4 49.5,4 Z M45.5,6 C44.6716,6 44,5.5523 44,5 C44,4.4477 44.6716,4 45.5,4 C46.3284,4 47,4.4477 47,5 C47,5.5523 46.3284,6 45.5,6 Z M41.5,8 C40.6716,8 40,7.5523 40,7 C40,6.4477 40.6716,6 41.5,6 C42.3284,6 43,6.4477 43,7 C43,7.5523 42.3284,8 41.5,8 Z M37.5,10 C36.6716,10 36,9.5523 36,9 C36,8.4477 36.6716,8 37.5,8 C38.3284,8 39,8.4477 39,9 C39,9.5523 38.3284,10 37.5,10 Z M33.5,12 C32.6716,12 32,11.5523 32,11 C32,10.4477 32.6716,10 33.5,10 C34.3284,10 35,10.4477 35,11 C35,11.5523 34.3284,12 33.5,12 Z M29.5,14 C28.6716,14 28,13.5523 28,13 C28,12.4477 28.6716,12 29.5,12 C30.3284,12 31,12.4477 31,13 C31,13.5523 30.3284,14 29.5,14 Z M25.5,16 C24.6716,16 24,15.5523 24,15 C24,14.4477 24.6716,14 25.5,14 C26.3284,14 27,14.4477 27,15 C27,15.5523 26.3284,16 25.5,16 Z M21.5,18 C20.6716,18 20,17.5523 20,17 C20,16.4477 20.6716,16 21.5,16 C22.3284,16 23,16.4477 23,17 C23,17.5523 22.3284,18 21.5,18 Z M17.5,20 C16.6716,20 16,19.5523 16,19 C16,18.4477 16.6716,18 17.5,18 C18.3284,18 19,18.4477 19,19 C19,19.5523 18.3284,20 17.5,20 Z M13.5,22 C12.6716,22 12,21.5523 12,21 C12,20.4477 12.6716,20 13.5,20 C14.3284,20 15,20.4477 15,21 C15,21.5523 14.3284,22 13.5,22 Z M9.5,24 C8.6716,24 8,23.5523 8,23 C8,22.4477 8.6716,22 9.5,22 C10.3284,22 11,22.4477 11,23 C11,23.5523 10.3284,24 9.5,24 Z M5.5,26 C4.6716,26 4,25.5523 4,25 C4,24.4477 4.6716,24 5.5,24 C6.3284,24 7,24.4477 7,25 C7,25.5523 6.3284,26 5.5,26 Z M1.5,28 C0.6716,28 0,27.5523 0,27 C0,26.4477 0.6716,26 1.5,26 C2.3284,26 3,26.4477 3,27 C3,27.5523 2.3284,28 1.5,28 Z" id="path-41"></path>
        <path d="M2,28 C0.8954,28 0,27.5523 0,27 C0,26.4477 0.8954,26 2,26 C3.1046,26 4,26.4477 4,27 C4,27.5523 3.1046,28 2,28 Z M6,26 C4.8954,26 4,25.5523 4,25 C4,24.4477 4.8954,24 6,24 C7.1046,24 8,24.4477 8,25 C8,25.5523 7.1046,26 6,26 Z M10,24 C8.8954,24 8,23.5523 8,23 C8,22.4477 8.8954,22 10,22 C11.1046,22 12,22.4477 12,23 C12,23.5523 11.1046,24 10,24 Z M14,22 C12.8954,22 12,21.5523 12,21 C12,20.4477 12.8954,20 14,20 C15.1046,20 16,20.4477 16,21 C16,21.5523 15.1046,22 14,22 Z M18,20 C16.8954,20 16,19.5523 16,19 C16,18.4477 16.8954,18 18,18 C19.1046,18 20,18.4477 20,19 C20,19.5523 19.1046,20 18,20 Z M22,18 C20.8954,18 20,17.5523 20,17 C20,16.4477 20.8954,16 22,16 C23.1046,16 24,16.4477 24,17 C24,17.5523 23.1046,18 22,18 Z M26,16 C24.8954,16 24,15.5523 24,15 C24,14.4477 24.8954,14 26,14 C27.1046,14 28,14.4477 28,15 C28,15.5523 27.1046,16 26,16 Z M30,14 C28.8954,14 28,13.5523 28,13 C28,12.4477 28.8954,12 30,12 C31.1046,12 32,12.4477 32,13 C32,13.5523 31.1046,14 30,14 Z M34,12 C32.8954,12 32,11.5523 32,11 C32,10.4477 32.8954,10 34,10 C35.1046,10 36,10.4477 36,11 C36,11.5523 35.1046,12 34,12 Z M38,10 C36.8954,10 36,9.5523 36,9 C36,8.4477 36.8954,8 38,8 C39.1046,8 40,8.4477 40,9 C40,9.5523 39.1046,10 38,10 Z M42,8 C40.8954,8 40,7.5523 40,7 C40,6.4477 40.8954,6 42,6 C43.1046,6 44,6.4477 44,7 C44,7.5523 43.1046,8 42,8 Z M46,6 C44.8954,6 44,5.5523 44,5 C44,4.4477 44.8954,4 46,4 C47.1046,4 48,4.4477 48,5 C48,5.5523 47.1046,6 46,6 Z M50,4 C48.8954,4 48,3.5523 48,3 C48,2.4477 48.8954,2 50,2 C51.1046,2 52,2.4477 52,3 C52,3.5523 51.1046,4 50,4 Z M54,2 C52.8954,2 52,1.5523 52,1 C52,0.4477 52.8954,0 54,0 C55.1046,0 56,0.4477 56,1 C56,1.5523 55.1046,2 54,2 Z" id="path-43"></path>
    </defs>
    <g id="7-0" stroke="none" stroke-width="1" fill="none" fill-rule="evenodd">
        <rect fill="#FFFFFF" x="0" y="0" width="206" height="130"></rect>
        <rect id="Rectangle" fill="#EEC5FF" x="-10" y="-13" width="228" height="156"></rect>
        <g id="Group-2" transform="translate(5.000000, 18.000000)">
            <g id="Group-8468" transform="translate(0.000000, 12.000000)">
                <g id="Group-8465">
                    <mask id="mask-2" fill="white">
                        <use xlink:href="#path-1"></use>
                    </mask>
                    <g id="Clip-8464"></g>
                    <polygon id="Fill-8463" fill-opacity="0.1" fill="#4A4A4A" mask="url(#mask-2)" points="-5 -5 201 -5 201 103 -5 103"></polygon>
                </g>
            </g>
            <g id="Group-8471" transform="translate(4.000000, 0.000000)">
                <mask id="mask-4" fill="white">
                    <use xlink:href="#path-3"></use>
                </mask>
                <g id="Clip-8470"></g>
                <polygon id="Fill-8469" fill="#D3B58F" mask="url(#mask-4)" points="-5 -5 125 -5 125 77 -5 77"></polygon>
            </g>
            <polygon id="Stroke-8472" stroke="#4A4A4A" stroke-width="4" stroke-linecap="round" stroke-linejoin="round" points="4 36 76 0 124 36 52 72"></polygon>
            <g id="Group-8476" transform="translate(68.000000, 44.000000)">
                <mask id="mask-6" fill="white">
                    <use xlink:href="#path-5"></use>
                </mask>
                <g id="Clip-8475"></g>
                <polygon id="Fill-8474" fill="#E2C6A5" mask="url(#mask-6)" points="-5 -5 127 -5 127 61 -5 61"></polygon>
            </g>
            <polygon id="Stroke-8477" stroke="#4A4A4A" stroke-width="4" stroke-linecap="round" stroke-linejoin="round" points="68 80 140 44 190 64 118 100"></polygon>
            <g id="Group-8481" transform="translate(52.000000, 36.000000)">
                <mask id="mask-8" fill="white">
                    <use xlink:href="#path-7"></use>
                </mask>
                <g id="Clip-8480"></g>
                <polygon id="Fill-8479" fill="#CFB18C" mask="url(#mask-8)" points="-5 -5 79 -5 79 42 -5 42"></polygon>
            </g>
            <polygon id="Stroke-8482" stroke="#4A4A4A" stroke-width="4" stroke-linecap="round" stroke-linejoin="round" points="52 72 54 73 126 37 124 36"></polygon>
            <g id="Group-8486" transform="translate(66.000000, 43.000000)">
                <mask id="mask-10" fill="white">
                    <use xlink:href="#path-9"></use>
                </mask>
                <g id="Clip-8485"></g>
                <polygon id="Fill-8484" fill="#CFB18C" mask="url(#mask-10)" points="-5 -5 79 -5 79 42 -5 42"></polygon>
            </g>
            <polygon id="Stroke-8487" stroke="#4A4A4A" stroke-width="4" stroke-linecap="round" stroke-linejoin="round" points="66 79 68 80 140 44 138 43"></polygon>
            <g id="Group-8491" transform="translate(54.000000, 37.000000)">
                <mask id="mask-12" fill="white">
                    <use xlink:href="#path-11"></use>
                </mask>
                <g id="Clip-8490"></g>
                <polygon id="Fill-8489" fill="#DBBD98" mask="url(#mask-12)" points="-5 -5 89 -5 89 47 -5 47"></polygon>
            </g>
            <g id="Group-8498" transform="translate(54.000000, 33.000000)" stroke-linecap="round" stroke-linejoin="round">
                <polygon id="Stroke-8492" stroke="#4A4A4A" stroke-width="4" points="0 40 12 46 84 10 72 4"></polygon>
                <path d="M65,5.864745 L65,3.454915 C65,1.546818 66.546818,0 68.454915,0 C68.991274,0 69.520266,0.1248782 70,0.3647451 L70,0.3647451 C73.06433,1.89691 75,5.02889 75,8.454915 L75,11.86475" id="Stroke-8494" stroke="#4A4A4A" stroke-width="2"></path>
                <path d="M65,5.864745 L65,3.454915 C65,1.546818 66.546818,0 68.454915,0 C68.991274,0 69.520266,0.1248782 70,0.3647451 L70,0.3647451 C73.06433,1.89691 75,5.02889 75,8.454915 L75,11.86475" id="Stroke-8496" stroke="#BDBDBD"></path>
            </g>
            <g id="Group-8501" transform="translate(4.000000, 0.000000)">
                <mask id="mask-14" fill="white">
                    <use xlink:href="#path-13"></use>
                </mask>
                <g id="Clip-8500"></g>
                <polygon id="Fill-8499" fill="#D3B58F" mask="url(#mask-14)" points="-5 -5 125 -5 125 77 -5 77"></polygon>
            </g>
            <polygon id="Stroke-8502" stroke="#4A4A4A" stroke-width="0.5" stroke-linecap="round" stroke-linejoin="round" points="4 36 76 0 124 36 52 72"></polygon>
            <g id="Group-8506" transform="translate(68.000000, 44.000000)">
                <mask id="mask-16" fill="white">
                    <use xlink:href="#path-15"></use>
                </mask>
                <g id="Clip-8505"></g>
                <polygon id="Fill-8504" fill="#E2C6A5" mask="url(#mask-16)" points="-5 -5 127 -5 127 61 -5 61"></polygon>
            </g>
            <polygon id="Stroke-8507" stroke="#4A4A4A" stroke-width="0.5" stroke-linecap="round" stroke-linejoin="round" points="68 80 140 44 190 64 118 100"></polygon>
            <g id="Group-8511" transform="translate(52.000000, 36.000000)">
                <mask id="mask-18" fill="white">
                    <use xlink:href="#path-17"></use>
                </mask>
                <g id="Clip-8510"></g>
                <polygon id="Fill-8509" fill="#CFB18C" mask="url(#mask-18)" points="-5 -5 79 -5 79 42 -5 42"></polygon>
            </g>
            <polygon id="Stroke-8512" stroke="#4A4A4A" stroke-width="0.5" stroke-linecap="round" stroke-linejoin="round" points="52 72 54 73 126 37 124 36"></polygon>
            <g id="Group-8516" transform="translate(66.000000, 43.000000)">
                <mask id="mask-20" fill="white">
                    <use xlink:href="#path-19"></use>
                </mask>
                <g id="Clip-8515"></g>
                <polygon id="Fill-8514" fill="#CFB18C" mask="url(#mask-20)" points="-5 -5 79 -5 79 42 -5 42"></polygon>
            </g>
            <polygon id="Stroke-8517" stroke="#4A4A4A" stroke-width="0.5" stroke-linecap="round" stroke-linejoin="round" points="66 79 68 80 140 44 138 43"></polygon>
            <g id="Group-8521" transform="translate(54.000000, 37.000000)">
                <mask id="mask-22" fill="white">
                    <use xlink:href="#path-21"></use>
                </mask>
                <g id="Clip-8520"></g>
                <polygon id="Fill-8519" fill="#DBBD98" mask="url(#mask-22)" points="-5 -5 89 -5 89 47 -5 47"></polygon>
            </g>
            <polygon id="Stroke-8522" stroke="#4A4A4A" stroke-width="0.5" stroke-linecap="round" stroke-linejoin="round" points="54 73 66 79 138 43 126 37"></polygon>
            <g id="Group-8529" transform="translate(17.000000, 9.000000)">
                <g id="Group-8526">
                    <mask id="mask-24" fill="white">
                        <use xlink:href="#path-23"></use>
                    </mask>
                    <g id="Clip-8525"></g>
                    <polygon id="Fill-8524" fill-opacity="0.2" fill="#4A4A4A" mask="url(#mask-24)" points="-5 -5 167 -5 167 92 -5 92"></polygon>
                </g>
            </g>
            <g id="Group-8532" transform="translate(22.000000, 11.000000)">
                <mask id="mask-26" fill="white">
                    <use xlink:href="#path-25"></use>
                </mask>
                <g id="Clip-8531"></g>
                <polygon id="Fill-8530" fill="#F2F1EE" mask="url(#mask-26)" points="-5 -5 109 -5 109 67 -5 67"></polygon>
            </g>
            <polygon id="Stroke-8533" stroke="#4A4A4A" stroke-width="0.5" stroke-linecap="round" stroke-linejoin="round" points="62 73 22 43 86 11 126 41"></polygon>
            <g id="Group-8537" transform="translate(22.000000, 10.000000)">
                <mask id="mask-28" fill="white">
                    <use xlink:href="#path-27"></use>
                </mask>
                <g id="Clip-8536"></g>
                <polygon id="Fill-8535" fill="#F2F1EE" mask="url(#mask-28)" points="-5 -5 109 -5 109 67 -5 67"></polygon>
            </g>
            <polygon id="Stroke-8538" stroke="#4A4A4A" stroke-width="0.5" stroke-linecap="round" stroke-linejoin="round" points="62 72 22 42 86 10 126 40"></polygon>
            <g id="Group-8542" transform="translate(26.000000, 9.000000)">
                <mask id="mask-30" fill="white">
                    <use xlink:href="#path-29"></use>
                </mask>
                <g id="Clip-8541"></g>
                <polygon id="Fill-8540" fill="#F2F1EE" mask="url(#mask-30)" points="-5 -5 105 -5 105 67 -5 67"></polygon>
            </g>
            <g id="Group-8627" transform="translate(26.000000, 9.000000)" stroke-linecap="round" stroke-linejoin="round" stroke-width="0.5">
                <polygon id="Stroke-8543" stroke="#4A4A4A" points="36 62 0 35 3 31 0 30 60 0 100 30"></polygon>
                <path d="M56,2 L96,32 L56,2 Z M52,4 L92,34 L52,4 Z M48,6 L88,36 L48,6 Z M44,8 L84,38 L44,8 Z M40,10 L80,40 L40,10 Z M36,12 L76,42 L36,12 Z M32,14 L72,44 L32,14 Z M28,16 L68,46 L28,16 Z M24,18 L64,48 L24,18 Z M20,20 L60,50 L20,20 Z M16,22 L56,52 L16,22 Z M12,24 L52,54 L12,24 Z M8,26 L48,56 L8,26 Z M4,28 L44,58 L4,28 Z M0,30 L40,60 L0,30 Z" id="Stroke-8545" stroke-opacity="0.08" stroke="#4A4A4A"></path>
                <polyline id="Stroke-8547" stroke="#4A4A4A" points="60 3 61 3 62 4 62.824219 5.531616 64.040771 5.3125 64.933716 7.323853 66.787842 7.323853 67.573975 8.535522 68.683228 9.030762"></polyline>
                <path d="M69.7439,10.4526793 L70.763797,10.2664 L71.75452,11.598797 L72.857914,11.598797 C73.285485,12.335858 73.499271,12.80294 73.499271,13.000043 C73.499271,13.197145 74.116092,13.674237 75.349735,14.431317 L75.516239,15.40556 L77.20972,15.201337 L77.897953,16.608929 L79.022342,16.608929 L79.83924,18.301922 L80.89673,18.142377" id="Stroke-8549" stroke="#4A4A4A"></path>
                <polyline id="Stroke-8551" stroke="#4A4A4A" points="58.4117 6.9277 60.560382 7.4688377 60.560382 8.782558 62.012896 8.782558 62.361651 10.0173"></polyline>
                <polyline id="Stroke-8553" stroke="#4A4A4A" points="63.5238 10.1536 64.0124475 11.815709 66.059322 11.815709 67.544186 14.285314 68.985104 13.835485 69.524044 15.4838 71.709225 15.4838"></polyline>
                <polyline id="Stroke-8555" stroke="#4A4A4A" points="72.973 16.6957 72.973 18.146628 75.055764 18.393576 75.633156 19.996359 77.301125 19.996359 78.153664 22.056418 80.142678 22.056418 80.444313 22.912131"></polyline>
                <polyline id="Stroke-8557" stroke="#4A4A4A" points="81.0785 24.4081777 82.727304 24.1135 83.057382 25.604833 84.701913 26.44016 85.313241 27.626562 87.353402 27.422704 87.796518 28.895116"></polyline>
                <polyline id="Stroke-8559" stroke="#4A4A4A" points="56.7749 10.4336 58.420896 10.4336 58.420896 12.000006 60.35742 12.000006 61.454588 14.000006 63.081541 14.000006 63.999998 16.000006 66.209714 16.4065 66.93359 18.000006 69.01733 18.411627 69.65747 21.3733 73.59204 21.3733 73.59204 22.71851 75.18725 22.71851 75.61401 24.41187"></polyline>
                <polyline id="Stroke-8561" stroke="#E26666" points="76.5 26 78.476807 26 79.047607 27.656494 80.422363 27.656494 80.775391 28.852295"></polyline>
                <path d="M81.6182,29.6743 L82.775427,29.6743" id="Stroke-8563" stroke="#4A4A4A"></path>
                <path d="M82.854,29.9999562 L82.854,30.9296438" id="Stroke-8565" stroke="#4A4A4A"></path>
                <polyline id="Stroke-8567" stroke="#4A4A4A" points="52 12 53.6875 12 54.196045 13.323242 56 13.323242 56 16 58.100098 16"></polyline>
                <polyline id="Stroke-8569" stroke="#E26666" points="58.9336 17 60.000006 17.3105469 61.234137 19 62.87818 19 64.000006 21 65.717047 21 65.717047 22.774658"></polyline>
                <polyline id="Stroke-8571" stroke="#4A4A4A" points="67.2542 22.6233 67.2542 24.000009 69.834522 24.000009 69.834522 25.388925 73.487354 25.388925 73.487354 27.000009 74.703907 27.000009 74.703907 29.413095 76.00005 30.403818 78.1585 30.403818 78.86553 32.000009"></polyline>
                <polyline id="Stroke-8573" stroke="#E26666" points="48 13 49.553711 13 49.553711 14 51.182617 14.378418 51.513672 16 53.401855 16 53.830078 18"></polyline>
                <polyline id="Stroke-8575" stroke="#4A4A4A" points="42 14 42 15 42.932373 15 44.390625 15.458496 45.383545 16.681885 47.198242 17.333008 47.198242 19 48.994629 19"></polyline>
                <polyline id="Stroke-8577" stroke="#4A4A4A" points="49.9148 20 50.348882 21 52.324468 21 52.324468 22.704346 55.059575 23.206787 55.059575 25 57.496343 25"></polyline>
                <polyline id="Stroke-8579" stroke="#4A4A4A" points="58.7617 27 60.729229 27 60.729229 28.44043 62.558331 28.44043 62.980206 32.38623 66.801495 32 67.344708 33.520996 69.01243 33.520996 69.78514 35 71.468 35"></polyline>
                <polyline id="Stroke-8581" stroke="#4A4A4A" points="70.8459 36.7715 72.884474 36.7715 72.884474 38.000016"></polyline>
                <path d="M34,19 L42,24.908447" id="Stroke-8583" stroke="#4A90E2"></path>
                <path d="M42.76314,18 L32.4731,23.479248" id="Stroke-8585" stroke="#4A90E2"></path>
                <path d="M36.8430479,19 C36.310984,19.8850911 36.310984,20.551758 36.8430479,21 C37.641144,21.672363 41.712433,22.529782 46.49393,21.382324" id="Stroke-8587" stroke="#E26666"></path>
                <path d="M31.5618,22 L48.00003,22" id="Stroke-8589" stroke="#F5A623"></path>
                <polyline id="Stroke-8591" stroke="#4A4A4A" points="46.8274 23.9246 48.25074 23.9246 48.25074 25.068643 49.894783 25.39042 50.825691 26.862588 51.851814 26.862588 53.249763 28.960977"></polyline>
                <polyline id="Stroke-8593" stroke="#4A4A4A" points="54.3152 30 56.384048 30 56.858901 31.657959 58.772475 31.657959 59.59645 33 61.180434 33.436279 61.7527 35 64.35377 35 64.79347 36.855469 67.39772 37.488281 68.00001 38"></polyline>
                <polyline id="Stroke-8595" stroke="#4A4A4A" points="48 27.7168 49.408203 28.0000031 49.408203 28.966068"></polyline>
                <polyline id="Stroke-8597" stroke="#4A4A4A" points="50.4734 30 52.000011 30 52.813 31.518555 54.310314 32 54.759533 33.66748 57.394298 33.66748 58.264904 35.655762"></polyline>
                <polyline id="Stroke-8599" stroke="#4A4A4A" points="59.2219 36 59.6364508 37.100586 61.046119 37.100586 61.046119 38.518311 62.615455 38.518311"></polyline>
                <polyline id="Stroke-8601" stroke="#4A4A4A" points="45.8684 29.4182 47.175285 29.4182 47.999992 30.488268 48.703361 30.488268"></polyline>
                <polyline id="Stroke-8603" stroke="#4A4A4A" points="49.2219 32 50.52439 32 51.999976 33.675537 53.055152 34 53.576148 35.516113 56.400611 36.369873 56.400611 37.658936 58.566138 38.47876"></polyline>
                <polyline id="Stroke-8605" stroke="#4A4A4A" points="44 30.9514 45.536133 30.9514 45.536133 31.999984 46.750732 31.999984"></polyline>
                <polyline id="Stroke-8607" stroke="#4A4A4A" points="41.2354 31.3218 42.894824 31.3218 43.241259 33.000023 45.411914 33.368431 46.050097 35.000023 48.000048 35.000023 49.283496 36.754661 51.170703 36.754661"></polyline>
                <path d="M10.0696,36.256387 L25.75417,28.5496" id="Stroke-8609" stroke="#4A4A4A"></path>
                <polyline id="Stroke-8611" stroke="#4A4A4A" points="50.2837 38.4194 52.555673 38.4194 52.555673 39.999966 54.121102 39.999966 54.521249 41.999966 56.723641 41.999966"></polyline>
                <polyline id="Stroke-8613" stroke="#4A4A4A" points="48 33.533 49.001709 33.533 49.521729 35.000041 51.001221 34.618205"></polyline>
                <polyline id="Stroke-8615" stroke="#4A4A4A" points="35.5049 23.322 36.552996 23.322 36.552996 23.9999785 37.640886 24.32615 37.640886 25.999979 40.000017 25.999979"></polyline>
                <polyline id="Stroke-8617" stroke="#4A4A4A" points="36 15.999959 37.314209 15.592 37.763916 16.999959 39.570068 16.999959"></polyline>
                <path d="M12,28.9614 L34.64062,45.99997" id="Stroke-8619" stroke="#4A4A4A"></path>
                <path d="M16.9309,33 C19.813875,32.3333333 21.648511,32.3333333 22.434806,33 C23.61425,34 19.999992,37.688721 21.999992,39.135986 C23.999992,40.583252 37.09521,39.636719 38.5476,38.652832" id="Stroke-8621" stroke="#4A90E2"></path>
                <path d="M14.3298,38 L39.27389,42.368408" id="Stroke-8623" stroke="#E26666"></path>
                <path d="M13.5554,39.2895738 L39.99998,38.9082262" id="Stroke-8625" stroke="#F5A623"></path>
            </g>
            <g id="Group-8633" transform="translate(26.000000, 39.000000)">
                <g id="Group-8630">
                    <mask id="mask-32" fill="white">
                        <use xlink:href="#path-31"></use>
                    </mask>
                    <g id="Clip-8629"></g>
                    <polygon id="Fill-8628" fill-opacity="0.1" fill="#4A4A4A" mask="url(#mask-32)" points="-5 -5 9 -5 9 10 -5 10"></polygon>
                </g>
                <polygon id="Stroke-8631" stroke="#4A4A4A" stroke-width="0.5" stroke-linecap="round" stroke-linejoin="round" points="0 5 4 3 0 0"></polygon>
            </g>
            <g id="Group-8636" transform="translate(26.000000, 39.000000)">
                <mask id="mask-34" fill="white">
                    <use xlink:href="#path-33"></use>
                </mask>
                <g id="Clip-8635"></g>
                <polygon id="Fill-8634" fill="#F2F1EE" mask="url(#mask-34)" points="-5 -5 8 -5 8 10 -5 10"></polygon>
            </g>
            <polygon id="Stroke-8637" stroke="#4A4A4A" stroke-width="0.5" stroke-linecap="round" stroke-linejoin="round" points="26 39 26 44 29 40"></polygon>
            <g id="Group-8641" transform="translate(66.000000, 43.000000)">
                <mask id="mask-36" fill="white">
                    <use xlink:href="#path-35"></use>
                </mask>
                <g id="Clip-8640"></g>
                <polygon id="Fill-8639" fill="#F2F1EE" mask="url(#mask-36)" points="-5 -5 113 -5 113 55 -5 55"></polygon>
            </g>
            <polygon id="Stroke-8642" stroke="#4A4A4A" stroke-width="0.5" stroke-linecap="round" stroke-linejoin="round" points="66 75 111 93 174 61 129 43"></polygon>
            <g id="Group-8646" transform="translate(66.000000, 42.000000)">
                <mask id="mask-38" fill="white">
                    <use xlink:href="#path-37"></use>
                </mask>
                <g id="Clip-8645"></g>
                <polygon id="Fill-8644" fill="#F2F1EE" mask="url(#mask-38)" points="-5 -5 113 -5 113 55 -5 55"></polygon>
            </g>
            <polygon id="Stroke-8647" stroke="#4A4A4A" stroke-width="0.5" stroke-linecap="round" stroke-linejoin="round" points="66 74 111 92 174 60 129 42"></polygon>
            <g id="Group-8651" transform="translate(66.000000, 41.000000)">
                <mask id="mask-40" fill="white">
                    <use xlink:href="#path-39"></use>
                </mask>
                <g id="Clip-8650"></g>
                <polygon id="Fill-8649" fill="#F2F1EE" mask="url(#mask-40)" points="-5 -5 113 -5 113 55 -5 55"></polygon>
            </g>
            <g id="Group-8670" transform="translate(66.000000, 41.000000)" stroke-linecap="round" stroke-linejoin="round" stroke-width="0.5">
                <polygon id="Stroke-8652" stroke="#4A4A4A" points="0 32 45 50 108 18 63 0"></polygon>
                <path d="M60,2 L105,20 L60,2 Z M56,4 L101,22 L56,4 Z M52,6 L97,24 L52,6 Z M48,8 L93,26 L48,8 Z M44,10 L89,28 L44,10 Z M40,12 L85,30 L40,12 Z M36,14 L81,32 L36,14 Z M32,16 L77,34 L32,16 Z M28,18 L73,36 L28,18 Z M24,20 L69,38 L24,20 Z M20,22 L65,40 L20,22 Z M16,24 L61,42 L16,24 Z M12,26 L57,44 L12,26 Z M8,28 L53,46 L8,28 Z M4,30 L49,48 L4,30 Z" id="Stroke-8654" stroke-opacity="0.08" stroke="#4A4A4A"></path>
                <polyline id="Stroke-8656" stroke="#4A4A4A" points="67 6 69 5 70 6 72 7 73 8 75 8 76 10 79 9 81 11"></polyline>
                <polyline id="Stroke-8658" stroke="#4A4A4A" points="82 12 84 11 84 13 87 13 88 14 90 14 91 15 94 15 95 17 98 17"></polyline>
                <polyline id="Stroke-8660" stroke="#4A4A4A" points="99 18 100 18 101 19"></polyline>
                <polyline id="Stroke-8662" stroke="#4A4A4A" points="64 7 64 9 67 8 68 10 70 10 71 12 73 12 74 13 76 13 77 15"></polyline>
                <polyline id="Stroke-8664" stroke="#E26666" points="79 15 80 16 82 15 83 17 85 17"></polyline>
                <path d="M87,18 C88.333333,18 89,18 89,18 C89,18 89,18.3333333 89,19 L92,19" id="Stroke-8666" stroke="#4A4A4A"></path>
                <polyline id="Stroke-8668" stroke="#4A4A4A" points="93 21 94 20 96 22 98 21"></polyline>
            </g>
            <g id="Group-8673" transform="translate(65.000000, 38.000000)">
                <mask id="mask-42" fill="white">
                    <use xlink:href="#path-41"></use>
                </mask>
                <g id="Clip-8672"></g>
                <polygon id="Fill-8671" fill="#4A4A4A" mask="url(#mask-42)" points="-5 -5 60 -5 60 33 -5 33"></polygon>
            </g>
            <path d="M118.5,40 C117.67157,40 117,39.552285 117,39 C117,38.4477153 117.67157,38 118.5,38 C119.32843,38 120,38.4477153 120,39 C120,39.552285 119.32843,40 118.5,40 Z M114.5,42 C113.67157,42 113,41.552285 113,41 C113,40.447715 113.67157,40 114.5,40 C115.32843,40 116,40.447715 116,41 C116,41.552285 115.32843,42 114.5,42 Z M110.5,44 C109.67157,44 109,43.552285 109,43 C109,42.447715 109.67157,42 110.5,42 C111.32843,42 112,42.447715 112,43 C112,43.552285 111.32843,44 110.5,44 Z M106.5,46 C105.67157,46 105,45.552285 105,45 C105,44.447715 105.67157,44 106.5,44 C107.32843,44 108,44.447715 108,45 C108,45.552285 107.32843,46 106.5,46 Z M102.5,48 C101.67157,48 101,47.552285 101,47 C101,46.447715 101.67157,46 102.5,46 C103.32843,46 104,46.447715 104,47 C104,47.552285 103.32843,48 102.5,48 Z M98.5,50 C97.67157,50 97,49.55228 97,49 C97,48.44772 97.67157,48 98.5,48 C99.32843,48 100,48.44772 100,49 C100,49.55228 99.32843,50 98.5,50 Z M94.5,52 C93.67157,52 93,51.55228 93,51 C93,50.44772 93.67157,50 94.5,50 C95.32843,50 96,50.44772 96,51 C96,51.55228 95.32843,52 94.5,52 Z M90.5,54 C89.67157,54 89,53.55228 89,53 C89,52.44772 89.67157,52 90.5,52 C91.32843,52 92,52.44772 92,53 C92,53.55228 91.32843,54 90.5,54 Z M86.5,56 C85.67157,56 85,55.55228 85,55 C85,54.44772 85.67157,54 86.5,54 C87.32843,54 88,54.44772 88,55 C88,55.55228 87.32843,56 86.5,56 Z M82.5,58 C81.67157,58 81,57.55228 81,57 C81,56.44772 81.67157,56 82.5,56 C83.32843,56 84,56.44772 84,57 C84,57.55228 83.32843,58 82.5,58 Z M78.5,60 C77.67157,60 77,59.55228 77,59 C77,58.44772 77.67157,58 78.5,58 C79.32843,58 80,58.44772 80,59 C80,59.55228 79.32843,60 78.5,60 Z M74.5,62 C73.671573,62 73,61.55228 73,61 C73,60.44772 73.671573,60 74.5,60 C75.32843,60 76,60.44772 76,61 C76,61.55228 75.32843,62 74.5,62 Z M70.5,64 C69.671573,64 69,63.55228 69,63 C69,62.44772 69.671573,62 70.5,62 C71.328427,62 72,62.44772 72,63 C72,63.55228 71.328427,64 70.5,64 Z M66.5,66 C65.6715729,66 65,65.55228 65,65 C65,64.44772 65.6715729,64 66.5,64 C67.328427,64 68,64.44772 68,65 C68,65.55228 67.328427,66 66.5,66 Z" id="Stroke-8674" stroke="#4A4A4A" stroke-width="0.5" stroke-linecap="round" stroke-linejoin="round"></path>
            <g id="Group-8678" transform="translate(75.000000, 44.000000)">
                <mask id="mask-44" fill="white">
                    <use xlink:href="#path-43"></use>
                </mask>
                <g id="Clip-8677"></g>
                <polygon id="Fill-8676" fill="#4A4A4A" mask="url(#mask-44)" points="-5 -5 61 -5 61 33 -5 33"></polygon>
            </g>
            <g id="Group-8757" transform="translate(67.000000, 33.000000)" stroke-linecap="round" stroke-linejoin="round">
                <path d="M10,39 C8.8954305,39 8,38.55228 8,38 C8,37.44772 8.8954305,37 10,37 C11.104569,37 12,37.44772 12,38 C12,38.55228 11.104569,39 10,39 Z M14,37 C12.895431,37 12,36.55228 12,36 C12,35.44772 12.895431,35 14,35 C15.104569,35 16,35.44772 16,36 C16,36.55228 15.104569,37 14,37 Z M18,35 C16.895431,35 16,34.55228 16,34 C16,33.44772 16.895431,33 18,33 C19.10457,33 20,33.44772 20,34 C20,34.55228 19.10457,35 18,35 Z M22,33 C20.89543,33 20,32.55228 20,32 C20,31.44772 20.89543,31 22,31 C23.10457,31 24,31.44772 24,32 C24,32.55228 23.10457,33 22,33 Z M26,31 C24.89543,31 24,30.55228 24,30 C24,29.44772 24.89543,29 26,29 C27.10457,29 28,29.44772 28,30 C28,30.55228 27.10457,31 26,31 Z M30,29 C28.89543,29 28,28.55228 28,28 C28,27.44772 28.89543,27 30,27 C31.10457,27 32,27.44772 32,28 C32,28.55228 31.10457,29 30,29 Z M34,27 C32.89543,27 32,26.55228 32,26 C32,25.44772 32.89543,25 34,25 C35.10457,25 36,25.44772 36,26 C36,26.55228 35.10457,27 34,27 Z M38,25 C36.89543,25 36,24.55228 36,24 C36,23.44772 36.89543,23 38,23 C39.10457,23 40,23.44772 40,24 C40,24.55228 39.10457,25 38,25 Z M42,23 C40.89543,23 40,22.55228 40,22 C40,21.44772 40.89543,21 42,21 C43.10457,21 44,21.44772 44,22 C44,22.55228 43.10457,23 42,23 Z M46,21 C44.89543,21 44,20.552285 44,20 C44,19.447715 44.89543,19 46,19 C47.10457,19 48,19.447715 48,20 C48,20.552285 47.10457,21 46,21 Z M50,19 C48.89543,19 48,18.552285 48,18 C48,17.447715 48.89543,17 50,17 C51.10457,17 52,17.447715 52,18 C52,18.552285 51.10457,19 50,19 Z M54,17 C52.89543,17 52,16.552285 52,16 C52,15.447715 52.89543,15 54,15 C55.10457,15 56,15.447715 56,16 C56,16.552285 55.10457,17 54,17 Z M58,15 C56.89543,15 56,14.552285 56,14 C56,13.447715 56.89543,13 58,13 C59.10457,13 60,13.447715 60,14 C60,14.552285 59.10457,15 58,15 Z M62,13 C60.89543,13 60,12.552285 60,12 C60,11.4477153 60.89543,11 62,11 C63.10457,11 64,11.4477153 64,12 C64,12.552285 63.10457,13 62,13 Z" id="Stroke-8679" stroke="#4A4A4A" stroke-width="0.5"></path>
                <path d="M52,5.864745 L52,3.454915 C52,1.546818 53.546818,0 55.454915,0 C55.991274,0 56.520266,0.1248782 57,0.3647451 L57,0.3647451 C60.06433,1.89691 62,5.02889 62,8.454915 L62,11.86475" id="Stroke-8681" stroke="#4A4A4A" stroke-width="2"></path>
                <path d="M52,5.864745 L52,3.454915 C52,1.546818 53.546818,0 55.454915,0 C55.991274,0 56.520266,0.1248782 57,0.3647451 L57,0.3647451 C60.06433,1.89691 62,5.02889 62,8.454915 L62,11.86475" id="Stroke-8683" stroke="#BDBDBD"></path>
                <path d="M48,7.864745 L48,5.454915 C48,3.546818 49.546818,2 51.454915,2 C51.991274,2 52.520266,2.1248782 53,2.3647451 L53,2.3647451 C56.06433,3.89691 58,7.02889 58,10.454915 L58,13.86475" id="Stroke-8685" stroke="#4A4A4A" stroke-width="2"></path>
                <path d="M48,7.864745 L48,5.454915 C48,3.546818 49.546818,2 51.454915,2 C51.991274,2 52.520266,2.1248782 53,2.3647451 L53,2.3647451 C56.06433,3.89691 58,7.02889 58,10.454915 L58,13.86475" id="Stroke-8687" stroke="#BDBDBD"></path>
                <path d="M44,9.864745 L44,7.454915 C44,5.546818 45.546818,4 47.454915,4 C47.991274,4 48.520266,4.1248782 49,4.3647451 L49,4.3647451 C52.06433,5.89691 54,9.02889 54,12.454915 L54,15.86475" id="Stroke-8689" stroke="#4A4A4A" stroke-width="2"></path>
                <path d="M44,9.864745 L44,7.454915 C44,5.546818 45.546818,4 47.454915,4 C47.991274,4 48.520266,4.1248782 49,4.3647451 L49,4.3647451 C52.06433,5.89691 54,9.02889 54,12.454915 L54,15.86475" id="Stroke-8691" stroke="#BDBDBD"></path>
                <path d="M40,11.864745 L40,9.454915 C40,7.546818 41.546818,6 43.454915,6 C43.991274,6 44.520266,6.1248782 45,6.3647451 L45,6.3647451 C48.06433,7.89691 50,11.02889 50,14.454915 L50,17.86475" id="Stroke-8693" stroke="#4A4A4A" stroke-width="2"></path>
                <path d="M40,11.864745 L40,9.454915 C40,7.546818 41.546818,6 43.454915,6 C43.991274,6 44.520266,6.1248782 45,6.3647451 L45,6.3647451 C48.06433,7.89691 50,11.02889 50,14.454915 L50,17.86475" id="Stroke-8695" stroke="#BDBDBD"></path>
                <path d="M36,13.864745 L36,11.454915 C36,9.546818 37.546818,8 39.454915,8 C39.991274,8 40.520266,8.1248782 41,8.3647451 L41,8.3647451 C44.06433,9.89691 46,13.02889 46,16.454915 L46,19.86475" id="Stroke-8697" stroke="#4A4A4A" stroke-width="2"></path>
                <path d="M36,13.864745 L36,11.454915 C36,9.546818 37.546818,8 39.454915,8 C39.991274,8 40.520266,8.1248782 41,8.3647451 L41,8.3647451 C44.06433,9.89691 46,13.02889 46,16.454915 L46,19.86475" id="Stroke-8699" stroke="#BDBDBD"></path>
                <path d="M32,15.864745 L32,13.454915 C32,11.546818 33.546818,10 35.454915,10 C35.991274,10 36.520266,10.1248782 37,10.3647451 L37,10.3647451 C40.06433,11.89691 42,15.02889 42,18.454915 L42,21.86475" id="Stroke-8701" stroke="#4A4A4A" stroke-width="2"></path>
                <path d="M32,15.864745 L32,13.454915 C32,11.546818 33.546818,10 35.454915,10 C35.991274,10 36.520266,10.1248782 37,10.3647451 L37,10.3647451 C40.06433,11.89691 42,15.02889 42,18.454915 L42,21.86475" id="Stroke-8703" stroke="#BDBDBD"></path>
                <path d="M28,17.864745 L28,15.454915 C28,13.546818 29.546818,12 31.454915,12 C31.991274,12 32.520266,12.1248782 33,12.3647451 L33,12.3647451 C36.06433,13.89691 38,17.02889 38,20.454915 L38,23.86475" id="Stroke-8705" stroke="#4A4A4A" stroke-width="2"></path>
                <path d="M28,17.864745 L28,15.454915 C28,13.546818 29.546818,12 31.454915,12 C31.991274,12 32.520266,12.1248782 33,12.3647451 L33,12.3647451 C36.06433,13.89691 38,17.02889 38,20.454915 L38,23.86475" id="Stroke-8707" stroke="#BDBDBD"></path>
                <path d="M24,19.864745 L24,17.454915 C24,15.546818 25.546818,14 27.454915,14 C27.991274,14 28.520266,14.1248782 29,14.3647451 L29,14.3647451 C32.06433,15.89691 34,19.02889 34,22.454915 L34,25.86475" id="Stroke-8709" stroke="#4A4A4A" stroke-width="2"></path>
                <path d="M24,19.864745 L24,17.454915 C24,15.546818 25.546818,14 27.454915,14 C27.991274,14 28.520266,14.1248782 29,14.3647451 L29,14.3647451 C32.06433,15.89691 34,19.02889 34,22.454915 L34,25.86475" id="Stroke-8711" stroke="#BDBDBD"></path>
                <path d="M20,21.864745 L20,19.454915 C20,17.546818 21.546818,16 23.454915,16 C23.991274,16 24.520266,16.1248782 25,16.3647451 L25,16.3647451 C28.06433,17.89691 30,21.02889 30,24.454915 L30,27.86475" id="Stroke-8713" stroke="#4A4A4A" stroke-width="2"></path>
                <path d="M20,21.864745 L20,19.454915 C20,17.546818 21.546818,16 23.454915,16 C23.991274,16 24.520266,16.1248782 25,16.3647451 L25,16.3647451 C28.06433,17.89691 30,21.02889 30,24.454915 L30,27.86475" id="Stroke-8715" stroke="#BDBDBD"></path>
                <path d="M16,23.864745 L16,21.454915 C16,19.546818 17.546818,18 19.454915,18 C19.991274,18 20.520266,18.1248782 21,18.3647451 L21,18.3647451 C24.06433,19.89691 26,23.02889 26,26.454915 L26,29.86475" id="Stroke-8717" stroke="#4A4A4A" stroke-width="2"></path>
                <path d="M16,23.864745 L16,21.454915 C16,19.546818 17.546818,18 19.454915,18 C19.991274,18 20.520266,18.1248782 21,18.3647451 L21,18.3647451 C24.06433,19.89691 26,23.02889 26,26.454915 L26,29.86475" id="Stroke-8719" stroke="#BDBDBD"></path>
                <path d="M12,25.864745 L12,23.454915 C12,21.546818 13.546818,20 15.454915,20 C15.991274,20 16.520266,20.1248782 17,20.3647451 L17,20.3647451 C20.06433,21.89691 22,25.02889 22,28.454915 L22,31.86475" id="Stroke-8721" stroke="#4A4A4A" stroke-width="2"></path>
                <path d="M12,25.864745 L12,23.454915 C12,21.546818 13.546818,20 15.454915,20 C15.991274,20 16.520266,20.1248782 17,20.3647451 L17,20.3647451 C20.06433,21.89691 22,25.02889 22,28.454915 L22,31.86475" id="Stroke-8723" stroke="#BDBDBD"></path>
                <path d="M8,27.864745 L8,25.454915 C8,23.546818 9.546818,22 11.454915,22 C11.991274,22 12.520266,22.1248782 13,22.3647451 L13,22.3647451 C16.06433,23.89691 18,27.02889 18,30.454915 L18,33.86475" id="Stroke-8725" stroke="#4A4A4A" stroke-width="2"></path>
                <path d="M8,27.864745 L8,25.454915 C8,23.546818 9.546818,22 11.454915,22 C11.991274,22 12.520266,22.1248782 13,22.3647451 L13,22.3647451 C16.06433,23.89691 18,27.02889 18,30.454915 L18,33.86475" id="Stroke-8727" stroke="#BDBDBD"></path>
                <path d="M4,29.864745 L4,27.454915 C4,25.546818 5.546818,24 7.454915,24 C7.991274,24 8.520266,24.1248782 9,24.3647451 L9,24.3647451 C12.06433,25.89691 14,29.02889 14,32.454915 L14,35.86475" id="Stroke-8729" stroke="#4A4A4A" stroke-width="2"></path>
                <path d="M4,29.864745 L4,27.454915 C4,25.546818 5.546818,24 7.454915,24 C7.991274,24 8.520266,24.1248782 9,24.3647451 L9,24.3647451 C12.06433,25.89691 14,29.02889 14,32.454915 L14,35.86475" id="Stroke-8731" stroke="#BDBDBD"></path>
                <path d="M0,31.864745 L0,29.454915 C0,27.546818 1.546818,26 3.454915,26 C3.991274,26 4.520266,26.1248782 5,26.3647451 L5,26.3647451 C8.06433,27.89691 10,31.02889 10,34.454915 L10,37.86475" id="Stroke-8733" stroke="#4A4A4A" stroke-width="2"></path>
                <path d="M0,31.864745 L0,29.454915 C0,27.546818 1.546818,26 3.454915,26 C3.991274,26 4.520266,26.1248782 5,26.3647451 L5,26.3647451 C8.06433,27.89691 10,31.02889 10,34.454915 L10,37.86475" id="Stroke-8735" stroke="#BDBDBD"></path>
                <polyline id="Stroke-8737" stroke="#4A4A4A" stroke-width="0.5" points="59 18 61 18 61 19 64 19 64 20 67 20 67 21 68 22"></polyline>
                <polyline id="Stroke-8739" stroke="#4A4A4A" stroke-width="0.5" points="70 22 70 23 72 23 73 24 74 23 75 25 78 25 79 27 82 27"></polyline>
                <path d="M83,29 L87,29 C87,29.6666667 87,30 87,30 C87,30 88,30 90,30 L91,32" id="Stroke-8741" stroke="#4A4A4A" stroke-width="0.5"></path>
                <path d="M56,20 L59,20 L60,21 L61,21 L63,22 L64,22 C64.666667,22.666667 65,23 65,23 C65,23 65.666667,23.333333 67,24" id="Stroke-8743" stroke="#E26666" stroke-width="0.5"></path>
                <polyline id="Stroke-8745" stroke="#4A4A4A" stroke-width="0.5" points="54 22 58 22 59 24 62 24 62 25"></polyline>
                <polyline id="Stroke-8747" stroke="#4A4A4A" stroke-width="0.5" points="64 26 67 26 67 27 69 27 70 28 73 29 74 30 77 29 77 31 80 32"></polyline>
                <polyline id="Stroke-8749" stroke="#4A4A4A" stroke-width="0.5" points="49 23 52 23 52 25 55 24 55 26 57 26 60 28 63 28"></polyline>
                <path d="M65,30 L68,30 L70,32 L72,32 C72.666667,32.666667 73,33 73,33 C73,33 74,33 76,33" id="Stroke-8751" stroke="#E26666" stroke-width="0.5"></path>
                <path d="M45,26 L49,26 L50,27 L52,27 C52.666667,27.666667 53,28 53,28 C53,28 53.666667,28 55,28 L56,29" id="Stroke-8753" stroke="#4A4A4A" stroke-width="0.5"></path>
                <polyline id="Stroke-8755" stroke="#4A4A4A" stroke-width="0.5" points="58 29 58 30 60 30 60 31 63 31 65 32 67 32 67 34 70 35"></polyline>
            </g>
        </g>
    </g>
</svg>