<?xml version="1.0" encoding="UTF-8"?>
<svg width="157px" height="87px" viewBox="0 0 157 87" version="1.1" xmlns="http://www.w3.org/2000/svg" xmlns:xlink="http://www.w3.org/1999/xlink">
    <!-- Generator: Sketch 53.2 (72643) - https://sketchapp.com -->
    <title>8-0</title>
    <desc>Created with Sketch.</desc>
    <defs>
        <polygon id="path-1" points="136 25.5 147 31 59 75 3 47 4.5 46.25 0 44 3.2881 42.3559 1 41 57.25 15.375 88 0 89.4302 0.7151 91 0 107.2 9.6 136 24"></polygon>
        <polygon id="path-3" points="56 72 0 44 88 0 144 28"></polygon>
        <polygon id="path-5" points="0 41 90 0 144 32 54 73"></polygon>
        <polygon id="path-7" points="88 0 136 24 132 25 136 32 56 72 0 44"></polygon>
        <path d="M2,2 C0.8954,2 0,1.5523 0,1 C0,0.4477 0.8954,0 2,0 C3.1046,0 4,0.4477 4,1 C4,1.5523 3.1046,2 2,2 Z" id="path-9"></path>
        <path d="M2,2 C0.8954,2 0,1.5523 0,1 C0,0.4477 0.8954,0 2,0 C3.1046,0 4,0.4477 4,1 C4,1.5523 3.1046,2 2,2 Z" id="path-11"></path>
        <path d="M2,2 C0.8954,2 0,1.5523 0,1 C0,0.4477 0.8954,0 2,0 C3.1046,0 4,0.4477 4,1 C4,1.5523 3.1046,2 2,2 Z" id="path-13"></path>
        <path d="M2,2 C0.8954,2 0,1.5523 0,1 C0,0.4477 0.8954,0 2,0 C3.1046,0 4,0.4477 4,1 C4,1.5523 3.1046,2 2,2 Z" id="path-15"></path>
        <polyline id="path-17" points="88 0 136 24 132 25 136 32 56 72 0 44"></polyline>
        <polyline id="path-19" points="88 0 136 24 132 25 136 32 56 72 0 44"></polyline>
        <polyline id="path-21" points="88 0 136 24 132 25 136 32 56 72 0 44"></polyline>
        <polyline id="path-23" points="88 0 136 24 132 25 136 32 56 72 0 44"></polyline>
        <polyline id="path-25" points="88 0 136 24 132 25 136 32 56 72 0 44"></polyline>
        <polyline id="path-27" points="88 0 136 24 132 25 136 32 56 72 0 44"></polyline>
        <polyline id="path-29" points="88 0 136 24 132 25 136 32 56 72 0 44"></polyline>
        <polyline id="path-31" points="88 0 136 24 132 25 136 32 56 72 0 44"></polyline>
        <polyline id="path-33" points="88 0 136 24 132 25 136 32 56 72 0 44"></polyline>
        <polyline id="path-35" points="88 0 136 24 132 25 136 32 56 72 0 44"></polyline>
        <polyline id="path-37" points="88 0 136 24 132 25 136 32 56 72 0 44"></polyline>
        <polyline id="path-39" points="88 0 136 24 132 25 136 32 56 72 0 44"></polyline>
        <polyline id="path-41" points="88 0 136 24 132 25 136 32 56 72 0 44"></polyline>
        <polyline id="path-43" points="88 0 136 24 132 25 136 32 56 72 0 44"></polyline>
        <polyline id="path-45" points="88 0 136 24 132 25 136 32 56 72 0 44"></polyline>
        <polyline id="path-47" points="88 0 136 24 132 25 136 32 56 72 0 44"></polyline>
        <polyline id="path-49" points="88 0 136 24 132 25 136 32 56 72 0 44"></polyline>
        <polyline id="path-51" points="88 0 136 24 132 25 136 32 56 72 0 44"></polyline>
        <polygon id="path-53" points="88 0 136 24 132 25 136 32 56 72 0 44"></polygon>
        <polygon id="path-55" points="88 0 136 24 132 25 136 32 56 72 0 44"></polygon>
        <polygon id="path-57" points="88 0 136 24 132 25 136 32 56 72 0 44"></polygon>
        <polyline id="path-59" points="88 0 136 24 132 25 136 32 56 72 0 44"></polyline>
        <polyline id="path-61" points="88 0 136 24 132 25 136 32 56 72 0 44"></polyline>
        <polyline id="path-63" points="88 0 136 24 132 25 136 32 56 72 0 44"></polyline>
        <polyline id="path-65" points="88 0 136 24 132 25 136 32 56 72 0 44"></polyline>
        <polygon id="path-67" points="4 8 0 1 4 0"></polygon>
        <polygon id="path-69" points="0 0 39 0 39 4 0 4"></polygon>
        <polygon id="path-71" points="0 0 8 0 8 4 0 4"></polygon>
        <polygon id="path-73" points="0 0 3 0 3 4 0 4"></polygon>
        <polygon id="path-75" points="0 0 39 0 39 2 0 2"></polygon>
        <polygon id="path-77" points="0 0 8 0 8 4 0 4"></polygon>
        <polygon id="path-79" points="0 0 8 0 8 2 0 2"></polygon>
        <polygon id="path-81" points="0 0 2 0 2 4 0 4"></polygon>
        <polygon id="path-83" points="0 0 39 0 39 2 0 2"></polygon>
    </defs>
    <g id="8-0" stroke="none" stroke-width="1" fill="none" fill-rule="evenodd">
        <rect fill="#FFFFFF" x="0" y="0" width="157" height="87"></rect>
        <g id="Group" transform="translate(5.000000, 8.000000)">
            <g id="Group-8859" transform="translate(0.000000, 2.000000)" fill="#4A4A4A" opacity="0.1" stroke="#4A4A4A" stroke-linecap="round" stroke-linejoin="round" stroke-width="2">
                <polygon id="Stroke-8857" points="136 25.5 147 31 59 75 3 47 4.5 46.25 0 44 3.288136 42.35593 1 41 57.25 15.375 88 0 89.43023 0.7151163 91 0 107.2 9.6 136 24"></polygon>
            </g>
            <g id="Group-8862">
                <mask id="mask-2" fill="white">
                    <use xlink:href="#path-1"></use>
                </mask>
                <g id="Clip-8861"></g>
                <polygon id="Fill-8860" fill="#F2F1EE" mask="url(#mask-2)" points="-5 -5 152 -5 152 80 -5 80"></polygon>
            </g>
            <polygon id="Stroke-8863" stroke="#4A4A4A" stroke-width="2" stroke-linecap="round" stroke-linejoin="round" points="136 25.5 147 31 59 75 3 47 4.5 46.25 0 44 3.288136 42.35593 1 41 57.25 15.375 88 0 89.43023 0.7151163 91 0 107.2 9.6 136 24"></polygon>
            <g id="Group-8867" transform="translate(3.000000, 3.000000)">
                <mask id="mask-4" fill="white">
                    <use xlink:href="#path-3"></use>
                </mask>
                <g id="Clip-8866"></g>
                <polygon id="Fill-8865" fill="#F2F1EE" mask="url(#mask-4)" points="-5 -5 149 -5 149 77 -5 77"></polygon>
            </g>
            <polygon id="Stroke-8868" stroke="#4A4A4A" stroke-width="0.5" stroke-linecap="round" stroke-linejoin="round" points="59 75 147 31 91 3 3 47"></polygon>
            <g id="Group-8872" transform="translate(1.000000, 0.000000)">
                <mask id="mask-6" fill="white">
                    <use xlink:href="#path-5"></use>
                </mask>
                <g id="Clip-8871"></g>
                <polygon id="Fill-8870" fill="#F2F1EE" mask="url(#mask-6)" points="-5 -5 149 -5 149 78 -5 78"></polygon>
            </g>
            <polygon id="Stroke-8873" stroke="#4A4A4A" stroke-width="0.5" stroke-linecap="round" stroke-linejoin="round" points="1 41 55 73 145 32 91 0"></polygon>
            <g id="Group-8992">
                <g id="Group-8903">
                    <mask id="mask-8" fill="white">
                        <use xlink:href="#path-7"></use>
                    </mask>
                    <g id="Clip-8876"></g>
                    <polygon id="Fill-8875" fill="#F2F1EE" mask="url(#mask-8)" points="-5 -5 141 -5 141 77 -5 77"></polygon>
                    <path d="M104,40 L96,36 L104,32 L96,28 L104,24 L96,20 L88,24 L80,20 L72,24 L64,20 L56,24 L52,22 L56,24 L64,20 L72,24 L80,20 L88,24 L96,20 L88,16 L96,12 L104,16 L96,20 L88,16 L80,20 L72,16 L64,20 L60,18 L64,20 L72,16 L80,20 L88,16 L80,12 L72,16 L68,14 L72,16 L80,12 L88,16 L96,12 L104,16 L108,14 L104,16 L112,20 L116,18 L112,20 L120,24 L124,22 L120,24 L128,28 L132,26 L128,28 L132,30 L128,28 L120,32 L124,34 L120,32 L112,36 L104,32 L96,36 L88,32 L80,36 L88,40 L80,44 L88,48 L80,52 L84,54 L80,52 L72,56 L64,52 L72,48 L64,44 L56,48 L64,52 L56,56 L64,60 L56,64 L48,60 L44,62 L48,60 L40,56 L48,52 L56,56 L64,52 L56,48 L64,44 L56,40 L48,44 L56,48 L48,52 L56,56 L48,60 L56,64 L52,66 L56,64 L60,66 L56,64 L64,60 L68,62 L64,60 L72,56 L64,52 L72,48 L80,52 L88,48 L92,50 L88,48 L96,44 L88,40 L96,36 L88,32 L96,28 L104,32 L112,28 L104,24 L112,20 L104,16 L96,20 L104,24 L112,20 L120,24 L112,28 L120,32 L128,28 L120,24 L112,28 L120,32 L112,36 L116,38 L112,36 L104,40 L108,42 L104,40 L96,44 L100,46 L96,44 L88,48 L80,44 L72,48 L80,52 L72,56 L76,58 L72,56 L64,60 L56,56 L48,60 L40,56 L48,52 L40,48 L48,44 L40,40 L32,44 L40,48 L48,44 L56,48 L48,52 L40,48 L32,52 L40,56 L36,58 L40,56 L32,52 L40,48 L32,44 L24,48 L32,52 L28,54 L32,52 L24,48 L20,50 L24,48 L16,44 L24,40 L32,44 L24,48 L16,44 L12,46 L16,44 L12,42 L16,44 L24,40 L32,44 L40,40 L32,36 L24,40 L20,38 L24,40 L32,36 L40,40 L48,36 L56,40 L48,44 L40,40 L48,36 L40,32 L32,36 L28,34 L32,36 L40,32 L48,36 L56,32 L48,28 L40,32 L36,30 L40,32 L48,28 L56,32 L64,28 L72,32 L80,28 L72,24 L64,28 L56,24 L48,28 L44,26 L48,28 L56,24 L64,28 L72,24 L80,28 L88,24 L96,28 L104,24 L112,28 L104,32 L112,36 L104,40 L96,36 L88,40 L96,44 L104,40 Z M72,48 L80,44 L72,40 L80,36 L72,32 L80,28 L88,32 L96,28 L88,24 L80,28 L88,32 L80,36 L88,40 L80,44 L72,40 L80,36 L72,32 L64,36 L72,40 L64,44 L56,40 L64,36 L56,32 L48,36 L56,40 L64,36 L56,32 L64,28 L72,32 L64,36 L72,40 L64,44 L72,48 Z M96,12 L100,10 L96,12 L88,8 L92,6 L88,8 L84,6 L88,8 L80,12 L76,10 L80,12 L88,8 L96,12 Z" id="Stroke-8877" stroke="#D0EADE" stroke-width="0.5" stroke-linecap="round" stroke-linejoin="round" mask="url(#mask-8)"></path>
                    <path d="M88,12 L96,16 L104,12 L96,16 L104,20 L112,16 L104,20 L112,24 L120,20 L112,24 L104,20 L96,24 L104,28 L96,32 L104,36 L112,32 L120,36 L112,32 L104,36 L96,32 L104,28 L112,32 L120,28 L128,32 L120,28 L128,24 L120,28 L112,24 L104,28 L112,32 L120,28 L112,24 L104,28 L96,24 L88,28 L96,32 L88,36 L96,40 L104,36 L112,40 L104,36 L96,40 L88,36 L96,32 L88,28 L96,24 L88,20 L96,16 L104,20 L96,24 L88,20 L80,24 L88,28 L80,32 L72,28 L64,32 L72,36 L80,32 L88,36 L80,40 L72,36 L80,32 L72,28 L64,32 L56,28 L48,32 L56,36 L48,40 L40,36 L32,40 L24,36 L32,40 L40,36 L32,32 L40,36 L48,32 L56,36 L48,40 L56,44 L48,48 L56,52 L48,56 L56,60 L64,56 L72,60 L64,56 L56,60 L64,64 L56,60 L48,64 L56,60 L48,56 L40,60 L48,56 L40,52 L32,56 L40,52 L48,56 L56,52 L48,48 L40,52 L32,48 L24,52 L32,48 L40,52 L48,48 L40,44 L32,48 L24,44 L16,48 L24,44 L32,48 L40,44 L48,48 L56,44 L48,40 L40,44 L32,40 L24,44 L16,40 L24,44 L32,40 L40,44 L48,40 L40,36 L48,32 L40,28 L48,32 L56,28 L48,24 L56,28 L64,24 L72,28 L80,24 L88,28 L80,32 L88,36 L80,40 L88,44 L96,40 L104,44 L96,40 L88,44 L80,40 L72,44 L80,48 L88,44 L96,48 L88,44 L80,48 L72,44 L80,40 L72,36 L64,40 L72,44 L64,48 L72,52 L80,48 L88,52 L80,48 L72,52 L64,48 L72,44 L64,40 L72,36 L64,32 L56,36 L64,40 L56,44 L64,48 L56,52 L64,56 L72,52 L80,56 L72,52 L64,56 L56,52 L64,48 L56,44 L64,40 L56,36 L64,32 L56,28 L64,24 L72,28 L80,24 L72,20 L64,24 L56,20 L64,24 L72,20 L80,24 L88,20 L80,16 L88,12 L96,16 L88,20 L80,16 L72,20 L64,16 L72,20 L80,16 L72,12 L80,16 L88,12 L80,8 L88,12 L96,8 L88,12 Z M88,4 L136,28 L88,4 Z M8,44 L56,68 L8,44 Z M56,68 L136,28 L56,68 Z M8,44 L88,4 L8,44 Z" id="Stroke-8878" stroke="#BEDDD0" stroke-width="0.5" stroke-linecap="round" stroke-linejoin="round" mask="url(#mask-8)"></path>
                    <polygon id="Stroke-8879" stroke="#929B97" stroke-width="0.5" stroke-linecap="round" stroke-linejoin="round" mask="url(#mask-8)" points="82 15 98 23 86 29 70 21"></polygon>
                    <path d="M80,16 L84,16" id="Stroke-8880" stroke="#929B97" stroke-width="0.5" stroke-linecap="round" stroke-linejoin="round" mask="url(#mask-8)"></path>
                    <path d="M76,18 L88,18" id="Stroke-8881" stroke="#929B97" stroke-width="0.5" stroke-linecap="round" stroke-linejoin="round" mask="url(#mask-8)"></path>
                    <path d="M72,20 L92,20" id="Stroke-8882" stroke="#929B97" stroke-width="0.5" stroke-linecap="round" stroke-linejoin="round" mask="url(#mask-8)"></path>
                    <path d="M70,21 L94,21" id="Stroke-8883" stroke="#929B97" stroke-width="0.5" stroke-linecap="round" stroke-linejoin="round" mask="url(#mask-8)"></path>
                    <path d="M74,19 L90,19" id="Stroke-8884" stroke="#929B97" stroke-width="0.5" stroke-linecap="round" stroke-linejoin="round" mask="url(#mask-8)"></path>
                    <path d="M78,17 L86,17" id="Stroke-8885" stroke="#929B97" stroke-width="0.5" stroke-linecap="round" stroke-linejoin="round" mask="url(#mask-8)"></path>
                    <path d="M72,22 L96,22" id="Stroke-8886" stroke="#929B97" stroke-width="0.5" stroke-linecap="round" stroke-linejoin="round" mask="url(#mask-8)"></path>
                    <path d="M74,23 L98,23" id="Stroke-8887" stroke="#929B97" stroke-width="0.5" stroke-linecap="round" stroke-linejoin="round" mask="url(#mask-8)"></path>
                    <path d="M76,24 L96,24" id="Stroke-8888" stroke="#929B97" stroke-width="0.5" stroke-linecap="round" stroke-linejoin="round" mask="url(#mask-8)"></path>
                    <path d="M78,25 L94,25" id="Stroke-8889" stroke="#929B97" stroke-width="0.5" stroke-linecap="round" stroke-linejoin="round" mask="url(#mask-8)"></path>
                    <path d="M80,26 L92,26" id="Stroke-8890" stroke="#929B97" stroke-width="0.5" stroke-linecap="round" stroke-linejoin="round" mask="url(#mask-8)"></path>
                    <path d="M82,27 L90,27" id="Stroke-8891" stroke="#929B97" stroke-width="0.5" stroke-linecap="round" stroke-linejoin="round" mask="url(#mask-8)"></path>
                    <path d="M84,28 L88,28" id="Stroke-8892" stroke="#929B97" stroke-width="0.5" stroke-linecap="round" stroke-linejoin="round" mask="url(#mask-8)"></path>
                    <path d="M66,39 L106,19" id="Stroke-8893" stroke="#737373" stroke-width="0.5" stroke-linecap="round" stroke-linejoin="round" mask="url(#mask-8)"></path>
                    <path d="M106,21 L86,11" id="Stroke-8894" stroke="#737373" stroke-width="0.5" stroke-linecap="round" stroke-linejoin="round" mask="url(#mask-8)"></path>
                    <path d="M90,11 L50,31" id="Stroke-8895" stroke="#737373" stroke-width="0.5" stroke-linecap="round" stroke-linejoin="round" mask="url(#mask-8)"></path>
                    <path d="M50,29 L70,39" id="Stroke-8896" stroke="#737373" stroke-width="0.5" stroke-linecap="round" stroke-linejoin="round" mask="url(#mask-8)"></path>
                    <path d="M70,39 L106,21" id="Stroke-8897" stroke="#737373" stroke-width="0.5" stroke-linecap="round" stroke-linejoin="round" stroke-dasharray="1,2" mask="url(#mask-8)"></path>
                    <path d="M50,29 L86,11" id="Stroke-8898" stroke="#737373" stroke-width="0.5" stroke-linecap="round" stroke-linejoin="round" stroke-dasharray="1,2" mask="url(#mask-8)"></path>
                    <path d="M50,31 L66,39" id="Stroke-8899" stroke="#737373" stroke-width="0.5" stroke-linecap="round" stroke-linejoin="round" stroke-dasharray="1,2" mask="url(#mask-8)"></path>
                    <path d="M90,11 L106,19" id="Stroke-8900" stroke="#737373" stroke-width="0.5" stroke-linecap="round" stroke-linejoin="round" stroke-dasharray="1,2" mask="url(#mask-8)"></path>
                    <path d="M80,12 L104,24" id="Stroke-8901" stroke="#4A90E2" stroke-width="0.5" stroke-linecap="round" stroke-linejoin="round" mask="url(#mask-8)"></path>
                    <path d="M52,26 L76,38" id="Stroke-8902" stroke="#4A90E2" stroke-width="0.5" stroke-linecap="round" stroke-linejoin="round" mask="url(#mask-8)"></path>
                </g>
                <g id="Group-8906" transform="translate(54.000000, 29.000000)">
                    <mask id="mask-10" fill="white">
                        <use xlink:href="#path-9"></use>
                    </mask>
                    <g id="Clip-8905"></g>
                    <path d="M2,2 C3.104569,2 4,1.552285 4,1 C4,0.4477153 3.104569,0 2,0 C0.8954305,0 0,0.4477153 0,1 C0,1.552285 0.8954305,2 2,2 Z" id="Stroke-8904" stroke="#929B97" stroke-linecap="round" stroke-linejoin="round" mask="url(#mask-10)"></path>
                </g>
                <g id="Group-8909" transform="translate(58.000000, 31.000000)">
                    <mask id="mask-12" fill="white">
                        <use xlink:href="#path-11"></use>
                    </mask>
                    <g id="Clip-8908"></g>
                    <path d="M2,2 C3.104569,2 4,1.552285 4,1 C4,0.4477153 3.104569,0 2,0 C0.8954305,0 0,0.4477153 0,1 C0,1.552285 0.8954305,2 2,2 Z" id="Stroke-8907" stroke="#929B97" stroke-linecap="round" stroke-linejoin="round" mask="url(#mask-12)"></path>
                </g>
                <g id="Group-8912" transform="translate(62.000000, 33.000000)">
                    <mask id="mask-14" fill="white">
                        <use xlink:href="#path-13"></use>
                    </mask>
                    <g id="Clip-8911"></g>
                    <path d="M2,2 C3.104569,2 4,1.552285 4,1 C4,0.4477153 3.104569,0 2,0 C0.8954305,0 0,0.4477153 0,1 C0,1.552285 0.8954305,2 2,2 Z" id="Stroke-8910" stroke="#929B97" stroke-linecap="round" stroke-linejoin="round" mask="url(#mask-14)"></path>
                </g>
                <g id="Group-8915" transform="translate(66.000000, 35.000000)">
                    <mask id="mask-16" fill="white">
                        <use xlink:href="#path-15"></use>
                    </mask>
                    <g id="Clip-8914"></g>
                    <path d="M2,2 C3.104569,2 4,1.552285 4,1 C4,0.4477153 3.104569,0 2,0 C0.8954305,0 0,0.4477153 0,1 C0,1.552285 0.8954305,2 2,2 Z" id="Stroke-8913" stroke="#929B97" stroke-linecap="round" stroke-linejoin="round" mask="url(#mask-16)"></path>
                </g>
                <g id="Group-8991">
                    <g id="Group-8918">
                        <mask id="mask-18" fill="white">
                            <use xlink:href="#path-17"></use>
                        </mask>
                        <g id="Clip-8917"></g>
                        <polyline id="Stroke-8916" stroke="#929B97" stroke-width="0.5" stroke-linecap="round" stroke-linejoin="round" mask="url(#mask-18)" points="88 32 90 32 90 33 91 33 91.5 34 93 34"></polyline>
                    </g>
                    <g id="Group-8921">
                        <mask id="mask-20" fill="white">
                            <use xlink:href="#path-19"></use>
                        </mask>
                        <g id="Clip-8920"></g>
                        <polyline id="Stroke-8919" stroke="#929B97" stroke-width="0.5" stroke-linecap="round" stroke-linejoin="round" mask="url(#mask-20)" points="21 44 23 44 23 45 24 45 24.5 46 26 46"></polyline>
                    </g>
                    <g id="Group-8924">
                        <mask id="mask-22" fill="white">
                            <use xlink:href="#path-21"></use>
                        </mask>
                        <g id="Clip-8923"></g>
                        <polyline id="Stroke-8922" stroke="#929B97" stroke-width="0.5" stroke-linecap="round" stroke-linejoin="round" mask="url(#mask-22)" points="97 12 99 12 99 13 100 13 100.5 14 102 14"></polyline>
                    </g>
                    <g id="Group-8927">
                        <mask id="mask-24" fill="white">
                            <use xlink:href="#path-23"></use>
                        </mask>
                        <g id="Clip-8926"></g>
                        <polyline id="Stroke-8925" stroke="#929B97" stroke-width="0.5" stroke-linecap="round" stroke-linejoin="round" mask="url(#mask-24)" points="86 33 87 34 88 34 89 35 90 35 92 36"></polyline>
                    </g>
                    <g id="Group-8930">
                        <mask id="mask-26" fill="white">
                            <use xlink:href="#path-25"></use>
                        </mask>
                        <g id="Clip-8929"></g>
                        <path d="M70,23 L76,26" id="Stroke-8928" stroke="#929B97" stroke-width="0.5" stroke-linecap="round" stroke-linejoin="round" mask="url(#mask-26)"></path>
                    </g>
                    <g id="Group-8933">
                        <mask id="mask-28" fill="white">
                            <use xlink:href="#path-27"></use>
                        </mask>
                        <g id="Clip-8932"></g>
                        <path d="M68,24 L80,30" id="Stroke-8931" stroke="#929B97" stroke-width="0.5" stroke-linecap="round" stroke-linejoin="round" mask="url(#mask-28)"></path>
                    </g>
                    <g id="Group-8936">
                        <mask id="mask-30" fill="white">
                            <use xlink:href="#path-29"></use>
                        </mask>
                        <g id="Clip-8935"></g>
                        <path d="M66,25 L76,30" id="Stroke-8934" stroke="#929B97" stroke-width="0.5" stroke-linecap="round" stroke-linejoin="round" mask="url(#mask-30)"></path>
                    </g>
                    <g id="Group-8939">
                        <mask id="mask-32" fill="white">
                            <use xlink:href="#path-31"></use>
                        </mask>
                        <g id="Clip-8938"></g>
                        <path d="M90,16 L96,19" id="Stroke-8937" stroke="#737373" stroke-width="0.5" stroke-linecap="round" stroke-linejoin="round" mask="url(#mask-32)"></path>
                    </g>
                    <g id="Group-8942">
                        <mask id="mask-34" fill="white">
                            <use xlink:href="#path-33"></use>
                        </mask>
                        <g id="Clip-8941"></g>
                        <path d="M70,29 L79,43" id="Stroke-8940" stroke="#E97483" stroke-width="0.5" stroke-linecap="round" stroke-linejoin="round" mask="url(#mask-34)"></path>
                    </g>
                    <g id="Group-8945">
                        <mask id="mask-36" fill="white">
                            <use xlink:href="#path-35"></use>
                        </mask>
                        <g id="Clip-8944"></g>
                        <path d="M99,20 L112,22" id="Stroke-8943" stroke="#E97483" stroke-width="0.5" stroke-linecap="round" stroke-linejoin="round" mask="url(#mask-36)"></path>
                    </g>
                    <g id="Group-8948">
                        <mask id="mask-38" fill="white">
                            <use xlink:href="#path-37"></use>
                        </mask>
                        <g id="Clip-8947"></g>
                        <polyline id="Stroke-8946" stroke="#929B97" stroke-width="0.5" stroke-linecap="round" stroke-linejoin="round" mask="url(#mask-38)" points="74 43 76 43 77 44 78 45 80 45 81 46 81 47 83 47"></polyline>
                    </g>
                    <g id="Group-8951">
                        <mask id="mask-40" fill="white">
                            <use xlink:href="#path-39"></use>
                        </mask>
                        <g id="Clip-8950"></g>
                        <polyline id="Stroke-8949" stroke="#929B97" stroke-width="0.5" stroke-linecap="round" stroke-linejoin="round" mask="url(#mask-40)" points="72 44 73 46 75 46 76 47 78 47 79 49 81 49 82 50"></polyline>
                    </g>
                    <g id="Group-8954">
                        <mask id="mask-42" fill="white">
                            <use xlink:href="#path-41"></use>
                        </mask>
                        <g id="Clip-8953"></g>
                        <polyline id="Stroke-8952" stroke="#929B97" stroke-width="0.5" stroke-linecap="round" stroke-linejoin="round" mask="url(#mask-42)" points="46 60 47 62 49 62 50 63 52 63 53 65 55 65 56 66"></polyline>
                    </g>
                    <g id="Group-8957">
                        <mask id="mask-44" fill="white">
                            <use xlink:href="#path-43"></use>
                        </mask>
                        <g id="Clip-8956"></g>
                        <polyline id="Stroke-8955" stroke="#929B97" stroke-width="0.5" stroke-linecap="round" stroke-linejoin="round" mask="url(#mask-44)" points="114 22 117 22 117 23 120 23 121 25 122 25 123 27 125 27"></polyline>
                    </g>
                    <g id="Group-8960">
                        <mask id="mask-46" fill="white">
                            <use xlink:href="#path-45"></use>
                        </mask>
                        <g id="Clip-8959"></g>
                        <polyline id="Stroke-8958" stroke="#929B97" stroke-width="0.5" stroke-linecap="round" stroke-linejoin="round" mask="url(#mask-46)" points="113 24 115 24 115 25 117 25 119 27 121 27 122 29"></polyline>
                    </g>
                    <g id="Group-8963">
                        <mask id="mask-48" fill="white">
                            <use xlink:href="#path-47"></use>
                        </mask>
                        <g id="Clip-8962"></g>
                        <polyline id="Stroke-8961" stroke="#929B97" stroke-width="0.5" stroke-linecap="round" stroke-linejoin="round" mask="url(#mask-48)" points="49 59 51 59 51 60 53 60 55 62 57 62 58 64"></polyline>
                    </g>
                    <g id="Group-8966">
                        <mask id="mask-50" fill="white">
                            <use xlink:href="#path-49"></use>
                        </mask>
                        <g id="Clip-8965"></g>
                        <polyline id="Stroke-8964" stroke="#E97483" stroke-width="0.5" stroke-linecap="round" stroke-linejoin="round" mask="url(#mask-50)" points="56 36 48 40 40 36 32 40"></polyline>
                    </g>
                    <g id="Group-8969">
                        <mask id="mask-52" fill="white">
                            <use xlink:href="#path-51"></use>
                        </mask>
                        <g id="Clip-8968"></g>
                        <polyline id="Stroke-8967" stroke="#E97483" stroke-width="0.5" stroke-linecap="round" stroke-linejoin="round" mask="url(#mask-52)" points="40 44 48 40 56 44 48 48"></polyline>
                    </g>
                    <g id="Group-8972">
                        <mask id="mask-54" fill="white">
                            <use xlink:href="#path-53"></use>
                        </mask>
                        <g id="Clip-8971"></g>
                        <polygon id="Stroke-8970" stroke="#4A90E2" stroke-width="0.5" stroke-linecap="round" stroke-linejoin="round" mask="url(#mask-54)" points="40 50 44 48 48 50 44 52"></polygon>
                    </g>
                    <g id="Group-8975">
                        <mask id="mask-56" fill="white">
                            <use xlink:href="#path-55"></use>
                        </mask>
                        <g id="Clip-8974"></g>
                        <polygon id="Stroke-8973" stroke="#4A90E2" stroke-width="0.5" stroke-linecap="round" stroke-linejoin="round" mask="url(#mask-56)" points="32 46 36 44 40 46 36 48"></polygon>
                    </g>
                    <g id="Group-8978">
                        <mask id="mask-58" fill="white">
                            <use xlink:href="#path-57"></use>
                        </mask>
                        <g id="Clip-8977"></g>
                        <polygon id="Stroke-8976" stroke="#4A90E2" stroke-width="0.5" stroke-linecap="round" stroke-linejoin="round" mask="url(#mask-58)" points="24 42 28 40 32 42 28 44"></polygon>
                    </g>
                    <g id="Group-8981">
                        <mask id="mask-60" fill="white">
                            <use xlink:href="#path-59"></use>
                        </mask>
                        <g id="Clip-8980"></g>
                        <polyline id="Stroke-8979" stroke="#929B97" stroke-width="0.5" stroke-linecap="round" stroke-linejoin="round" mask="url(#mask-60)" points="29 48 31 48 31 49 33 49 33 50 34 50"></polyline>
                    </g>
                    <g id="Group-8984">
                        <mask id="mask-62" fill="white">
                            <use xlink:href="#path-61"></use>
                        </mask>
                        <g id="Clip-8983"></g>
                        <polyline id="Stroke-8982" stroke="#929B97" stroke-width="0.5" stroke-linecap="round" stroke-linejoin="round" mask="url(#mask-62)" points="87 2 89 2 89 3 91 3 91 4 92 4"></polyline>
                    </g>
                    <g id="Group-8987">
                        <mask id="mask-64" fill="white">
                            <use xlink:href="#path-63"></use>
                        </mask>
                        <g id="Clip-8986"></g>
                        <polyline id="Stroke-8985" stroke="#929B97" stroke-width="0.5" stroke-linecap="round" stroke-linejoin="round" mask="url(#mask-64)" points="38 52 40 52 40 53 41 53 42 54 43 55"></polyline>
                    </g>
                    <g id="Group-8990">
                        <mask id="mask-66" fill="white">
                            <use xlink:href="#path-65"></use>
                        </mask>
                        <g id="Clip-8989"></g>
                        <path d="M44,50 L72,48" id="Stroke-8988" stroke="#E97483" stroke-width="0.5" stroke-linecap="round" stroke-linejoin="round" mask="url(#mask-66)"></path>
                    </g>
                </g>
            </g>
            <polygon id="Stroke-8993" stroke="#4A4A4A" stroke-width="0.5" stroke-linecap="round" stroke-linejoin="round" points="88 0 0 44 56 72 136 32 132 25 136 24"></polygon>
            <g id="Group-8997" transform="translate(132.000000, 24.000000)">
                <mask id="mask-68" fill="white">
                    <use xlink:href="#path-67"></use>
                </mask>
                <g id="Clip-8996"></g>
                <polygon id="Fill-8995" fill="#D8D8D7" mask="url(#mask-68)" points="-5 -5 9 -5 9 13 -5 13"></polygon>
            </g>
            <g id="Group-9004" transform="translate(68.000000, 24.000000)" stroke="#4A4A4A" stroke-linecap="round" stroke-linejoin="round">
                <polygon id="Stroke-8998" stroke-width="0.5" points="68 8 68 0 64 1"></polygon>
                <polygon id="Stroke-9000" stroke-width="2" points="31 17 31 21 39 21 39 17"></polygon>
                <polyline id="Stroke-9002" stroke-width="1.5" points="29.82353 17 29.82353 15 38.23529 15 38.23529 17 39 17 39 21 0 21 0 17 36.70588 17"></polyline>
            </g>
            <g id="Group-9007" transform="translate(68.000000, 41.000000)">
                <mask id="mask-70" fill="white">
                    <use xlink:href="#path-69"></use>
                </mask>
                <g id="Clip-9006"></g>
                <polygon id="Fill-9005" fill="#F18C98" mask="url(#mask-70)" points="-5 -5 44 -5 44 9 -5 9"></polygon>
            </g>
            <g id="Group-9010" transform="translate(68.000000, 41.000000)">
                <mask id="mask-72" fill="white">
                    <use xlink:href="#path-71"></use>
                </mask>
                <g id="Clip-9009"></g>
                <polygon id="Fill-9008" fill="#E2DCDD" mask="url(#mask-72)" points="-5 -5 13 -5 13 9 -5 9"></polygon>
            </g>
            <g id="Group-9013" transform="translate(68.000000, 41.000000)">
                <mask id="mask-74" fill="white">
                    <use xlink:href="#path-73"></use>
                </mask>
                <g id="Clip-9012"></g>
                <polygon id="Fill-9011" fill="#EAE6E7" mask="url(#mask-74)" points="-5 -5 8 -5 8 9 -5 9"></polygon>
            </g>
            <g id="Group-9019" transform="translate(68.000000, 45.000000)">
                <g id="Group-9016">
                    <mask id="mask-76" fill="white">
                        <use xlink:href="#path-75"></use>
                    </mask>
                    <g id="Clip-9015"></g>
                    <polygon id="Fill-9014" fill-opacity="0.1" fill="#4A4A4A" mask="url(#mask-76)" points="-5 -5 44 -5 44 7 -5 7"></polygon>
                </g>
            </g>
            <g id="Group-9022" transform="translate(99.000000, 41.000000)">
                <mask id="mask-78" fill="white">
                    <use xlink:href="#path-77"></use>
                </mask>
                <g id="Clip-9021"></g>
                <polygon id="Fill-9020" fill="#E76373" mask="url(#mask-78)" points="-5 -5 13 -5 13 9 -5 9"></polygon>
            </g>
            <g id="Group-9025" transform="translate(98.000000, 39.000000)">
                <mask id="mask-80" fill="white">
                    <use xlink:href="#path-79"></use>
                </mask>
                <g id="Clip-9024"></g>
                <polygon id="Fill-9023" fill="#E2DCDD" mask="url(#mask-80)" points="-5 -5 13 -5 13 7 -5 7"></polygon>
            </g>
            <g id="Group-9028" transform="translate(99.000000, 41.000000)">
                <mask id="mask-82" fill="white">
                    <use xlink:href="#path-81"></use>
                </mask>
                <g id="Clip-9027"></g>
                <polygon id="Fill-9026" fill="#F4B8BF" mask="url(#mask-82)" points="-5 -5 7 -5 7 9 -5 9"></polygon>
            </g>
            <g id="Group-9031" transform="translate(68.000000, 41.000000)">
                <mask id="mask-84" fill="white">
                    <use xlink:href="#path-83"></use>
                </mask>
                <g id="Clip-9030"></g>
                <polygon id="Fill-9029" fill-opacity="0.3" fill="#FFFFFF" mask="url(#mask-84)" points="-5 -5 44 -5 44 7 -5 7"></polygon>
            </g>
            <g id="Group-9036" transform="translate(68.000000, 39.000000)" stroke="#4A4A4A" stroke-linecap="round" stroke-linejoin="round" stroke-width="0.5">
                <polyline id="Stroke-9032" points="29.82353 2 29.82353 0 38.23529 0 38.23529 2 39 2 39 6 0 6 0 2 36.70588 2"></polyline>
                <path d="M31.5,2 L31.5,6" id="Stroke-9034"></path>
            </g>
        </g>
    </g>
</svg>