<?xml version="1.0" encoding="UTF-8"?>
<svg width="148px" height="85px" viewBox="0 0 148 85" version="1.1" xmlns="http://www.w3.org/2000/svg" xmlns:xlink="http://www.w3.org/1999/xlink">
    <!-- Generator: Sketch 53.2 (72643) - https://sketchapp.com -->
    <title>9-0</title>
    <desc>Created with Sketch.</desc>
    <g id="9-0" stroke="none" stroke-width="1" fill="none" fill-rule="evenodd">
        <rect fill="#FFFFFF" x="0" y="0" width="148" height="85"></rect>
        <rect id="Rectangle" fill="#ABD6FF" x="-7" y="-10" width="163" height="109"></rect>
        <g id="Group-4" transform="translate(10.000000, 15.000000)">
            <g id="element/board" stroke-linecap="round" stroke-linejoin="round">
                <g id="图形/绘图板">
                    <g id="Group-3" stroke="#4A4A4A">
                        <polygon id="Path-11" stroke-width="4" points="72 0 0 36 0 37 56 65 128 29 128 28"></polygon>
                        <polygon id="Path-18" stroke-width="0.5" fill="#55896B" points="0 36 72 0 128 28 56 64"></polygon>
                        <polygon id="Path-19" stroke-width="0.5" fill="#4A4A4A" points="0 36 0 37 56 65 56 64"></polygon>
                        <polygon id="Path-20" stroke-width="0.5" fill="#4A4A4A" points="56 65 128 29 128 28 56 64"></polygon>
                    </g>
                    <g id="Group-2" transform="translate(6.000000, 3.000000)" stroke="#6D9D8D" stroke-width="0.5">
                        <path d="M0,34 L68,0" id="Path-21"></path>
                        <path d="M8,38 L76,4" id="Path-21-Copy"></path>
                        <path d="M16,42 L84,8" id="Path-21-Copy-2"></path>
                        <path d="M24,46 L92,12" id="Path-21-Copy-3"></path>
                        <path d="M32,50 L100,16" id="Path-21-Copy-4"></path>
                        <path d="M40,54 L108,20" id="Path-21-Copy-5"></path>
                        <path d="M48,58 L116,24" id="Path-21-Copy-6"></path>
                        <path d="M82,9 C73.163444,9 66,12.581722 66,17 C66,21.418278 73.163444,25 82,25 L82,25 C90.836556,25 98,21.418278 98,17" id="Path"></path>
                        <path d="M74,5 L94,35" id="Path-3"></path>
                        <path d="M98,17 L34,17" id="Path-4"></path>
                        <path d="M10,29 L94,15" id="Path-5"></path>
                        <path d="M82,9 L82,41" id="Path-6"></path>
                        <path d="M64,0 L116,26" id="Path-7"></path>
                        <path d="M56,4 L58,5" id="Path-8"></path>
                        <path d="M66,9 L108,30" id="Path-9"></path>
                        <path d="M48,8 L100,34" id="Path-10"></path>
                        <path d="M40,12 L92,38" id="Path-10-Copy"></path>
                        <path d="M32,16 L84,42" id="Path-10-Copy-2"></path>
                        <path d="M24,20 L76,46" id="Path-10-Copy-3"></path>
                        <path d="M16,24 L68,50" id="Path-10-Copy-4"></path>
                        <path d="M8,28 L60,54" id="Path-10-Copy-5"></path>
                        <path d="M0,32 L52,58" id="Path-10-Copy-6"></path>
                    </g>
                </g>
            </g>
            <g id="element/mouse" transform="translate(46.000000, 17.000000)">
                <g id="图形/Magic-Mouse">
                    <path d="M28.8858332,8.5389915 C29.9931719,8.059151 31.0266819,7.6531395 31.9863619,7.320957 C32.4801019,7.150056 32.8873519,6.792728 33.1210119,6.32541 C33.1491985,6.26903746 33.1744729,6.21197015 33.1968922,6.15437914 C33.2129332,7.400064 32.5313352,8.60549692 31.3423319,9.2 L12.9200409,18.41115 C10.6678209,19.53726 8.01684293,19.53726 5.76462293,18.41115 L5.01839457,18.0380344 C5.01769799,18.0376864 5.01700144,18.0373383 5.01630493,18.03699 L2.21202393,16.63485 C0.236107934,15.64689 -0.564790066,13.2442 0.423167934,11.26828 C0.642306934,10.83 0.940111934,10.43572 1.30174793,10.10507 C4.33447993,7.332185 7.68134193,5.030495 11.3423319,3.2 C15.7716619,0.9853344 19.7411719,-0.0797818901 23.2508619,0.00465112793 C24.4275219,0.0329592899 25.5834319,0.3205522 26.6361719,0.8469207 L32.2265919,3.642147 C33.2145419,4.136122 33.6149919,5.33746 33.1210119,6.32541 C32.8873519,6.792728 32.4801019,7.150056 31.9863619,7.320957 C31.0266819,7.6531395 29.9931719,8.059151 28.8858332,8.5389915 Z" id="Combined-Shape" stroke="#4A4A4A" stroke-width="2" fill="#EAEAEA" stroke-linecap="round" stroke-linejoin="round"></path>
                    <path d="M1.10601099,17.8445782 L5.95059299,20.2668782 C8.20281199,21.3929882 10.853792,21.3929882 13.106012,20.2668782 L33.950592,9.8445822 C34.938552,9.3506042 35.339002,8.1492582 34.845022,7.1613012 C34.651492,6.7742462 34.337652,6.4604012 33.950592,6.2668742 L29.106012,3.8445822 C26.853792,2.7184726 24.202812,2.7184726 21.950592,3.8445822 L1.10601099,14.2668782 C0.118053992,14.7608482 -0.282395008,15.9621982 0.211583992,16.9501582 C0.405110992,17.3372082 0.718955992,17.6510582 1.10601099,17.8445782 Z" id="Stroke-8447" fill-opacity="0.1" fill="#4A4A4A"></path>
                    <path d="M12.9200409,18.41115 L31.3423319,9.2 C32.9991819,8.371573 33.6707619,6.356854 32.8423319,4.7 C32.5177719,4.0508894 31.9914419,3.5245553 31.3423319,3.2 L3.34233193,17.2 L5.76462293,18.41115 C8.01684293,19.53726 10.6678209,19.53726 12.9200409,18.41115 Z" id="Stroke-8453" stroke="#4A4A4A" stroke-width="0.5" fill="#7B7B7B" stroke-linecap="round" stroke-linejoin="round"></path>
                    <path d="M1.30174793,10.10507 C4.33447993,7.332185 7.68134193,5.030495 11.3423319,3.2 C15.7716619,0.9853344 19.7411719,-0.0797818901 23.2508619,0.00465112793 L23.2508619,0.00465236593 C24.4275219,0.0329592899 25.5834319,0.3205522 26.6361719,0.8469207 L32.2265919,3.642147 C33.2145419,4.136122 33.6149919,5.33746 33.1210119,6.32541 C32.8873519,6.792728 32.4801019,7.150056 31.9863619,7.320957 C30.0670019,7.985322 27.8523219,8.945003 25.3423319,10.2 C21.2750019,12.23366 17.2076719,14.65506 13.1403419,17.46419 L13.1403419,17.46419 C10.7394319,19.1224 7.62614193,19.3419 5.01630493,18.03699 L2.21202393,16.63485 C0.236107934,15.64689 -0.564790066,13.2442 0.423167934,11.26828 C0.642306934,10.83 0.940111934,10.43572 1.30174793,10.10507 Z" id="Stroke-8458" stroke="#4A4A4A" stroke-width="0.5" fill="#EAEAEA" stroke-linecap="round" stroke-linejoin="round"></path>
                    <path d="M7.5,14 C6.6716,14 6,13.5523 6,13 C6,12.4477 6.6716,12 7.5,12 C8.3284,12 9,12.4477 9,13 C9,13.5523 8.3284,14 7.5,14 Z" id="Clip-8461" fill="#D8D8D8"></path>
                </g>
            </g>
        </g>
    </g>
</svg>