<?xml version="1.0" encoding="UTF-8"?>
<svg width="48px" height="48px" viewBox="0 0 48 48" version="1.1" xmlns="http://www.w3.org/2000/svg" xmlns:xlink="http://www.w3.org/1999/xlink">
    <!-- Generator: Sketch 53.2 (72643) - https://sketchapp.com -->
    <title>md/code</title>
    <desc>Created with Sketch.</desc>
    <g id="md/code" stroke="none" stroke-width="1" fill="none" fill-rule="evenodd">
        <path d="M18,26 C16.8954305,26 16,25.1045695 16,24 C16,22.8954305 16.8954305,22 18,22 C19.1045695,22 20,22.8954305 20,24 C20,25.1045695 19.1045695,26 18,26 Z M24,26 C22.8954305,26 22,25.1045695 22,24 C22,22.8954305 22.8954305,22 24,22 C25.1045695,22 26,22.8954305 26,24 C26,25.1045695 25.1045695,26 24,26 Z M30,26 C28.8954305,26 28,25.1045695 28,24 C28,22.8954305 28.8954305,22 30,22 C31.1045695,22 32,22.8954305 32,24 C32,25.1045695 31.1045695,26 30,26 Z M4,24 L13.5,14.5 C14.3284271,13.6715729 15.6715729,13.6715729 16.5,14.5 C17.3284271,15.3284271 17.3284271,16.6715729 16.5,17.5 L10,24 L16.5,30.5 C17.3284271,31.3284271 17.3284271,32.6715729 16.5,33.5 C15.6715729,34.3284271 14.3284271,34.3284271 13.5,33.5 L4,24 Z M44,24 L34.5,33.5 C33.6715729,34.3284271 32.3284271,34.3284271 31.5,33.5 C30.6715729,32.6715729 30.6715729,31.3284271 31.5,30.5 L38,24 L31.5,17.5 C30.6715729,16.6715729 30.6715729,15.3284271 31.5,14.5 C32.3284271,13.6715729 33.6715729,13.6715729 34.5,14.5 L44,24 Z" id="Combined-Shape" fill="#333333"></path>
    </g>
</svg>