<?xml version="1.0" encoding="UTF-8"?>
<svg width="48px" height="48px" viewBox="0 0 48 48" version="1.1" xmlns="http://www.w3.org/2000/svg" xmlns:xlink="http://www.w3.org/1999/xlink">
    <!-- Generator: Sketch 53.2 (72643) - https://sketchapp.com -->
    <title>md/h1</title>
    <desc>Created with Sketch.</desc>
    <g id="md/h1" stroke="none" stroke-width="1" fill="none" fill-rule="evenodd">
        <path d="M12,22 L24,22 L24,10 L28,10 L28,38 L24,38 L24,26 L12,26 L12,38 L8,38 L8,10 L12,10 L12,22 Z M35,28 L34,28 C33.4477153,28 33,27.5522847 33,27 C33,26.4477153 33.4477153,26 34,26 L36,26 C36.5522847,26 37,26.4477153 37,27 L37,36 L39,36 C39.5522847,36 40,36.4477153 40,37 C40,37.5522847 39.5522847,38 39,38 L33,38 C31.6666667,38 31.6666667,36 33,36 L35,36 L35,28 Z" id="Combined-Shape" fill="#333333"></path>
    </g>
</svg>