<?xml version="1.0" encoding="UTF-8"?>
<svg width="48px" height="48px" viewBox="0 0 48 48" version="1.1" xmlns="http://www.w3.org/2000/svg" xmlns:xlink="http://www.w3.org/1999/xlink">
    <!-- Generator: Sketch 53.2 (72643) - https://sketchapp.com -->
    <title>md/h2</title>
    <desc>Created with Sketch.</desc>
    <g id="md/h2" stroke="none" stroke-width="1" fill="none" fill-rule="evenodd">
        <path d="M12,22 L24,22 L24,10 L28,10 L28,38 L24,38 L24,26 L12,26 L12,38 L8,38 L8,10 L12,10 L12,22 Z M39,36 C39.5522847,36 40,36.4477153 40,37 C40,37.5522847 39.5522847,38 39,38 L33,38 C32.4477153,38 32,37.5522847 32,37 L32,36 C32,33.790861 33.790861,32 36,32 C37.1045695,32 38,31.1045695 38,30 C38,28.8954305 37.1045695,28 36,28 C34.8954305,28 34,28.8954305 34,30 C34,30.5522847 33.5522847,31 33,31 C32.4477153,31 32,30.5522847 32,30 C32,27.790861 33.790861,26 36,26 C38.209139,26 40,27.790861 40,30 C40,32.209139 38.209139,34 36,34 C34.8954305,34 34,34.8954305 34,36 L39,36 Z" id="Combined-Shape" fill="#333333"></path>
    </g>
</svg>