<?xml version="1.0" encoding="UTF-8"?>
<svg width="48px" height="48px" viewBox="0 0 48 48" version="1.1" xmlns="http://www.w3.org/2000/svg" xmlns:xlink="http://www.w3.org/1999/xlink">
    <!-- Generator: Sketch 53.2 (72643) - https://sketchapp.com -->
    <title>md/h3</title>
    <desc>Created with Sketch.</desc>
    <g id="md/h3" stroke="none" stroke-width="1" fill="none" fill-rule="evenodd">
        <path d="M12,22 L24,22 L24,10 L28,10 L28,38 L24,38 L24,26 L12,26 L12,38 L8,38 L8,10 L12,10 L12,22 Z M38,29.5 C38,28.6715729 37.3284271,28 36.5,28 L35,28 C34.4477153,28 34,28.4477153 34,29 C34,29.5522847 33.5522847,30 33,30 C32.4477153,30 32,29.5522847 32,29 C32,27.3431458 33.3431458,26 35,26 L36.5,26 C38.4329966,26 40,27.5670034 40,29.5 C40,30.4793441 39.5977664,31.3647415 38.9494914,32 C39.5977664,32.6352585 40,33.5206559 40,34.5 C40,36.4329966 38.4329966,38 36.5,38 L35,38 C33.3431458,38 32,36.6568542 32,35 C32,34.4477153 32.4477153,34 33,34 C33.5522847,34 34,34.4477153 34,35 C34,35.5522847 34.4477153,36 35,36 L36.5,36 C37.3284271,36 38,35.3284271 38,34.5 C38,33.6715729 37.3284271,33 36.5,33 L36,33 C34.6666667,33 34.6666667,31 36,31 L36.5,31 C37.3284271,31 38,30.3284271 38,29.5 Z" id="Combined-Shape" fill="#333333"></path>
    </g>
</svg>