<?xml version="1.0" encoding="UTF-8"?>
<svg width="48px" height="48px" viewBox="0 0 48 48" version="1.1" xmlns="http://www.w3.org/2000/svg" xmlns:xlink="http://www.w3.org/1999/xlink">
    <!-- Generator: Sketch 53.2 (72643) - https://sketchapp.com -->
    <title>md/hr</title>
    <desc>Created with Sketch.</desc>
    <g id="md/hr" stroke="none" stroke-width="1" fill="none" fill-rule="evenodd">
        <path d="M6,22 L42,22 L42,26 L6,26 L6,22 Z M12,11 C13.1045695,11 14,11.8954305 14,13 C14,14.1045695 13.1045695,15 12,15 C10.8954305,15 10,14.1045695 10,13 C10,11.8954305 10.8954305,11 12,11 Z M12,33 C13.1045695,33 14,33.8954305 14,35 C14,36.1045695 13.1045695,37 12,37 C10.8954305,37 10,36.1045695 10,35 C10,33.8954305 10.8954305,33 12,33 Z M24,11 C25.1045695,11 26,11.8954305 26,13 C26,14.1045695 25.1045695,15 24,15 C22.8954305,15 22,14.1045695 22,13 C22,11.8954305 22.8954305,11 24,11 Z M24,33 C25.1045695,33 26,33.8954305 26,35 C26,36.1045695 25.1045695,37 24,37 C22.8954305,37 22,36.1045695 22,35 C22,33.8954305 22.8954305,33 24,33 Z M36,11 C37.1045695,11 38,11.8954305 38,13 C38,14.1045695 37.1045695,15 36,15 C34.8954305,15 34,14.1045695 34,13 C34,11.8954305 34.8954305,11 36,11 Z M36,33 C37.1045695,33 38,33.8954305 38,35 C38,36.1045695 37.1045695,37 36,37 C34.8954305,37 34,36.1045695 34,35 C34,33.8954305 34.8954305,33 36,33 Z" id="Combined-Shape" fill="#333333"></path>
    </g>
</svg>