<?xml version="1.0" encoding="UTF-8"?>
<svg width="48px" height="48px" viewBox="0 0 48 48" version="1.1" xmlns="http://www.w3.org/2000/svg" xmlns:xlink="http://www.w3.org/1999/xlink">
    <!-- Generator: Sketch 53.2 (72643) - https://sketchapp.com -->
    <title>md/ol</title>
    <desc>Created with Sketch.</desc>
    <g id="md/ol" stroke="none" stroke-width="1" fill="none" fill-rule="evenodd">
        <path d="M16,12 L40,12 L40,16 L16,16 L16,12 Z M16,22 L40,22 L40,26 L16,26 L16,22 Z M16,32 L40,32 L40,36 L16,36 L16,32 Z M12,25.5 C12.2761424,25.5 12.5,25.7238576 12.5,26 C12.5,26.2761424 12.2761424,26.5 12,26.5 L9,26.5 C8.72385763,26.5 8.5,26.2761424 8.5,26 L8.5,25.5 C8.5,24.3954305 9.3954305,23.5 10.5,23.5 C11.0522847,23.5 11.5,23.0522847 11.5,22.5 C11.5,21.9477153 11.0522847,21.5 10.5,21.5 C9.94771525,21.5 9.5,21.9477153 9.5,22.5 C9.5,22.7761424 9.27614237,23 9,23 C8.72385763,23 8.5,22.7761424 8.5,22.5 C8.5,21.3954305 9.3954305,20.5 10.5,20.5 C11.6045695,20.5 12.5,21.3954305 12.5,22.5 C12.5,23.6045695 11.6045695,24.5 10.5,24.5 C9.94771525,24.5 9.5,24.9477153 9.5,25.5 L12,25.5 Z M10,11.5 L9.5,11.5 C9.22385763,11.5 9,11.2761424 9,11 C9,10.7238576 9.22385763,10.5 9.5,10.5 L10.5,10.5 C10.7761424,10.5 11,10.7238576 11,11 L11,15.5 L12,15.5 C12.2761424,15.5 12.5,15.7238576 12.5,16 C12.5,16.2761424 12.2761424,16.5 12,16.5 L9,16.5 C8.33333333,16.5 8.33333333,15.5 9,15.5 L10,15.5 L10,11.5 Z M11.5,32.25 C11.5,31.8357864 11.1642136,31.5 10.75,31.5 L10,31.5 C9.72385763,31.5 9.5,31.7238576 9.5,32 C9.5,32.2761424 9.27614237,32.5 9,32.5 C8.72385763,32.5 8.5,32.2761424 8.5,32 C8.5,31.1715729 9.17157288,30.5 10,30.5 L10.75,30.5 C11.7164983,30.5 12.5,31.2835017 12.5,32.25 C12.5,32.739672 12.2988832,33.1823707 11.9747457,33.5 C12.2988832,33.8176293 12.5,34.260328 12.5,34.75 C12.5,35.7164983 11.7164983,36.5 10.75,36.5 L10,36.5 C9.17157288,36.5 8.5,35.8284271 8.5,35 C8.5,34.7238576 8.72385763,34.5 9,34.5 C9.27614237,34.5 9.5,34.7238576 9.5,35 C9.5,35.2761424 9.72385763,35.5 10,35.5 L10.75,35.5 C11.1642136,35.5 11.5,35.1642136 11.5,34.75 C11.5,34.3357864 11.1642136,34 10.75,34 L10.5,34 C9.83333333,34 9.83333333,33 10.5,33 L10.75,33 C11.1642136,33 11.5,32.6642136 11.5,32.25 Z" id="Combined-Shape" fill="#333333"></path>
    </g>
</svg>