<?xml version="1.0" encoding="UTF-8"?>
<svg width="48px" height="48px" viewBox="0 0 48 48" version="1.1" xmlns="http://www.w3.org/2000/svg" xmlns:xlink="http://www.w3.org/1999/xlink">
    <!-- Generator: Sketch 53.2 (72643) - https://sketchapp.com -->
    <title>md/preview</title>
    <desc>Created with Sketch.</desc>
    <defs>
        <rect id="path-1" x="0" y="0" width="48" height="48"></rect>
    </defs>
    <g id="md/preview" stroke="none" stroke-width="1" fill="none" fill-rule="evenodd">
        <g id="basic_grid">
            <g id="Group">
                <mask id="mask-2" fill="white">
                    <use xlink:href="#path-1"></use>
                </mask>
                <use id="Mask" fill-opacity="0.04" fill="#000000" xlink:href="#path-1"></use>
                <g opacity="0.2" mask="url(#mask-2)" stroke-linecap="round" stroke-linejoin="round">
                    <g transform="translate(-1.000000, -1.000000)">
                        <rect id="Rectangle" stroke="#4A4A4A" stroke-width="0.1" x="7" y="7" width="36" height="36" rx="4"></rect>
                        <circle id="Oval" stroke="#4A4A4A" stroke-width="0.1" cx="25" cy="25" r="10"></circle>
                        <g id="Group-2" opacity="0.5" stroke="none" stroke-width="1" fill-rule="evenodd" transform="translate(5.000000, 5.000000)">
                            <circle id="Oval" stroke="#4A4A4A" stroke-width="0.1" cx="6" cy="6" r="4"></circle>
                            <circle id="Oval-Copy-8" stroke="#4A4A4A" stroke-width="0.1" cx="6" cy="34" r="4"></circle>
                            <circle id="Oval-Copy-3" stroke="#4A4A4A" stroke-width="0.1" cx="34" cy="6" r="4"></circle>
                            <circle id="Oval-Copy-9" stroke="#4A4A4A" stroke-width="0.1" cx="34" cy="34" r="4"></circle>
                            <circle id="Oval-Copy" stroke="#4A4A4A" stroke-width="0.1" cx="4" cy="8" r="4"></circle>
                            <circle id="Oval-Copy-6" stroke="#4A4A4A" stroke-width="0.1" cx="4" cy="32" r="4"></circle>
                            <circle id="Oval-Copy-5" stroke="#4A4A4A" stroke-width="0.1" cx="36" cy="8" r="4"></circle>
                            <circle id="Oval-Copy-7" stroke="#4A4A4A" stroke-width="0.1" cx="36" cy="32" r="4"></circle>
                            <circle id="Oval-Copy-2" stroke="#4A4A4A" stroke-width="0.1" cx="8" cy="4" r="4"></circle>
                            <circle id="Oval-Copy-10" stroke="#4A4A4A" stroke-width="0.1" cx="8" cy="36" r="4"></circle>
                            <circle id="Oval-Copy-4" stroke="#4A4A4A" stroke-width="0.1" cx="32" cy="4" r="4"></circle>
                            <circle id="Oval-Copy-11" stroke="#4A4A4A" stroke-width="0.1" cx="32" cy="36" r="4"></circle>
                        </g>
                        <circle id="Oval" stroke="#4A4A4A" stroke-width="0.1" cx="25" cy="25" r="20"></circle>
                        <rect id="Rectangle" stroke="#4A4A4A" stroke-width="0.1" x="5" y="9" width="40" height="32" rx="4"></rect>
                        <rect id="Rectangle" stroke="#4A4A4A" stroke-width="0.1" x="9" y="5" width="32" height="40" rx="4"></rect>
                        <polygon id="Path" stroke="#4A4A4A" stroke-width="0.1" points="0 25 0 33 50 33 50 25"></polygon>
                        <polygon id="Path-Copy" stroke="#4A4A4A" stroke-width="0.1" points="0 17 0 25 50 25 50 17"></polygon>
                        <polygon id="Path" stroke="#4A4A4A" stroke-width="0.1" transform="translate(29.000000, 25.000000) rotate(-90.000000) translate(-29.000000, -25.000000) " points="4 21 4 29 54 29 54 21"></polygon>
                        <polygon id="Path" stroke="#4A4A4A" stroke-width="0.1" transform="translate(21.000000, 25.000000) rotate(-90.000000) translate(-21.000000, -25.000000) " points="-4 21 -4 29 46 29 46 21"></polygon>
                        <path d="M1,1 L49,49" id="Path-2" stroke="#4A4A4A" stroke-width="0.1"></path>
                        <path d="M49,1 L1,49" id="Path-3" stroke="#4A4A4A" stroke-width="0.1"></path>
                    </g>
                </g>
            </g>
        </g>
    </g>
</svg>