<?xml version="1.0" encoding="UTF-8"?>
<svg width="48px" height="48px" viewBox="0 0 48 48" version="1.1" xmlns="http://www.w3.org/2000/svg" xmlns:xlink="http://www.w3.org/1999/xlink">
    <!-- Generator: Sketch 53.2 (72643) - https://sketchapp.com -->
    <title>md/task_li</title>
    <desc>Created with Sketch.</desc>
    <g id="md/task_li" stroke="none" stroke-width="1" fill="none" fill-rule="evenodd">
        <path d="M24,24.1715729 L35.5857864,12.5857864 C36.366835,11.8047379 37.633165,11.8047379 38.4142136,12.5857864 C39.1952621,13.366835 39.1952621,14.633165 38.4142136,15.4142136 L24,29.8284271 L16.5857864,22.4142136 C15.8047379,21.633165 15.8047379,20.366835 16.5857864,19.5857864 C17.366835,18.8047379 18.633165,18.8047379 19.4142136,19.5857864 L24,24.1715729 Z M35,28 C35,27.4477153 35.4477153,27 36,27 C36.5522847,27 37,27.4477153 37,28 L37,34 C37,35.6568542 35.6568542,37 34,37 L14,37 C12.3431458,37 11,35.6568542 11,34 L11,14 C11,12.3431458 12.3431458,11 14,11 L28,11 C28.5522847,11 29,11.4477153 29,12 C29,12.5522847 28.5522847,13 28,13 L14,13 C13.4477153,13 13,13.4477153 13,14 L13,34 C13,34.5522847 13.4477153,35 14,35 L34,35 C34.5522847,35 35,34.5522847 35,34 L35,28 Z" id="Combined-Shape" fill="#333333" fill-rule="nonzero"></path>
    </g>
</svg>