<?xml version="1.0" encoding="UTF-8"?>
<svg width="48px" height="48px" viewBox="0 0 48 48" version="1.1" xmlns="http://www.w3.org/2000/svg" xmlns:xlink="http://www.w3.org/1999/xlink">
    <!-- Generator: Sketch 53.2 (72643) - https://sketchapp.com -->
    <title>md/ul</title>
    <desc>Created with Sketch.</desc>
    <g id="md/ul" stroke="none" stroke-width="1" fill="none" fill-rule="evenodd">
        <path d="M10,16 C8.8954305,16 8,15.1045695 8,14 C8,12.8954305 8.8954305,12 10,12 C11.1045695,12 12,12.8954305 12,14 C12,15.1045695 11.1045695,16 10,16 Z M10,26 C8.8954305,26 8,25.1045695 8,24 C8,22.8954305 8.8954305,22 10,22 C11.1045695,22 12,22.8954305 12,24 C12,25.1045695 11.1045695,26 10,26 Z M16,12 L40,12 L40,16 L16,16 L16,12 Z M16,22 L40,22 L40,26 L16,26 L16,22 Z M16,32 L40,32 L40,36 L16,36 L16,32 Z M10,36 C8.8954305,36 8,35.1045695 8,34 C8,32.8954305 8.8954305,32 10,32 C11.1045695,32 12,32.8954305 12,34 C12,35.1045695 11.1045695,36 10,36 Z" id="Combined-Shape" fill="#333333"></path>
    </g>
</svg>