<?xml version="1.0" encoding="UTF-8"?>
<svg width="48px" height="48px" viewBox="0 0 48 48" version="1.1" xmlns="http://www.w3.org/2000/svg" xmlns:xlink="http://www.w3.org/1999/xlink">
    <!-- Generator: Sketch 53.2 (72643) - https://sketchapp.com -->
    <title>icon/sidenav-menu</title>
    <desc>Created with Sketch.</desc>
    <g id="icon/sidenav-menu" stroke="none" stroke-width="1" fill="none" fill-rule="evenodd">
        <g id="Group-4">
            <rect id="Rectangle" stroke-opacity="0.08" stroke="#000000" fill="#333333" x="0.5" y="0.5" width="47" height="47" rx="23.5"></rect>
            <path d="M16,17 L32,17 C32.5522847,17 33,17.4477153 33,18 C33,18.5522847 32.5522847,19 32,19 L16,19 C15.4477153,19 15,18.5522847 15,18 C15,17.4477153 15.4477153,17 16,17 Z M16,23 L32,23 C32.5522847,23 33,23.4477153 33,24 C33,24.5522847 32.5522847,25 32,25 L16,25 C15.4477153,25 15,24.5522847 15,24 C15,23.4477153 15.4477153,23 16,23 Z M16,29 L32,29 C32.5522847,29 33,29.4477153 33,30 C33,30.5522847 32.5522847,31 32,31 L16,31 C15.4477153,31 15,30.5522847 15,30 C15,29.4477153 15.4477153,29 16,29 Z" id="Combined-Shape" fill="#FFFFFF"></path>
        </g>
    </g>
</svg>